<svg width="500" height="300" viewBox="0 0 500 300" xmlns="http://www.w3.org/2000/svg" xmlns:xlink="http://www.w3.org/1999/xlink"><title>Rectangle Copy 3</title><defs><path id="a" d="M124.992.012H0v108.174h124.992V.012z"/></defs><g fill="none" fill-rule="evenodd"><path fill="none" d="M0 0h500v300H0z"/><path d="M132 147.062c0-2.666.507-5.322 1.52-7.968a21.692 21.692 0 0 1 4.437-7.094c1.942-2.083 4.309-3.77 7.097-5.062 2.788-1.292 5.957-1.938 9.506-1.938 4.224 0 7.889.897 10.994 2.687 3.105 1.792 5.418 4.125 6.94 7l-7.985 5.5c-.507-1.165-1.152-2.134-1.933-2.906a10.616 10.616 0 0 0-5.418-2.875 15.06 15.06 0 0 0-2.852-.28c-1.986 0-3.718.396-5.196 1.187-1.48.791-2.704 1.812-3.676 3.062a12.651 12.651 0 0 0-2.154 4.25 16.99 16.99 0 0 0-.697 4.813c0 1.75.274 3.437.824 5.062.548 1.625 1.34 3.062 2.376 4.313a11.446 11.446 0 0 0 3.739 2.968c1.457.73 3.094 1.094 4.91 1.094.93 0 1.89-.114 2.884-.344a11.727 11.727 0 0 0 2.852-1.062 10.153 10.153 0 0 0 2.503-1.875c.76-.77 1.372-1.719 1.838-2.844l8.491 4.938c-.676 1.624-1.68 3.083-3.01 4.375a18.566 18.566 0 0 1-4.594 3.25 24.83 24.83 0 0 1-5.513 2 24.83 24.83 0 0 1-5.704.687c-3.253 0-6.242-.656-8.967-1.969-2.724-1.312-5.069-3.051-7.033-5.219a23.81 23.81 0 0 1-4.563-7.374c-1.077-2.75-1.616-5.542-1.616-8.376M184 170v-44h10.33v35.076H216V170zM260 161.076V170h-32v-44h31.423v8.924h-20.906v8.552h17.956v8.242h-17.956v9.358zM278.02 126l10.575 31.234L299.045 126H310l-17.035 44h-8.74L267 126zM353 161.076V170h-32v-44h31.423v8.924h-20.906v8.552h17.956v8.242h-17.956v9.358zM375.25 146.946h9.375c1.208 0 2.25-.567 3.125-1.704.875-1.136 1.313-2.592 1.313-4.369 0-1.817-.5-3.263-1.5-4.338-1-1.074-2.085-1.611-3.25-1.611h-9.063v12.022zM365 170v-44h20c2.083 0 4.01.434 5.781 1.301a15.37 15.37 0 0 1 4.594 3.409 15.96 15.96 0 0 1 3.031 4.772c.729 1.777 1.094 3.574 1.094 5.391 0 1.364-.167 2.676-.5 3.936a15.248 15.248 0 0 1-1.437 3.563 13.51 13.51 0 0 1-5.313 5.267L402 170h-11.562l-8.5-14.192h-6.688V170H365zM441.116 138.301c-.127-.165-.57-.476-1.329-.932-.759-.456-1.708-.932-2.847-1.43a27.882 27.882 0 0 0-3.733-1.305c-1.35-.373-2.7-.56-4.049-.56-3.712 0-5.567 1.224-5.567 3.668 0 .746.2 1.367.6 1.865.4.497.99.942 1.772 1.336.78.394 1.76.756 2.942 1.088 1.18.331 2.552.704 4.112 1.118 2.152.58 4.091 1.212 5.821 1.896 1.73.684 3.195 1.533 4.397 2.548a10.353 10.353 0 0 1 2.784 3.698c.654 1.451.981 3.192.981 5.221 0 2.487-.475 4.59-1.424 6.309-.949 1.72-2.204 3.108-3.764 4.164-1.561 1.057-3.353 1.824-5.378 2.3a27.282 27.282 0 0 1-6.264.715c-1.645 0-3.332-.124-5.06-.373a37.117 37.117 0 0 1-5.063-1.088 40.503 40.503 0 0 1-4.776-1.709 26.76 26.76 0 0 1-4.271-2.3l4.555-8.888c.168.208.717.602 1.645 1.181.928.581 2.077 1.16 3.448 1.74 1.37.581 2.9 1.099 4.588 1.554 1.686.457 3.394.684 5.124.684 3.67 0 5.504-1.097 5.504-3.294 0-.829-.274-1.512-.822-2.051-.549-.538-1.308-1.026-2.278-1.46-.97-.436-2.12-.84-3.448-1.213a408.249 408.249 0 0 1-4.334-1.243c-2.067-.622-3.859-1.295-5.378-2.02-1.518-.724-2.773-1.563-3.764-2.517a9.12 9.12 0 0 1-2.214-3.294c-.486-1.243-.728-2.693-.728-4.351 0-2.32.443-4.372 1.329-6.153a13.33 13.33 0 0 1 3.606-4.507c1.519-1.221 3.28-2.144 5.283-2.765 2.003-.622 4.122-.933 6.359-.933 1.56 0 3.1.146 4.618.435 1.519.29 2.974.664 4.366 1.12a31.62 31.62 0 0 1 3.89 1.553c1.203.58 2.31 1.16 3.322 1.74l-4.555 8.453zM491 161.076V170h-32v-44h31.423v8.924h-20.906v8.552h17.956v8.242h-17.956v9.358z" fill="#FFF"/><g transform="translate(9 95)"><mask id="b" fill="#fff"><use xlink:href="#a"/></mask><path fill="#FFF" mask="url(#b)" d="M0 .096l31.512 54.03 25.06-43.65 15.913.012-33.17 57.393 23.259 40.305L124.992.152h-15.664L62.626 81.213l-7.494-13.069L94.38.152H46.266l-15.209 26.53L23.501 13.4 31.268.012z"/></g></g></svg>