<?xml version="1.0" encoding="UTF-8"?>
<svg width="500px" height="300px" viewBox="0 0 500 300" version="1.1" xmlns="http://www.w3.org/2000/svg" xmlns:xlink="http://www.w3.org/1999/xlink">
    <!-- Generator: Sketch 43.1 (39012) - http://www.bohemiancoding.com/sketch -->
    <title>Rectangle Copy 3</title>
    <desc>Created with Sketch.</desc>
    <defs>
        <polygon id="path-1" points="124.992084 0.0121948893 0 0.0121948893 0 54.0991159 0 108.186037 124.992084 108.186037 124.992084 0.0121948893"></polygon>
    </defs>
    <g id="Page-1" stroke="none" stroke-width="1" fill="none" fill-rule="evenodd">
        <g id="Group-13">
            <rect id="Rectangle-Copy-3" fill-opacity="0" fill="#D8D8D8" x="0" y="0" width="500" height="300"></rect>
            <g id="Page-1" transform="translate(9.000000, 95.000000)">
                <path d="M123,52.0624523 C123,49.3964237 123.507087,46.7402355 124.520911,44.0938875 C125.53491,41.4484027 127.013111,39.0839705 128.95674,36.9999003 C130.899319,34.9170385 133.265666,33.2295147 136.054031,31.9375017 C138.842397,30.6463518 142.010771,30 145.559505,30 C149.783537,30 153.449021,30.896675 156.554031,32.6874355 C159.659392,34.4794044 161.972177,36.8124168 163.493088,39.6875084 L155.508701,45.1877136 C155.001614,44.0215527 154.357122,43.0527156 153.575749,42.2812022 C152.793501,41.5107246 151.938088,40.8857797 151.009333,40.4060223 C150.079352,39.9278187 149.128892,39.593594 148.157778,39.4062832 C147.185438,39.2189724 146.234629,39.125058 145.306224,39.125058 C143.319885,39.125058 141.588053,39.5216045 140.109677,40.3126259 C138.630425,41.1043378 137.40568,42.124966 136.43439,43.3750283 C135.461876,44.6250906 134.744217,46.0420927 134.279665,47.6249986 C133.814412,49.2089403 133.582661,50.8125626 133.582661,52.4375918 C133.582661,54.1874374 133.856771,55.8749612 134.406568,57.4999904 C134.955139,59.1250197 135.747014,60.5623928 136.782892,61.8126278 C137.817371,63.0623449 139.064171,64.052589 140.521718,64.7812885 C141.979264,65.5105059 143.615876,65.874942 145.432777,65.874942 C146.361532,65.874942 147.322844,65.7606565 148.316013,65.5312223 C149.308307,65.3026513 150.258942,64.9482282 151.167743,64.4686434 C152.075493,63.9902671 152.910427,63.3651496 153.670795,62.5936362 C154.431163,61.8231586 155.042923,60.8750379 155.508701,59.7499645 L164,64.6875468 C163.323826,66.3124034 162.320854,67.7713561 160.990036,69.062506 C159.659392,70.3543464 158.127454,71.4374691 156.395797,72.3125645 C154.662914,73.1874873 152.825358,73.8543829 150.882605,74.3125607 C148.938976,74.7703932 147.037706,75 145.179321,75 C141.925703,75 138.937443,74.3436353 136.212441,73.0312511 C133.487615,71.7186943 131.143147,69.9795521 129.178514,67.8124437 C127.21388,65.6465436 125.69332,63.1873338 124.615957,60.4375765 C123.538594,57.6874739 123,54.8964563 123,52.0624523" id="Fill-1" fill="#FFFFFF"></path>
                <polygon id="Fill-3" fill="#FFFFFF" points="175 75 175 31 185.33068 31 185.33068 66.0759642 207 66.0759642 207 75"></polygon>
                <polygon id="Fill-5" fill="#FFFFFF" points="251 66.0759642 251 75 219 75 219 31 250.42289 31 250.42289 39.9238646 229.516928 39.9238646 229.516928 48.4761012 247.472865 48.4761012 247.472865 56.718334 229.516928 56.718334 229.516928 66.0759642"></polygon>
                <polygon id="Fill-7" fill="#FFFFFF" points="269.019209 31 279.594984 62.2338684 290.044114 31 301 31 283.964604 75 275.225364 75 258 31"></polygon>
                <polygon id="Fill-9" fill="#FFFFFF" points="344 66.0759642 344 75 312 75 312 31 343.422716 31 343.422716 39.9238646 322.517046 39.9238646 322.517046 48.4761012 340.472884 48.4761012 340.472884 56.718334 322.517046 56.718334 322.517046 66.0759642"></polygon>
                <path d="M366.250002,51.9463979 L375.625078,51.9463979 C376.833022,51.9463979 377.875062,51.378942 378.749988,50.2421472 C379.624915,49.1063795 380.062551,47.6499949 380.062551,45.8731647 C380.062551,44.055594 379.56242,42.6099937 378.562504,41.5353366 C377.562243,40.4613643 376.478425,39.9238646 375.312432,39.9238646 L366.250002,39.9238646 L366.250002,51.9463979 Z M356,75 L356,31 L376.000047,31 C378.082917,31 380.009551,31.4337657 381.781329,32.3012971 C383.551726,33.1689996 385.08302,34.3056232 386.375038,35.7096272 C387.666194,37.1146583 388.676641,38.7057601 389.406207,40.4815633 C390.134737,42.2585647 390.500037,44.055594 390.500037,45.8731647 C390.500037,47.2365995 390.332924,48.5485096 390.000079,49.8085527 C389.666026,51.0691093 389.187475,52.2562305 388.562527,53.3717992 C387.93758,54.4873678 387.176767,55.4892741 386.281124,56.3775181 C385.38479,57.2662756 384.375034,58.019631 383.249956,58.6394675 L393,75 L381.437608,75 L372.937459,60.8084671 L366.250002,60.8084671 L366.250002,75 L356,75 Z" id="Fill-11" fill="#FFFFFF"></path>
                <path d="M432.115837,43.3012605 C431.989311,43.1361021 431.546469,42.8253571 430.787138,42.3688538 C430.028156,41.9133805 429.07886,41.4366187 427.940125,40.9394267 C426.80139,40.4422346 425.556751,40.0068482 424.20743,39.6341259 C422.857061,39.2612318 421.507566,39.0747848 420.15807,39.0747848 C416.445997,39.0747848 414.590572,40.2975064 414.590572,42.7417478 C414.590572,43.4875359 414.790147,44.1091976 415.191571,44.6065613 C415.591771,45.1035817 416.181935,45.5494407 416.963111,45.9427649 C417.743064,46.3371192 418.723642,46.699369 419.905018,47.0305442 C421.085346,47.3624061 422.456512,47.7354719 424.017466,48.1492263 C426.168585,48.7298559 428.10807,49.3613036 429.838192,50.0449426 C431.567266,50.7287534 433.033151,51.5784092 434.235324,52.5932235 C435.437671,53.6090679 436.364772,54.8415754 437.019248,56.2914327 C437.672675,57.7423201 438,59.4826639 438,61.5124641 C438,63.9987677 437.525352,66.1022197 436.576232,67.8209315 C435.627286,69.5410168 434.371811,70.9288968 432.81173,71.9854299 C431.250775,73.0421347 429.458613,73.8092113 427.434021,74.2851148 C425.409428,74.7610182 423.321573,75 421.170454,75 C419.52544,75 417.837959,74.875702 416.10906,74.6269343 C414.378938,74.3783383 412.69233,74.0160885 411.047491,73.5393267 C409.402302,73.063595 407.80989,72.4932662 406.270606,71.8302291 C404.730622,71.1677069 403.306854,70.4006303 402,69.5302008 L406.555464,60.6423781 C406.723409,60.8501137 407.272154,61.2436096 408.200304,61.8233808 C409.12758,62.4040105 410.277324,62.9837817 411.64849,63.5637247 C413.018782,64.1443543 414.548105,64.6619766 416.235586,65.1172781 C417.921844,65.5739531 419.630296,65.8010888 421.360243,65.8010888 C425.02985,65.8010888 426.864479,64.7036954 426.864479,62.5070199 C426.864479,61.678481 426.589756,60.9948419 426.042059,60.4559311 C425.493313,59.9177069 424.734156,59.4303008 423.764414,58.9950861 C422.793623,58.5602147 421.644927,58.1560745 420.316228,57.7831805 C418.987704,57.4102864 417.542265,56.996532 415.982359,56.5400287 C413.9153,55.918367 412.123138,55.2453722 410.604475,54.520186 C409.086161,53.7955149 407.830687,52.9565033 406.839973,52.0029796 C405.848386,51.0503144 405.110201,49.9517191 404.625592,48.7085673 C404.140458,47.4655872 403.898066,46.0157299 403.898066,44.3576219 C403.898066,42.0376785 404.341083,39.986418 405.22694,38.2046988 C406.112448,36.4234945 407.314621,34.9212741 408.833109,33.6982092 C410.351597,32.4765177 412.112128,31.5540685 414.115924,30.9325784 C416.118846,30.3109167 418.238334,30 420.47456,30 C422.034467,30 423.574625,30.1457583 425.093113,30.4353864 C426.611601,30.7255295 428.066651,31.0985953 429.458613,31.5540685 C430.850575,32.0104001 432.147643,32.5280224 433.349816,33.1079653 C434.551639,33.688595 435.658743,34.2683662 436.671126,34.8481374 L432.115837,43.3012605 Z" id="Fill-13" fill="#FFFFFF"></path>
                <polygon id="Fill-15" fill="#FFFFFF" points="482 66.0759642 482 75 450 75 450 31 481.422716 31 481.422716 39.9238646 460.517046 39.9238646 460.517046 48.4761012 478.473062 48.4761012 478.473062 56.718334 460.517046 56.718334 460.517046 66.0759642"></polygon>
                <g id="Group-19">
                    <mask id="mask-2" fill="white">
                        <use xlink:href="#path-1"></use>
                    </mask>
                    <g id="Clip-18"></g>
                    <polygon id="Fill-17" fill="#FFFFFF" mask="url(#mask-2)" points="0 0.095938936 31.5116154 54.1255701 56.5716296 10.4769255 72.4854625 10.4879009 39.3157654 67.8814052 62.5736083 108.186037 124.992084 0.151687001 109.328392 0.151687001 62.6258452 81.2133808 55.1316104 68.1441179 94.3800639 0.151687001 46.2664214 0.151687001 31.0570847 26.6816686 23.5009721 13.3995179 31.2676097 0.0121426255"></polygon>
                </g>
            </g>
        </g>
    </g>
</svg>