<?xml version="1.0" encoding="UTF-8"?>
<svg width="500px" height="300px" viewBox="0 0 500 300" version="1.1" xmlns="http://www.w3.org/2000/svg" xmlns:xlink="http://www.w3.org/1999/xlink">
    <!-- Generator: Sketch 43.1 (39012) - http://www.bohemiancoding.com/sketch -->
    <title>Rectangle Copy 9</title>
    <desc>Created with Sketch.</desc>
    <defs>
        <polygon id="path-1" points="43.9108473 8.72379358e-14 43.9108473 51.6529048 0 51.6529048 0 5.68434189e-14 43.9108473 5.68434189e-14"></polygon>
        <polygon id="path-3" points="3.05328564e-14 67.7791183 70.6231264 67.7791183 70.6231264 3.97903932e-13 0 3.97903932e-13 0 67.7791183"></polygon>
    </defs>
    <g id="Page-1" stroke="none" stroke-width="1" fill="none" fill-rule="evenodd">
        <g id="Group-6">
            <rect id="Rectangle-Copy-9" fill-opacity="0" fill="#D8D8D8" x="0" y="0" width="500" height="300"></rect>
            <g id="Page-1" transform="translate(23.000000, 94.000000)">
                <polygon id="Fill-1" fill="#FFFFFF" points="294 11 294 92 304.149623 92 314 82.2795327 304 82.2795327 304 20.7204673 314 21.0146729 314 11"></polygon>
                <polygon id="Fill-2" fill="#FFFFFF" points="387.651999 11 377 21.3088785 387.651999 21.3088785 387.651999 82.2795327 377 82.2795327 377 92 398 92 398 11"></polygon>
                <polygon id="Fill-3" fill="#FFFFFF" points="361.888572 27 369 34.6743782 328.111428 76 321 68.3256218"></polygon>
                <polygon id="Fill-4" fill="#FFFFFF" points="328.015644 28 321 34.6349379 332.692389 47 340 39.7614905"></polygon>
                <polygon id="Fill-5" fill="#FFFFFF" points="358.015644 58 351 64.6349379 362.692389 77 370 69.7614905"></polygon>
                <g id="Group-30">
                    <path d="M232.044346,77.1313401 L243.189994,77.1313401 L243.189994,47.4551572 C243.189994,47.4551572 245.875693,35.8253018 257.961336,35.8253018 C270.046979,35.8253018 273.672672,47.4551572 273.672672,47.4551572 L273.672672,77.1313401 L283.878326,66.7045731 L283.878326,46.7054994 C283.878326,46.7054994 279.581208,25.6658879 257.961336,25.6658879 C236.341463,25.6658879 232.044346,46.7054994 232.044346,46.7054994 L232.044346,77.1313401 Z" id="Fill-6" fill="#FFFFFF"></path>
                    <path d="M20.4113082,77.1313401 L31.5569568,77.1313401 L31.5569568,47.4551572 C31.5569568,47.4551572 34.2426552,35.8253018 46.3282982,35.8253018 C58.4139412,35.8253018 62.0396341,47.4551572 62.0396341,47.4551572 L62.0396341,77.1313401 L72.2452882,66.7045731 L72.2452882,46.7054994 C72.2452882,46.7054994 67.9481707,25.6658879 46.3282982,25.6658879 C24.7084257,25.6658879 20.4113082,46.7054994 20.4113082,46.7054994 L20.4113082,77.1313401 Z" id="Fill-8" fill="#FFFFFF"></path>
                    <path d="M187.998891,46.2520687 L207.738775,46.2520687 L197.86937,56.8125122 L187.998891,56.8125122 C187.998891,56.8125122 188.804601,62.0258956 196.324557,66.0361906 C203.844512,70.0464856 213.781596,62.8279546 213.781596,62.8279546 L221.167267,70.0464856 C221.167267,70.0464856 214.928927,75.8266574 205.858786,77.1313401 C201.151294,77.8082778 193.818263,76.6116058 190.14745,74.1904571 C179.404656,67.1056026 177.256098,58.1492772 177.256098,58.1492772 L177.256098,46.2520687 C177.256098,46.2520687 178.196092,38.4988318 183.701774,33.6864778 C189.207456,28.8741238 193.773143,25.6658879 202.098808,25.6658879 C205.220664,25.6658879 210.270851,26.5524304 213.378742,27.9383883 C218.558917,30.2493877 221.167267,33.5528013 221.167267,33.5528013 L213.647312,40.7713323 C213.647312,40.7713323 206.127356,33.8201543 197.667406,37.0283903 C189.207456,40.2366263 187.998891,46.2520687 187.998891,46.2520687" id="Fill-10" fill="#FFFFFF"></path>
                    <g id="Group-14" transform="translate(409.300443, 25.665888)">
                        <mask id="mask-2" fill="white">
                            <use xlink:href="#path-1"></use>
                        </mask>
                        <g id="Clip-13"></g>
                        <path d="M10.7427938,20.5861809 L30.4826774,20.5861809 L20.6132727,31.1466243 L10.7427938,31.1466243 C10.7427938,31.1466243 11.5485033,36.3600078 19.068459,40.3703028 C26.5884146,44.3805977 36.5254989,37.1620668 36.5254989,37.1620668 L43.9111696,44.3805977 C43.9111696,44.3805977 37.6728293,50.1607696 28.6026885,51.4654522 C23.8951962,52.14239 16.5621652,50.945718 12.8913525,48.5245692 C2.14855876,41.4397148 0,32.4833893 0,32.4833893 L0,20.5861809 C0,20.5861809 0.939994457,12.8329439 6.44567627,8.02058995 C11.9513581,3.20823598 16.5170455,5.68434189e-14 24.8427106,5.68434189e-14 C27.9645665,5.68434189e-14 33.0147539,0.886542543 36.1226441,2.27250049 C41.3028193,4.58349981 43.9111696,7.88691345 43.9111696,7.88691345 L36.391214,15.1054444 C36.391214,15.1054444 28.8712583,8.15426645 20.4113082,11.3625024 C11.9513581,14.5707384 10.7427938,20.5861809 10.7427938,20.5861809" id="Fill-12" fill="#FFFFFF" mask="url(#mask-2)"></path>
                    </g>
                    <polygon id="Fill-15" fill="#FFFFFF" points="104.2051 10.6941199 104.2051 32.2160363 114.410754 21.4556128 114.410754 10.6941199"></polygon>
                    <polygon id="Fill-17" fill="#FFFFFF" points="0 10.6941199 0 31.1466243 10.8770787 20.9209068 10.8770787 10.6941199"></polygon>
                    <polygon id="Fill-19" fill="#FFFFFF" points="10.8770787 31.0129478 0 41.7070678 0 76.9976636 10.8770787 76.9976636"></polygon>
                    <polygon id="Fill-21" fill="#FFFFFF" points="82.7195122 0 82.7195122 10.0257374 77.6166851 10.0257374 67.6796009 20.7861609 82.7195122 20.7861609 82.7195122 77.0511342 89.2994734 77.0511342 98.9679878 66.8382496 93.5965909 66.8382496 93.5965909 0"></polygon>
                    <path d="M139.720776,66.3890966 C131.319911,66.3890966 124.50898,59.6090245 124.50898,51.2462227 C124.50898,42.8727268 131.319911,36.0926548 139.720776,36.0926548 C148.132384,36.0926548 154.943315,42.8727268 154.943315,51.2462227 C154.943315,59.6090245 148.132384,66.3890966 139.720776,66.3890966 M139.720776,25.6658879 C125.443603,25.6658879 113.873614,37.183455 113.873614,51.3959404 C113.873614,65.6084258 125.443603,77.1366871 139.720776,77.1366871 L139.828204,77.1366871 L140.021574,67.4478144 C145.790455,67.501285 151.237051,68.8915206 156.060565,71.3404741 C161.872417,66.6243672 165.578681,59.4379186 165.578681,51.3959404 C165.578681,37.183455 153.997949,25.6658879 139.720776,25.6658879" id="Fill-23" fill="#FFFFFF"></path>
                    <path d="M155.888681,71.2656153 C151.46265,74.8695337 145.81194,77.04044 139.656319,77.0618283 L139.84969,67.3729556 C145.61857,67.4264262 151.065166,68.8166618 155.888681,71.2656153" id="Fill-25" fill="#FFFFFF"></path>
                    <g id="Group-29" transform="translate(105.279379, 71.650604)">
                        <mask id="mask-4" fill="white">
                            <use xlink:href="#path-3"></use>
                        </mask>
                        <g id="Clip-28"></g>
                        <path d="M31.8921319,5.65505062 C38.0477528,5.63366238 46.5270399,3.60391842 50.953071,3.97903932e-13 C62.6304878,5.93523657 70.6231264,18.008898 70.6231264,31.9433363 C70.6231264,51.7381523 54.4981929,67.7793322 34.6240244,67.7793322 C18.1875499,67.7793322 4.30786031,56.8071651 0,41.814009 L9.36771619,31.4193244 L9.36771619,31.5904303 C9.36771619,45.6638921 20.8302772,57.0745181 34.9785366,57.0745181 C49.1160532,57.0745181 60.5786142,45.6638921 60.5786142,31.5904303 C60.5786142,17.5169685 49.1160532,6.10634248 34.9785366,6.10634248 L31.8921319,5.65505062 Z" id="Fill-27" fill="#FFFFFF" mask="url(#mask-4)"></path>
                    </g>
                </g>
            </g>
        </g>
    </g>
</svg>