<svg width="500" height="300" viewBox="0 0 500 300" xmlns="http://www.w3.org/2000/svg" xmlns:xlink="http://www.w3.org/1999/xlink"><title>Rectangle Copy 9</title><defs><path id="a" d="M43.91 0v51.653H0V0h43.91z"/><path id="c" d="M0 67.78h70.623V0H0v67.78z"/></defs><g fill="none" fill-rule="evenodd"><path fill="none" d="M0 0h500v300H0z"/><path fill="#FFF" d="M317 105v81h10.15l9.85-9.72h-10v-61.56l10 .295V105zM410.652 105L400 115.309h10.652v60.97H400V186h21v-81zM384.889 121l7.111 7.674L351.111 170 344 162.326zM351.016 122L344 128.635 355.692 141l7.308-7.239zM381.016 152L374 158.635 385.692 171l7.308-7.239zM255.044 171.131h11.146v-29.676s2.686-11.63 14.771-11.63c12.086 0 15.712 11.63 15.712 11.63v29.676l10.205-10.426v-20s-4.297-21.04-25.917-21.04-25.917 21.04-25.917 21.04v30.426zM43.411 171.131h11.146v-29.676s2.686-11.63 14.771-11.63c12.086 0 15.712 11.63 15.712 11.63v29.676l10.205-10.426v-20s-4.297-21.04-25.917-21.04-25.917 21.04-25.917 21.04v30.426zM210.999 140.252h19.74l-9.87 10.56H211s.806 5.214 8.326 9.224c7.52 4.01 17.457-3.208 17.457-3.208l7.385 7.218s-6.238 5.78-15.308 7.085c-4.708.677-12.04-.52-15.712-2.94-10.742-7.085-12.89-16.042-12.89-16.042v-11.897s.94-7.753 6.445-12.566c5.505-4.812 10.071-8.02 18.397-8.02 3.122 0 8.172.886 11.28 2.272 5.18 2.311 7.788 5.615 7.788 5.615l-7.52 7.218s-7.52-6.95-15.98-3.743c-8.46 3.209-9.668 9.224-9.668 9.224"/><g transform="translate(432.3 119.666)"><mask id="b" fill="#fff"><use xlink:href="#a"/></mask><path d="M10.743 20.586h19.74l-9.87 10.56h-9.87s.806 5.214 8.325 9.224c7.52 4.01 17.457-3.208 17.457-3.208l7.386 7.219s-6.238 5.78-15.308 7.084c-4.708.677-12.04-.52-15.712-2.94C2.15 41.44 0 32.483 0 32.483V20.586s.94-7.753 6.446-12.565C11.95 3.208 16.517 0 24.843 0c3.122 0 8.172.887 11.28 2.273 5.18 2.31 7.788 5.614 7.788 5.614l-7.52 7.218s-7.52-6.95-15.98-3.742-9.668 9.223-9.668 9.223" fill="#FFF" mask="url(#b)"/></g><path fill="#FFF" d="M127.205 104.694v21.522l10.206-10.76v-10.762zM23 104.694v20.453l10.877-10.226v-10.227zM33.877 125.013L23 135.707v35.29h10.877zM105.72 94v10.026h-5.103l-9.937 10.76h15.04v56.265h6.58l9.668-10.213h-5.371V94zM162.72 160.39c-8.4 0-15.211-6.781-15.211-15.144 0-8.373 6.81-15.153 15.212-15.153 8.411 0 15.222 6.78 15.222 15.153 0 8.363-6.81 15.143-15.222 15.143m0-40.723c-14.277 0-25.847 11.517-25.847 25.73 0 14.212 11.57 25.74 25.847 25.74h.107l.194-9.688c5.768.053 11.215 1.444 16.039 3.892 5.811-4.716 9.518-11.902 9.518-19.944 0-14.213-11.581-25.73-25.858-25.73"/><path d="M178.889 165.266a25.77 25.77 0 0 1-16.233 5.796l.194-9.689c5.769.053 11.215 1.444 16.039 3.893" fill="#FFF"/><g transform="translate(128.28 165.65)"><mask id="d" fill="#fff"><use xlink:href="#c"/></mask><path d="M31.892 5.655C38.048 5.634 46.527 3.604 50.953 0c11.677 5.935 19.67 18.009 19.67 31.943 0 19.795-16.125 35.836-35.999 35.836C18.188 67.78 4.308 56.807 0 41.814l9.368-10.395v.171c0 14.074 11.462 25.485 25.61 25.485 14.138 0 25.6-11.411 25.6-25.485 0-14.073-11.462-25.484-25.6-25.484l-3.086-.45z" fill="#FFF" mask="url(#d)"/></g></g></svg>