<svg width="500" height="300" viewBox="0 0 500 300" xmlns="http://www.w3.org/2000/svg"><title>Rectangle Copy</title><g fill="none" fill-rule="evenodd"><path fill="none" d="M0 0h500v300H0z"/><g fill="#FFF"><path d="M211.442 133.236c-7.31 0-10.965 5.77-10.965 14.82 0 9.051 3.77 14.594 11.08 14.594 7.31 0 10.966-5.657 10.966-14.706 0-8.938-3.77-14.708-11.08-14.708zM211.215 176C195.222 176 183 166.045 183 148.17c0-17.876 12.793-28.17 28.9-28.17 16.105 0 28.1 10.182 28.1 27.83 0 17.648-12.907 28.17-28.785 28.17zM313.287 143.175c0-6.3-2.76-8.438-7.247-8.438-3.565 0-6.44 1.575-8.626 3.375V174H279.7v-30.825c0-6.3-2.876-8.438-7.362-8.438-3.565 0-6.44 1.35-8.626 3.15V174H246v-52.936l17.713-.033v6.731c4.716-4.837 10.007-7.762 17.022-7.762 6.787 0 12.424 3.15 15.069 9.337C300.75 123.6 306.96 120 314.322 120 324.79 120 331 126.862 331 138.112V174h-17.713v-30.825M341.616 120.915l17.768-.034V175h-17.768v-54.085zm8.884-6.95c-6.462 0-10.5-3.332-10.5-9.426 0-6.321 4.038-9.539 10.5-9.539 6.577 0 10.5 3.218 10.5 9.54 0 6.093-3.923 9.425-10.5 9.425zM388.176 176c-7.53 0-17.413-1.583-23.176-4.639l3.528-12.557c6.471 3.168 13.53 4.978 20 4.978 4.943 0 7.413-1.471 7.413-4.3 0-3.054-3.059-4.073-9.294-5.43-12.706-2.489-20.824-6.901-20.824-17.196 0-9.842 8.94-16.856 24.119-16.856 7.294 0 16.823 2.036 22.235 4.525l-3.647 12.444c-6.235-3.054-13.648-4.75-18.824-4.75-4.471 0-6.706 1.356-6.706 3.958 0 2.829 3.411 3.96 9.412 5.205 12.824 2.714 20.588 6.787 20.588 17.31 0 9.502-8.705 17.308-24.824 17.308M452.378 142.106c0-6.35-2.672-10.09-8.25-10.09-6.161 0-9.88 5.215-10.462 11.222l18.712-.113v-1.02zm-4.532 21.198c5.928 0 12.204-2.04 17.667-5.101l1.743 13.49c-5.463 2.72-13.133 4.307-21.037 4.307C427.97 176 416 166.138 416 148.453c0-17.23 12.087-28.453 29.289-28.453C460.63 120 469 128.955 469 142.106c0 2.834-.349 7.028-1.163 9.294l-34.287.568v.227c.581 7.14 5.463 11.11 14.296 11.11zM64 201.554C72.96 206.416 83.07 209 93.583 209c17.485 0 33.278-7.236 44.472-18.815 3.842-4.29 5.945-9.738 5.945-15.506 0-6.275-2.483-12.174-6.992-16.611L129.823 151 86.47 193.8c-5.189 5.105-12.086 7.917-19.423 7.917-1.025 0-2.042-.054-3.047-.163M100.53 102.276c5.189-5.132 12.087-7.958 19.425-7.958 1.025 0 2.04.055 3.045.164C114.04 89.597 103.928 87 93.413 87 59.55 87 32 114.247 32 147.739c0 10.397 2.627 20.398 7.57 29.261-.11-.994-.165-2-.165-3.016 0-7.257 2.857-14.08 8.046-19.212l53.08-52.496"/><path d="M155 147.796c0-17.294-7.384-32.913-19.198-43.973-4.358-3.763-9.88-5.823-15.726-5.823-6.387 0-12.392 2.453-16.908 6.907L96 111.976l43.536 42.838c5.197 5.124 8.059 11.939 8.059 19.185 0 1.01-.056 2.012-.166 3.001 4.945-8.846 7.571-18.826 7.571-29.204M57.102 151l-7.11 6.98C45.485 162.408 43 168.294 43 174.555c0 5.719 2.077 11.121 5.871 15.388.763.79 1.546 1.562 2.35 2.31 4.344 3.714 9.836 5.747 15.65 5.747 6.377 0 12.374-2.438 16.883-6.866L91 184.01 57.102 151"/></g></g></svg>