<?xml version="1.0" encoding="UTF-8"?>
<svg width="500px" height="300px" viewBox="0 0 500 300" version="1.1" xmlns="http://www.w3.org/2000/svg" xmlns:xlink="http://www.w3.org/1999/xlink">
    <!-- Generator: Sketch 43.1 (39012) - http://www.bohemiancoding.com/sketch -->
    <title>Rectangle Copy</title>
    <desc>Created with Sketch.</desc>
    <defs></defs>
    <g id="Page-1" stroke="none" stroke-width="1" fill="none" fill-rule="evenodd">
        <g id="Group-16">
            <rect id="Rectangle-Copy" fill-opacity="0" fill="#D8D8D8" x="0" y="0" width="500" height="300"></rect>
            <g id="Group-4" transform="translate(32.000000, 87.000000)" fill="#FFFFFF">
                <path d="M179.442452,46.2356676 C172.13128,46.2356676 168.476553,52.0058028 168.476553,61.0561446 C168.476553,70.1073371 172.246376,75.6503418 179.557548,75.6503418 C186.867861,75.6503418 190.522588,69.9933465 190.522588,60.9438554 C190.522588,52.0058028 186.752765,46.2356676 179.442452,46.2356676 Z M179.214837,89 C163.221648,89 151,79.044539 151,61.1692845 C151,43.2940301 163.792833,33 179.900259,33 C196.005108,33 208,43.1817408 208,60.8298648 C208,78.4779888 195.09293,89 179.214837,89 L179.214837,89 Z" id="Fill-3"></path>
                <path d="M281.287162,56.1751234 C281.287162,49.8746299 278.52645,47.7369625 274.040293,47.7369625 C270.475239,47.7369625 267.599497,49.3120858 265.413934,51.1122268 L265.413934,87 L247.701096,87 L247.701096,56.1751234 C247.701096,49.8746299 244.825354,47.7369625 240.339198,47.7369625 C236.774143,47.7369625 233.898401,49.0870682 231.712838,50.8872092 L231.712838,87 L214,87 L214,34.0641811 L231.712838,34.0311898 L231.712838,40.7622621 C236.429054,35.9252291 241.719554,33 248.735498,33 C255.522248,33 261.158701,36.1494008 263.803519,42.3373854 C268.750659,36.599436 274.960531,33 282.322429,33 C292.789263,33 299,39.8621916 299,51.1122268 L299,87 L281.287162,87 L281.287162,56.1751234" id="Fill-4"></path>
                <path d="M309.615518,33.9150182 L327.384482,33.8813107 L327.384482,88 L309.615518,88 L309.615518,33.9150182 Z M318.5,26.9652229 C312.037928,26.9652229 308,23.6325018 308,17.5392228 C308,11.2177699 312.037928,8 318.5,8 C325.077467,8 329,11.2177699 329,17.5392228 C329,23.6325018 325.077467,26.9652229 318.5,26.9652229 L318.5,26.9652229 Z" id="Fill-5"></path>
                <path d="M356.175952,89 C348.645847,89 338.763468,87.416892 333,84.3612639 L336.527968,71.803585 C342.999152,74.9715024 350.058626,76.7817408 356.528926,76.7817408 C361.471443,76.7817408 363.941374,75.3109221 363.941374,72.4824244 C363.941374,69.427647 360.882268,68.4093878 354.647284,67.0525596 C341.941116,64.5634817 333.822721,60.1510254 333.822721,49.8561446 C333.822721,40.0138235 342.763836,33 357.941706,33 C365.235611,33 374.765016,35.0356676 380.177279,37.5247456 L376.529884,49.9692845 C370.2949,46.9145071 362.882453,45.2182592 357.705505,45.2182592 C353.234505,45.2182592 350.999889,46.5750873 350.999889,49.1773052 C350.999889,52.0058028 354.411084,53.1372019 360.411637,54.3817408 C373.236348,57.0962479 381,61.1692845 381,71.6912958 C381,81.1941972 372.295085,89 356.175952,89" id="Fill-6"></path>
                <path d="M420.37829,55.1055772 C420.37829,48.7568193 417.705742,45.0155869 412.1273,45.0155869 C405.966806,45.0155869 402.247263,50.2306381 401.666084,56.2384316 L420.37829,56.1250609 L420.37829,55.1055772 Z M415.84597,76.304189 C421.773992,76.304189 428.049848,74.2643692 433.512928,71.2025085 L435.25559,84.6936191 C429.79251,87.4136629 422.1227,89 414.21867,89 C395.971407,89 384,79.1384559 384,61.4534827 C384,44.2228446 396.086769,33 413.288784,33 C428.631027,33 437,41.9554311 437,55.1055772 C437,57.9398441 436.651293,62.1337068 435.836769,64.4002679 L401.549848,64.9679737 L401.549848,65.1947151 C402.131027,72.3353629 407.012928,76.304189 415.84597,76.304189 L415.84597,76.304189 Z" id="Fill-7"></path>
                <path d="M32,114.553782 C40.9600557,119.416304 51.070577,122 61.583152,122 C79.0681403,122 94.8613698,114.764451 106.055348,103.185347 C109.896615,98.8957432 112,93.4474582 112,87.6788873 C112,81.4041963 109.517187,75.5045993 105.008441,71.0676983 L97.8228179,64 L54.4697589,106.799268 C49.2813506,111.905001 42.3837786,114.717351 35.0467322,114.717351 C34.0215821,114.717351 33.0051345,114.662542 32,114.553782" id="Fill-8"></path>
                <path d="M68.5306923,15.2758888 C73.7189299,10.1437548 80.6174321,7.31772403 87.955468,7.31772403 C88.979886,7.31772403 89.9956004,7.3728157 91,7.48213825 C82.0396063,2.59705604 71.9277216,0 61.4128584,0 C27.5496203,0 0,27.2471378 0,60.7385728 C0,71.1362658 2.62675747,81.1371266 7.57042294,90 C7.45988676,89.0057674 7.40505385,87.9994835 7.40505385,86.9837307 C7.40505385,79.727124 10.2615873,72.9043643 15.4506953,67.7722304 L68.5306923,15.2758888" id="Fill-9"></path>
                <path d="M123,60.7955648 C123,43.5019042 115.615847,27.8827664 103.801726,16.8230071 C99.4441079,13.0596287 93.9219018,11 88.0762957,11 C81.6893653,11 75.6842385,13.4533307 71.1679718,17.906977 L64,24.9755609 L107.536079,67.8142913 C112.733142,72.9384344 115.594926,79.7525734 115.594926,86.9990969 C115.594926,88.0091402 115.539138,89.0105874 115.429304,90 C120.373574,81.1537399 123,71.1736524 123,60.7955648" id="Fill-10"></path>
                <path d="M25.1024423,64 L17.9929106,70.9798004 C13.483854,75.4079744 11,81.2939765 11,87.5551172 C11,93.2736314 13.077421,98.6759695 16.8710859,102.942637 C17.6343445,103.733078 18.4167498,104.504718 19.221783,105.253286 C23.5646112,108.967073 29.0571138,111 34.8716298,111 C41.2483636,111 47.2447736,108.562026 51.7538303,104.133852 L59,97.0104907 L25.1024423,64" id="Fill-11"></path>
            </g>
        </g>
    </g>
</svg>