<svg width="500" height="300" viewBox="0 0 500 300" xmlns="http://www.w3.org/2000/svg" xmlns:xlink="http://www.w3.org/1999/xlink"><title>Rectangle</title><defs><path id="a" d="M0 90.349V.329h40.81v90.02H0z"/><path id="c" d="M.06.33h40.81v90.019H.06V.329z"/><path id="e" d="M0 122.177h463.302V.63H0z"/></defs><g fill="none" fill-rule="evenodd"><path fill="none" d="M0 0h500v300H0z"/><g transform="translate(18 88)"><path d="M56.521 98.76v-1.714c0-.568-.708-1.028-1.583-1.028H27.527c-.875 0-1.584.46-1.584 1.028v1.714c0 .568.71 1.028 1.584 1.028h27.411c.875 0 1.583-.46 1.583-1.028zm-11.174 6.89v-1.713c0-.57-.45-1.03-1.005-1.03H26.947c-.553 0-1.004.46-1.004 1.03v1.713c0 .568.45 1.029 1.004 1.029h17.395c.555 0 1.005-.46 1.005-1.03zm16.427-9.389c0 .861-.63 1.586-1.486 1.794.856.209 1.486.933 1.486 1.795v3.089c0 .86-.63 1.585-1.486 1.793.856.21 1.486.934 1.486 1.795v3.088c0 1.025-.891 1.856-1.991 1.856h-34.47c-1.1 0-1.99-.831-1.99-1.856v-3.088c0-.861.63-1.585 1.484-1.795-.854-.208-1.484-.932-1.484-1.793V99.85c0-.862.63-1.586 1.484-1.795-.854-.208-1.484-.933-1.484-1.794v-3.089c0-1.024.89-1.854 1.99-1.854h34.47c1.1 0 1.99.83 1.99 1.854v3.089zM42.548 122.177c8.878 0 16.074-4.511 16.074-10.076H26.474c0 5.565 7.197 10.076 16.074 10.076" fill="#FFF"/><mask id="b" fill="#fff"><use xlink:href="#a"/></mask><path d="M38.633 90.349H26.081c-.97 0-1.823-.642-2.092-1.573-.847-2.934-.714-5.791-.585-8.555.162-3.491.3-6.505-1.523-9.104-3.762-5.362-10.618-18.047-11.32-19.351-.671-.675-3.526-2.679-5.437-4.022-1.61-1.13-3.13-2.197-4.253-3.054a2.21 2.21 0 0 1-.869-1.663c-.048-1.08.652-1.771 1.115-2.23.328-.324.76-.718 1.26-1.176.873-.797 1.959-1.789 2.853-2.743 1.147-1.227 1.403-1.786 1.451-1.91.557-7.598 2.56-14.154 5.953-19.485 2.753-4.326 6.41-7.844 10.868-10.454C31.052.609 38.263.339 38.566.33a2.176 2.176 0 0 1 .137 4.348c-.094.004-6.565.282-13.156 4.196-8.748 5.194-13.636 14.102-14.53 26.477-.159 2.211-2.483 4.533-5.53 7.324a351.06 351.06 0 0 0 2.14 1.51c5.223 3.668 6.337 4.554 6.772 5.527.657 1.219 7.476 13.82 11.047 18.908 2.677 3.815 2.48 8.058 2.306 11.801-.09 1.942-.176 3.8.084 5.577h10.797c1.202 0 2.177.975 2.177 2.175a2.177 2.177 0 0 1-2.177 2.176" fill="#FFF" mask="url(#b)"/><g transform="translate(44.124)"><mask id="d" fill="#fff"><use xlink:href="#c"/></mask><path d="M14.789 90.349H2.236a2.176 2.176 0 1 1 0-4.35h10.797c.26-1.777.174-3.636.084-5.577-.174-3.744-.37-7.987 2.307-11.802 3.572-5.09 10.39-17.692 11.046-18.908.436-.973 1.55-1.86 6.773-5.525.722-.508 1.456-1.024 2.141-1.512-3.048-2.791-5.373-5.113-5.532-7.325-.899-12.45-5.84-21.389-14.684-26.568C8.564 4.916 2.233 4.68 2.17 4.678A2.176 2.176 0 1 1 2.304.33c.303.01 7.513.278 15.064 4.699 4.458 2.61 8.115 6.128 10.868 10.454 3.393 5.332 5.396 11.887 5.954 19.484.046.125.303.684 1.45 1.911.894.954 1.98 1.946 2.852 2.743.5.458.933.852 1.26 1.176.464.459 1.163 1.15 1.115 2.23a2.209 2.209 0 0 1-.87 1.664c-1.121.856-2.641 1.924-4.252 3.053-1.912 1.343-4.765 3.347-5.436 4.022-.703 1.304-7.559 13.99-11.32 19.351-1.825 2.6-1.684 5.613-1.523 9.104.129 2.764.262 5.621-.586 8.555a2.178 2.178 0 0 1-2.091 1.573" fill="#FFF" mask="url(#d)"/></g><path d="M56.1 28.34h-1.097v-5.536H42.051a.546.546 0 0 1-.532-.416l-.486-1.994-2.114 5.95a.549.549 0 0 1-1.049-.046l-2.036-7.978-1.249 4.098a.548.548 0 0 1-.525.386h-5.228v3.657h-1.097v-4.2c0-.301.245-.543.549-.543h5.369l1.703-5.586a.548.548 0 1 1 1.056.024l2.075 8.13 2.126-5.983a.55.55 0 0 1 1.05.052l.82 3.363h13.069c.302 0 .548.242.548.543v6.08zM34.669 86.28h-1.07V67.406H28.27a.541.541 0 0 1-.536-.546V54.79h1.07v11.52h5.329c.296 0 .535.246.535.55v19.42z" fill="#FFF"/><mask id="f" fill="#fff"><use xlink:href="#e"/></mask><path fill="#FFF" mask="url(#f)" d="M25.214 55.42h6.303V25.192h-6.303zM48.992 86.28h-1.086V67.135c0-.3.243-.542.543-.542h7.197v-16.21h1.085v16.752a.54.54 0 0 1-.543.538h-7.196V86.28z"/><path d="M50.743 50.234c-5.374 0-9.73-4.445-9.73-9.927 0-5.485 4.356-9.929 9.73-9.929 5.373 0 9.73 4.444 9.73 9.93 0 5.48-4.357 9.926-9.73 9.926m0-25.043c-8.18 0-14.813 6.768-14.813 15.116 0 8.347 6.632 15.114 14.813 15.114 8.181 0 14.813-6.767 14.813-15.114 0-8.348-6.632-15.116-14.813-15.116M218.43 34.948h5.278c.97 0 1.793-.09 2.465-.272.674-.181 1.22-.45 1.639-.806.42-.355.722-.793.91-1.312.188-.52.282-1.116.282-1.793 0-.762-.115-1.398-.346-1.913a2.909 2.909 0 0 0-1.02-1.23c-.448-.307-1.003-.528-1.665-.661-.66-.133-1.428-.2-2.302-.2h-5.241v8.187zm-4.114-11.646h9.355c1.007 0 1.936.042 2.784.127.85.084 1.623.241 2.321.47.698.23 1.32.544 1.866.942a5.61 5.61 0 0 1 1.42 1.54c.775 1.22 1.165 2.631 1.165 4.239 0 1.28-.207 2.406-.62 3.378a6.264 6.264 0 0 1-1.83 2.445c-.805.658-1.8 1.156-2.983 1.495-1.184.338-2.546.507-4.086.507h-5.278v9.418h-4.114V23.302zM241.094 34.37h6.361c.904 0 1.68-.074 2.332-.218.65-.145 1.183-.375 1.598-.688.416-.315.724-.722.922-1.223.2-.502.298-1.108.298-1.821 0-1.28-.383-2.237-1.147-2.87-.765-.635-1.956-.951-3.57-.951h-6.794v7.77zm16.716 13.493h-4.427l-2.223-6.267c-.446-1.243-1.053-2.18-1.817-2.807-.765-.628-1.792-.943-3.081-.943h-5.168v10.017h-4.085V23.302h10.879c1.301 0 2.5.114 3.596.344 1.097.229 2.04.613 2.829 1.15a5.466 5.466 0 0 1 1.844 2.138c.439.887.66 1.988.66 3.304 0 1.727-.468 3.135-1.402 4.222-.933 1.085-2.256 1.793-3.966 2.119.892.35 1.647.914 2.269 1.693.62.779 1.158 1.79 1.616 3.035l2.476 6.556zM271.956 45.602c1.14 0 2.172-.221 3.1-.664a6.702 6.702 0 0 0 2.382-1.898c.657-.823 1.166-1.811 1.526-2.967.36-1.154.538-2.445.538-3.87 0-1.4-.176-2.676-.529-3.824-.353-1.149-.853-2.138-1.5-2.968a6.743 6.743 0 0 0-2.354-1.926c-.921-.454-1.953-.681-3.091-.681-1.137 0-2.175.225-3.109.672a6.866 6.866 0 0 0-2.397 1.908c-.666.822-1.178 1.813-1.537 2.966-.359 1.156-.54 2.44-.54 3.852 0 1.426.184 2.717.549 3.871.365 1.156.878 2.144 1.536 2.967a6.713 6.713 0 0 0 2.372 1.898c.923.443 1.94.664 3.054.664m.036-22.3c1.726 0 3.303.31 4.736.931a10.63 10.63 0 0 1 3.683 2.616c1.025 1.124 1.82 2.483 2.39 4.074.568 1.591.853 3.35.853 5.28 0 1.929-.276 3.685-.826 5.271-.551 1.585-1.336 2.945-2.355 4.082a10.412 10.412 0 0 1-3.683 2.635c-1.438.62-3.038.932-4.798.932-1.76 0-3.356-.307-4.788-.922a10.412 10.412 0 0 1-3.675-2.618c-1.018-1.13-1.805-2.49-2.363-4.081-.557-1.593-.835-3.357-.835-5.3 0-1.928.284-3.688.854-5.28.569-1.59 1.367-2.949 2.397-4.073a10.766 10.766 0 0 1 3.683-2.616c1.428-.621 3.003-.931 4.727-.931M298.35 49.123c-1.76 0-3.348-.302-4.766-.903a10.165 10.165 0 0 1-3.635-2.58c-1.006-1.12-1.782-2.476-2.326-4.073-.545-1.598-.817-3.386-.817-5.365 0-1.928.272-3.688.817-5.28.544-1.59 1.322-2.949 2.334-4.073a10.415 10.415 0 0 1 3.671-2.616c1.436-.621 3.045-.931 4.83-.931 1.532 0 2.923.18 4.173.543 1.252.364 2.333.894 3.25 1.594a7.908 7.908 0 0 1 2.189 2.58c.545 1.02.884 2.187 1.015 3.503h-4.075c-.204-1.487-.864-2.646-1.984-3.474-1.119-.83-2.63-1.244-4.533-1.244-1.137 0-2.17.211-3.097.635a6.678 6.678 0 0 0-2.387 1.834c-.665.798-1.18 1.781-1.545 2.948-.365 1.169-.547 2.496-.547 3.981 0 1.5.186 2.833.557 4 .37 1.168.891 2.15 1.561 2.95a6.624 6.624 0 0 0 2.424 1.824c.946.418 1.993.626 3.141.626 1.57 0 2.932-.246 4.093-.737a6.762 6.762 0 0 0 2.873-2.286v-3.427h-5.924v-3.355h9.856V48.7h-2.694l-.736-2.378c-.861.922-1.932 1.619-3.212 2.093-1.28.472-2.784.709-4.507.709M318.625 34.37h6.362c.904 0 1.681-.074 2.332-.218.65-.145 1.183-.375 1.6-.688.415-.315.722-.722.92-1.223.199-.502.298-1.108.298-1.821 0-1.28-.382-2.237-1.147-2.87-.765-.635-1.955-.951-3.57-.951h-6.795v7.77zm16.717 13.493h-4.427l-2.222-6.267c-.447-1.243-1.053-2.18-1.817-2.807-.765-.628-1.792-.943-3.081-.943h-5.17v10.017h-4.084V23.302h10.879c1.303 0 2.501.114 3.598.344 1.095.229 2.038.613 2.828 1.15a5.463 5.463 0 0 1 1.843 2.138c.44.887.66 1.988.66 3.304 0 1.727-.467 3.135-1.4 4.222-.935 1.085-2.258 1.793-3.968 2.119.891.35 1.648.914 2.269 1.693.62.779 1.158 1.79 1.617 3.035l2.475 6.556zM343.513 37.81h7.396l-3.625-10.162h-.34l-3.43 10.162zm15.152 10.053h-4.217l-2.483-6.792h-9.56l-2.34 6.792h-4.093l8.935-24.561h4.43l9.328 24.561zM385.77 47.863h-3.761V35.927c0-1.4.005-2.793.017-4.175.011-1.383.017-2.763.017-4.14l-6.38 20.251h-3.617l-6.505-20.25a476.155 476.155 0 0 1 .071 8.314v11.936h-3.795V23.302h5.845l6.202 19.471 6.023-19.471h5.883v24.561zM414.765 47.863h-3.76V35.927c0-1.4.007-2.793.018-4.175.01-1.383.018-2.763.018-4.14l-6.381 20.251h-3.618l-6.506-20.25c.025 1.376.042 2.756.055 4.14.012 1.381.017 2.773.017 4.174v11.936h-3.796V23.302h5.846l6.2 19.471 6.025-19.471h5.882v24.561zM438.088 47.863h-18.28V23.302h17.71v3.532h-13.685v6.63h12.812v3.567h-12.812v7.3h14.255zM446.584 34.37h6.362c.904 0 1.68-.074 2.332-.218.65-.145 1.184-.375 1.6-.688.414-.315.723-.722.92-1.223.2-.502.299-1.108.299-1.821 0-1.28-.383-2.237-1.148-2.87-.766-.635-1.955-.951-3.57-.951h-6.795v7.77zm16.718 13.493h-4.427l-2.223-6.267c-.448-1.243-1.053-2.18-1.817-2.807-.765-.628-1.792-.943-3.081-.943h-5.17v10.017H442.5V23.302h10.88c1.301 0 2.5.114 3.596.344 1.097.229 2.04.613 2.827 1.15a5.469 5.469 0 0 1 1.845 2.138c.44.887.66 1.988.66 3.304 0 1.727-.467 3.135-1.4 4.222-.936 1.085-2.257 1.793-3.967 2.119.891.35 1.647.914 2.267 1.693.62.779 1.16 1.79 1.618 3.035l2.476 6.556zM104.006 104.544h3.783v-85.65h-3.783zM142.457 27.5h-7.751v20.993h-4.074V27.501h-7.715v-3.57h19.54zM165.15 48.493h-4.041V37.3h-11.441v11.194h-4.059V23.932h4.059v9.834h11.44v-9.834h4.042zM175.21 38.44h7.399l-3.628-10.162h-.34l-3.43 10.162zm15.153 10.053h-4.217l-2.483-6.792h-9.56l-2.34 6.792h-4.092l8.934-24.561h4.431l9.327 24.561zM193.515 48.493h3.782V23.932h-3.782zM144.889 96.674h-2.026v-10.25c-1.801-.357-3.782-.58-5.313-.58-3.602 0-6.304 1.292-6.304 5.17 0 2.63 1.891 4.1 4.233 4.1 1.035 0 2.296-.268 3.287-.757v1.872c-1.081.535-2.297.757-3.468.757-3.151 0-6.078-2.05-6.078-5.927 0-5.392 3.962-7.085 8.285-7.085 1.756 0 3.647.266 5.358.623v-3.565c0-3.833-2.386-5.08-5.494-5.08-2.16 0-4.907.712-6.798 1.47l-.315-1.872c1.98-.846 4.682-1.47 7.113-1.47 2.117 0 4.098.49 5.494 1.693.135-.356.18-.49.27-.847l.45-1.871h2.026l-.495 2.094c-.225 1.025-.495 1.604-1.08 2.05.54.981.855 2.228.855 3.744v15.731zM151.693 96.673h-1.672V74.314h1.98v16.188c2.506 2.773 5.1 4.606 7.871 4.606 2.33 0 3.298-1.342 3.298-4.025V74.314h1.98v16.859c0 4.158-2.287 5.813-5.146 5.813-2.99 0-5.76-1.834-8.004-4.471l-.307 4.158zM179.648 96.986h-2.026v-15.92c0-3.487-2.072-4.874-4.863-4.874-1.17 0-2.522.268-3.827.715v-1.789c1.395-.537 2.747-.804 4.007-.804 4.097 0 6.709 2.325 6.709 6.663v16.01zM185.68 88.758c-1.35-1.386-2.25-3.086-2.25-5.545v-1.476c0-5.097 4.097-7.423 8.194-7.423s8.195 2.326 8.195 7.423v15.25h-2.026v-15.25c0-3.845-3.107-5.544-6.169-5.544-3.107 0-6.168 1.7-6.168 5.544v1.342c0 1.833.36 2.906 1.08 3.8.766-.983 1.891-1.43 3.603-1.43h2.79v1.879h-2.476c-1.845 0-2.476.49-2.882 2.325l-1.62 7.333h-2.071l1.8-8.228zM206.532 96.673h-1.67V74.314h1.978v16.188c2.507 2.773 5.102 4.606 7.872 4.606 2.332 0 3.299-1.342 3.299-4.025V74.314h1.978v16.859c0 4.158-2.286 5.813-5.145 5.813-2.99 0-5.76-1.834-8.004-4.471l-.308 4.158zM229.13 92.978c0 1.067.36 1.511 1.575 1.511h1.08v1.867h-1.08c-2.476 0-3.602-1.288-3.602-3.245V76.352c0-4.09-2.701-7.068-2.701-10.58v-1.29c0-4.312 2.791-5.912 6.574-5.912h4.772v1.867h-4.772c-2.747 0-4.548 1.156-4.548 4.134v1.201c0 3.244 2.701 6.179 2.701 10.58v16.626zM235.748 74.275h2.02v16.394c0 3.226 2.65 4.436 5.613 4.436 2.2 0 4.58-.672 6.105-1.703V64.867h2.02v29.656c-2.02 1.477-5.118 2.463-8.125 2.463-3.907 0-7.633-1.702-7.633-6.271v-16.44zM268.432 77.034c-1.355-.362-3.523-.815-5.692-.815-2.8 0-5.419.815-5.419 3.49 0 5.35 12.466 3.898 12.466 11.379 0 4.85-3.207 6.528-7.317 6.528-2.078 0-4.653-.5-6.549-1.043l.27-1.95c1.942.59 4.246 1.089 6.37 1.089 2.89 0 5.193-1.043 5.193-4.624 0-5.758-12.465-4.171-12.465-11.38 0-4.08 3.658-5.394 7.362-5.394 2.212 0 4.336.453 6.052.953l-.27 1.767zM283.53 93.54c0 1.088.357 1.542 1.57 1.542h1.075v1.904H285.1c-2.467 0-3.588-1.314-3.588-3.31V74.314h2.018V93.54zm-7.313 0c0 1.088.36 1.542 1.571 1.542h1.076v1.904h-1.076c-2.467 0-3.59-1.314-3.59-3.31V74.314h2.02V93.54zM305.086 96.986h-2.02V81.782c0-4.249-2.336-5.59-5.702-5.59-2.201 0-4.58.67-6.466 1.476l.718 4.159v15.16h-2.02v-15.16l-.9-5.144c2.875-1.296 5.614-2.369 8.668-2.369 4.444 0 7.722 1.878 7.722 7.468v15.204zM322.011 77.034c-1.355-.362-3.523-.815-5.692-.815-2.8 0-5.419.815-5.419 3.49 0 5.35 12.466 3.898 12.466 11.379 0 4.85-3.207 6.528-7.317 6.528-2.078 0-4.653-.5-6.549-1.043l.27-1.95c1.942.59 4.246 1.089 6.37 1.089 2.89 0 5.193-1.043 5.193-4.624 0-5.758-12.465-4.171-12.465-11.38 0-4.08 3.658-5.394 7.362-5.394 2.212 0 4.336.453 6.052.953l-.27 1.767zM328.819 96.673h-1.671V74.314h1.979v16.188c2.506 2.773 5.101 4.606 7.87 4.606 2.333 0 3.3-1.342 3.3-4.025V74.314h1.979v16.859c0 4.158-2.287 5.813-5.147 5.813-2.99 0-5.76-1.834-8.002-4.471l-.308 4.158zM349.858 93.54c0 1.088.339 1.542 1.484 1.542h1.02v1.904h-1.02c-2.333 0-3.393-1.314-3.393-3.31V74.314h1.91V93.54zM357.814 96.673h-1.67V74.314h1.978v16.188c2.507 2.773 5.102 4.606 7.871 4.606 2.332 0 3.3-1.342 3.3-4.025V74.314h1.979v16.859c0 4.158-2.288 5.813-5.147 5.813-2.99 0-5.76-1.834-8.003-4.471l-.308 4.158zM375.684 89.456c0-2.992 1.429-4.806 4.732-4.806h3.304v1.904h-3.214c-2.054 0-2.813 1.042-2.813 2.946v4.58c1.43.906 3.795 1.631 6.07 1.631 2.947 0 5.67-1.088 5.67-4.488v-9.61c0-4.08-2.544-5.394-5.58-5.394-2.365 0-4.954.815-7.008 1.722l-.357-1.722c2.053-.999 4.82-1.905 7.366-1.905 4.017 0 7.589 1.905 7.589 7.208v9.747c0 4.624-3.662 6.347-7.68 6.347-2.9 0-5.936-.952-8.079-2.448v-5.712zM408.997 77.034c-1.355-.362-3.522-.815-5.69-.815-2.8 0-5.42.815-5.42 3.49 0 5.35 12.466 3.898 12.466 11.379 0 4.85-3.207 6.528-7.318 6.528-2.076 0-4.65-.5-6.548-1.043l.272-1.95c1.941.59 4.244 1.089 6.367 1.089 2.89 0 5.195-1.043 5.195-4.624 0-5.758-12.466-4.171-12.466-11.38 0-4.08 3.657-5.394 7.362-5.394 2.213 0 4.336.453 6.052.953l-.272 1.767zM402.83 71.165h-1.625c-.219-.944-.307-1.748-.307-2.456 0-2.266.878-3.212 3.03-3.212h7.686l-.308 1.984h-7.247c-.922 0-1.23.378-1.23 1.323v2.361z" fill="#FFF" mask="url(#f)"/><path d="M415.623 74.929c0-5.69 3.47-8.002 3.47-11.469v-1.155c0-1.29-.44-1.868-1.8-1.868h-6.94V58.57h6.94c2.459 0 3.776 1.289 3.776 3.645v1.245c0 3.912-3.47 6.401-3.47 11.514v18.004c0 1.067.351 1.511 1.538 1.511h1.054v1.867h-1.054c-2.415 0-3.514-1.288-3.514-3.245V74.93zM426.83 80.888c1.494-3.13 4.22-6.574 7.96-6.574 2.682 0 5.189 1.43 5.189 5.545v17.127h-1.98V79.86c0-2.773-1.494-3.667-3.298-3.667-3.078 0-6.069 3.533-7.871 7.468v13.326h-1.98V74.627h1.98v6.26zM460.78 90.77c0 4.695-3.57 6.216-7.723 6.216-2.946 0-5.937-.895-8.035-1.834v-5.276c0-2.37.223-4.204 2.812-5.367-1.473-.626-2.812-2.235-2.812-4.47v-1.03c0-2.816 1.473-4.695 4.465-4.695h3.347v1.879h-3.124c-1.92 0-2.68.85-2.68 2.682v1.252c0 2.37 1.384 3.489 3.662 3.489h2.812v1.877h-2.812c-2.814 0-3.661 1.386-3.661 4.114v4.338c1.428.582 3.794 1.162 6.026 1.162 2.992 0 5.714-1.073 5.714-4.56V74.314h2.01V90.77z" fill="#FFF" mask="url(#f)"/></g></g></svg>