<?xml version="1.0" encoding="UTF-8"?>
<svg width="500px" height="300px" viewBox="0 0 500 300" version="1.1" xmlns="http://www.w3.org/2000/svg" xmlns:xlink="http://www.w3.org/1999/xlink">
    <!-- Generator: Sketch 43.1 (39012) - http://www.bohemiancoding.com/sketch -->
    <title>Rectangle</title>
    <desc>Created with Sketch.</desc>
    <defs>
        <polygon id="path-1" points="1.0795109e-15 90.3488962 1.0795109e-15 0.329375041 40.8104457 0.329375041 40.8104457 90.3488962 0 90.3488962"></polygon>
        <polygon id="path-3" points="0.059927296 0.329375041 40.8691361 0.329375041 40.8691361 90.3488962 0.059927296 90.3488962 0.059927296 0.329375041"></polygon>
        <polygon id="path-5" points="0 122.177357 463.301648 122.177357 463.301648 0.629780193 0 0.629780193"></polygon>
    </defs>
    <g id="Page-1" stroke="none" stroke-width="1" fill="none" fill-rule="evenodd">
        <g id="Group-15">
            <rect id="Rectangle" fill-opacity="0" fill="#D8D8D8" x="0" y="0" width="500" height="300"></rect>
            <g id="Group-4" transform="translate(18.000000, 88.000000)">
                <g id="Page-1">
                    <path d="M56.5213947,98.7598318 L56.5213947,97.0458534 C56.5213947,96.4779305 55.8129258,96.0178492 54.9380932,96.0178492 L27.5266719,96.0178492 C26.6524719,96.0178492 25.9433704,96.4779305 25.9433704,97.0458534 L25.9433704,98.7598318 C25.9433704,99.3283928 26.6524719,99.787836 27.5266719,99.787836 L54.9380932,99.787836 C55.8129258,99.787836 56.5213947,99.3283928 56.5213947,98.7598318 Z M45.3465628,105.649566 L45.3465628,103.936864 C45.3465628,103.367664 44.8968115,102.907583 44.342055,102.907583 L26.9472456,102.907583 C26.3937542,102.907583 25.9433704,103.367664 25.9433704,103.936864 L25.9433704,105.649566 C25.9433704,106.218127 26.3937542,106.678846 26.9472456,106.678846 L44.342055,106.678846 C44.8968115,106.678846 45.3465628,106.218127 45.3465628,105.649566 Z M61.7735531,96.2609712 C61.7735531,97.1224273 61.1435218,97.8473266 60.2882986,98.0553522 C61.1435218,98.264016 61.7735531,98.9876391 61.7735531,99.8503714 L61.7735531,102.938851 C61.7735531,103.799669 61.1435218,104.52393 60.2882986,104.731956 C61.1435218,104.941896 61.7735531,105.665519 61.7735531,106.526975 L61.7735531,109.615454 C61.7735531,110.63963 60.8829065,111.471094 59.782882,111.471094 L25.312074,111.471094 C24.2133146,111.471094 23.322668,110.63963 23.322668,109.615454 L23.322668,106.526975 C23.322668,105.665519 23.9533318,104.941896 24.8072899,104.731956 C23.9533318,104.52393 23.322668,103.799669 23.322668,102.938851 L23.322668,99.8503714 C23.322668,98.9876391 23.9526993,98.264016 24.8072899,98.0553522 C23.9526993,97.8473266 23.322668,97.1224273 23.322668,96.2609712 L23.322668,93.1724918 C23.322668,92.1483163 24.2133146,91.318128 25.312074,91.318128 L59.782882,91.318128 C60.8829065,91.318128 61.7735531,92.1483163 61.7735531,93.1724918 L61.7735531,96.2609712 Z" id="Fill-1" fill="#FFFFFF"></path>
                    <path d="M42.5481105,122.177357 C51.4255919,122.177357 58.6218412,117.665852 58.6218412,112.100874 L26.4743799,112.100874 C26.4743799,117.665852 33.6712551,122.177357 42.5481105,122.177357" id="Fill-3" fill="#FFFFFF"></path>
                    <g id="Group-7">
                        <mask id="mask-2" fill="white">
                            <use xlink:href="#path-1"></use>
                        </mask>
                        <g id="Clip-6"></g>
                        <path d="M38.6332431,90.3488962 L26.080605,90.3488962 C25.1111384,90.3488962 24.2576549,89.7065205 23.989129,88.7757053 C23.1419488,85.8421892 23.2749511,82.9848765 23.4035409,80.2207712 C23.5655389,76.7298996 23.7048446,73.7164014 21.8812641,71.1172985 C18.1193808,65.7553499 11.2631467,53.0703173 10.5609453,51.7660425 C9.88963068,51.0909181 7.03544039,49.0869576 5.12361196,47.7442662 C3.51371752,46.6138108 1.99396205,45.5469631 0.87132227,44.6898323 C0.34939878,44.292441 0.0317062216,43.6859626 0.00208012985,43.0265828 C-0.0458258909,41.9471395 0.653854149,41.2556409 1.11652546,40.7965311 C1.44493383,40.4734539 1.87734871,40.0785817 2.37721021,39.6207315 C3.25023441,38.8240596 4.33568398,37.8321557 5.22950947,36.8780388 C6.3767326,35.6512269 6.63328195,35.0919821 6.68118797,34.9672856 C7.23841064,27.3696174 9.24100837,20.8142354 12.6335111,15.483146 C15.3868466,11.1565561 19.0434627,7.63923374 23.5018743,5.02879484 C31.0527457,0.608367666 38.2632322,0.339451524 38.5664268,0.330004821 C39.7672291,0.29536691 40.7719948,1.2368883 40.8085547,2.43787913 C40.8457449,3.63635083 39.903383,4.63833112 38.7038415,4.67800727 C38.6092901,4.68178595 32.1381953,4.95951902 25.546705,8.8742327 C16.7994438,14.0680299 11.9111387,22.9762708 11.0173132,35.3514516 C10.8584669,37.56198 8.53439457,39.8839796 5.48605882,42.6751654 C6.17061065,43.1632451 6.90495952,43.6790351 7.62670154,44.1853783 C12.8503488,47.8532182 13.9635335,48.7393189 14.3991001,49.7123293 C15.0559168,50.930954 21.8749607,63.5315961 25.4464806,68.62022 C28.1229143,72.4347987 27.9262475,76.6782576 27.752273,80.4210413 C27.662134,82.3632834 27.5757771,84.2217648 27.8361085,85.9983747 L38.6332431,85.9983747 C39.8346757,85.9983747 40.8104457,86.9726446 40.8104457,88.1730057 C40.8104457,89.3746263 39.8346757,90.3488962 38.6332431,90.3488962" id="Fill-5" fill="#FFFFFF" mask="url(#mask-2)"></path>
                    </g>
                    <g id="Group-10" transform="translate(44.123966, 0.000000)">
                        <mask id="mask-4" fill="white">
                            <use xlink:href="#path-3"></use>
                        </mask>
                        <g id="Clip-9"></g>
                        <path d="M14.7889038,90.3488962 L2.23626566,90.3488962 C1.03420274,90.3488962 0.0603237656,89.3746263 0.0603237656,88.1730057 C0.0603237656,86.9726446 1.03420274,85.9983747 2.23626566,85.9983747 L13.0327699,85.9983747 C13.2931013,84.2217648 13.2073748,82.3632834 13.1172358,80.4223008 C12.9432613,76.6782576 12.7472248,72.4347987 15.4236586,68.62022 C18.9958088,63.529077 25.8148527,50.9284349 26.4704087,49.7123293 C26.9059753,48.7393189 28.01916,47.8519586 33.2428073,44.1866379 C33.9645493,43.6790351 34.6988981,43.1632451 35.3840803,42.6751654 C32.3357446,39.8839796 30.0110419,37.56198 29.8521956,35.350192 C28.9533274,22.8994376 24.0127038,13.9609673 15.1677396,8.78228479 C8.56364245,4.91606419 2.23311394,4.67989661 2.17007971,4.67800727 C0.968647133,4.64085024 0.02439425,3.63824017 0.060954108,2.43787913 C0.097513966,1.23751808 1.10101903,0.29536691 2.30371229,0.330004821 C2.60690697,0.339451524 9.8167631,0.608367666 17.3682648,5.02879484 C21.8260461,7.63923374 25.4826622,11.1565561 28.2359977,15.483146 C31.6285004,20.8148652 33.6317285,27.3696174 34.1895815,34.9672856 C34.2362268,35.0919821 34.4927762,35.6512269 35.6406297,36.8780388 C36.5338248,37.8321557 37.6199047,38.8240596 38.4922986,39.6207315 C38.9927904,40.0785817 39.424575,40.4734539 39.752353,40.7965311 C40.2156546,41.2556409 40.9147043,41.9471395 40.8667983,43.0265828 C40.8371722,43.6859626 40.5207404,44.292441 39.9969258,44.6910918 C38.8755467,45.5469631 37.3557913,46.6150703 35.7452665,47.7442662 C33.8334381,49.0869576 30.9798781,51.0909181 30.3085635,51.7660425 C29.6063621,53.0703173 22.750128,65.7553499 18.9882447,71.1172985 C17.1640339,73.7164014 17.3046002,76.7298996 17.4659679,80.2207712 C17.5945577,82.9848765 17.72756,85.8421892 16.8803798,88.7757053 C16.6118539,89.7065205 15.7583704,90.3488962 14.7889038,90.3488962" id="Fill-8" fill="#FFFFFF" mask="url(#mask-4)"></path>
                    </g>
                    <path d="M56.1004717,28.3401087 L55.0033898,28.3401087 L55.0033898,22.8036952 L42.0510941,22.8036952 C41.7984097,22.8036952 41.5781045,22.631921 41.5190602,22.388417 L41.032738,20.3944524 L38.9192047,26.3448857 C38.8385743,26.5707719 38.6182691,26.7173776 38.3770127,26.7066811 C38.1357562,26.6959845 37.9300534,26.5298733 37.8703742,26.297695 L35.8342969,18.3199491 L34.5854774,22.4179899 C34.5150052,22.6470221 34.3023186,22.8036952 34.0604273,22.8036952 L28.8315116,22.8036952 L28.8315116,26.4612894 L27.7350647,26.4612894 L27.7350647,22.2606875 C27.7350647,21.9599254 27.9801304,21.7176798 28.2836056,21.7176798 L33.6528309,21.7176798 L35.3562282,16.1315588 C35.4273354,15.8974929 35.6489104,15.7401905 35.8933412,15.744595 C36.1396767,15.7508871 36.3523633,15.918886 36.4120425,16.1554687 L38.4874827,24.2861125 L40.6130788,18.3029604 C40.6937092,18.076445 40.9159191,17.9285808 41.1578104,17.9405358 C41.4003366,17.9524908 41.6054046,18.1217481 41.6625443,18.3551848 L42.4828161,21.7176798 L55.5519308,21.7176798 C55.8541362,21.7176798 56.1004717,21.9599254 56.1004717,22.2606875 L56.1004717,28.3401087 Z" id="Fill-11" fill="#FFFFFF"></path>
                    <path d="M34.6688308,86.2798864 L33.598235,86.2798864 L33.598235,67.4058952 L28.2712924,67.4058952 C27.9749723,67.4058952 27.7350647,67.1616271 27.7350647,66.859623 L27.7350647,54.7908768 L28.8056605,54.7908768 L28.8056605,66.3101784 L34.1338429,66.3101784 C34.429543,66.3101784 34.6688308,66.5557154 34.6688308,66.859623 L34.6688308,86.2798864 Z" id="Fill-13" fill="#FFFFFF"></path>
                    <mask id="mask-6" fill="white">
                        <use xlink:href="#path-5"></use>
                    </mask>
                    <g id="Clip-16"></g>
                    <polygon id="Fill-15" fill="#FFFFFF" mask="url(#mask-6)" points="25.2136951 55.420657 31.5171189 55.420657 31.5171189 25.1912077 25.2136951 25.1912077"></polygon>
                    <path d="M48.9920621,86.2798864 L47.9060208,86.2798864 L47.9060208,67.1349438 C47.9060208,66.8353448 48.1493896,66.5932888 48.448727,66.5932888 L55.6460305,66.5932888 L55.6460305,50.3824154 L56.7308141,50.3824154 L56.7308141,67.1349438 C56.7308141,67.4326665 56.4880741,67.6734716 56.1881078,67.6734716 L48.9920621,67.6734716 L48.9920621,86.2798864 Z" id="Fill-17" fill="#FFFFFF" mask="url(#mask-6)"></path>
                    <path d="M50.7425615,50.2344432 C45.3689096,50.2344432 41.0134366,45.788936 41.0134366,40.3072007 C41.0134366,34.8222945 45.3689096,30.3780556 50.7425615,30.3780556 C56.1162134,30.3780556 60.4723203,34.8222945 60.4723203,40.3072007 C60.4723203,45.788936 56.1162134,50.2344432 50.7425615,50.2344432 M50.7425615,25.1912077 C42.5622605,25.1912077 35.9295156,31.9590327 35.9295156,40.3072007 C35.9295156,48.6541003 42.5622605,55.420657 50.7425615,55.420657 C58.9241304,55.420657 65.5556074,48.6541003 65.5556074,40.3072007 C65.5556074,31.9590327 58.9241304,25.1912077 50.7425615,25.1912077" id="Fill-18" fill="#FFFFFF" mask="url(#mask-6)"></path>
                    <path d="M218.429924,34.9482162 L223.707581,34.9482162 C224.677912,34.9482162 225.501127,34.8577264 226.173387,34.6761227 C226.846926,34.4945191 227.393177,34.2267941 227.811501,33.8704515 C228.231104,33.514733 228.533653,33.0772616 228.721067,32.5580374 C228.9104,32.0388132 229.003787,31.4415805 229.003787,30.7650913 C229.003787,30.0031047 228.889292,29.3671799 228.657743,28.8523241 C228.426833,28.3405887 228.088464,27.9299523 227.638798,27.6216629 C227.189772,27.3146216 226.634566,27.0937017 225.97318,26.9607753 C225.312433,26.8278489 224.544867,26.7610737 223.671121,26.7610737 L218.429924,26.7610737 L218.429924,34.9482162 Z M214.316409,23.3018671 L223.671121,23.3018671 C224.677912,23.3018671 225.606667,23.3443037 226.455467,23.4285529 C227.304907,23.512802 228.07823,23.670067 228.776076,23.8990998 C229.473921,24.1293807 230.09565,24.4426627 230.641901,24.8414418 C231.186873,25.239597 231.661485,25.7532046 232.061259,26.3816406 C232.836501,27.6010687 233.22668,29.0120854 233.22668,30.6196835 C233.22668,31.8996461 233.020077,33.0260881 232.60687,33.9977613 C232.194943,34.9688104 231.584728,35.7844668 230.777504,36.442858 C229.97156,37.1006253 228.976282,37.5992553 227.794231,37.938124 C226.61026,38.2757445 225.24847,38.4454909 223.707581,38.4454909 L218.429924,38.4454909 L218.429924,47.8632947 L214.316409,47.8632947 L214.316409,23.3018671 Z" id="Fill-19" fill="#FFFFFF" mask="url(#mask-6)"></path>
                    <path d="M241.093535,34.3690815 L247.455434,34.3690815 C248.35865,34.3690815 249.134833,34.2960656 249.786521,34.151906 C250.436303,34.0071223 250.969849,33.7768414 251.385252,33.4635594 C251.801291,33.1490294 252.108715,32.7421373 252.306889,32.2410111 C252.506969,31.7386367 252.604786,31.1326671 252.604786,30.4199819 C252.604786,29.1400193 252.222411,28.1833237 251.458297,27.549271 C250.692913,26.9145943 249.501963,26.5988161 247.887987,26.5988161 L241.093535,26.5988161 L241.093535,34.3690815 Z M257.810033,47.8632947 L253.382873,47.8632947 L251.159766,41.595784 C250.713874,40.3526414 250.107283,39.41654 249.343169,38.7887281 C248.577785,38.1609161 247.55071,37.846386 246.261943,37.846386 L241.093535,37.846386 L241.093535,47.8632947 L237.008734,47.8632947 L237.008734,23.3018671 L247.887987,23.3018671 C249.189457,23.3018671 250.38803,23.4160715 251.484339,23.6463524 C252.581284,23.8747612 253.523882,24.2585627 254.312767,24.7958849 C255.102288,25.3332071 255.717136,26.0452682 256.156676,26.9339404 C256.595581,27.8213645 256.816621,28.9215956 256.816621,30.2383782 C256.816621,31.9651732 256.349134,33.3730697 255.414793,34.4595713 C254.481723,35.5454489 253.159292,36.2525174 251.44877,36.5789048 C252.340553,36.9290067 253.095775,37.4931638 253.71761,38.2720001 C254.338174,39.0508364 254.876166,40.06245 255.334126,41.3068407 L257.810033,47.8632947 Z" id="Fill-20" fill="#FFFFFF" mask="url(#mask-6)"></path>
                    <path d="M271.956424,45.601869 C273.095055,45.601869 274.12759,45.3808945 275.055924,44.9383107 C275.98489,44.4969969 276.77808,43.8645528 277.438018,43.0397087 C278.095431,42.2174044 278.604436,41.2287344 278.963771,40.0730636 C279.323737,38.9186627 279.502457,37.6283753 279.502457,36.2022013 C279.502457,34.8020617 279.326263,33.5270139 278.973244,32.3789629 C278.619592,31.2302769 278.12006,30.2409719 277.473383,29.4110479 C276.826075,28.5823938 276.041727,27.940425 275.119076,27.4851415 C274.197689,27.031128 273.166416,26.8038037 272.027786,26.8038037 C270.89105,26.8038037 269.853462,27.028588 268.919444,27.4762517 C267.986057,27.9251854 267.18529,28.5601693 266.522194,29.3837435 C265.85594,30.2060478 265.343777,31.1966228 264.985074,32.3503886 C264.62637,33.5060594 264.444493,34.789997 264.444493,36.2022013 C264.444493,37.6283753 264.628896,38.9186627 264.993915,40.0730636 C265.358934,41.2287344 265.871728,42.2174044 266.530403,43.0397087 C267.189079,43.8645528 267.979742,44.4969969 268.902393,44.9383107 C269.825044,45.3808945 270.842423,45.601869 271.956424,45.601869 M271.992421,23.3018671 C273.717733,23.3018671 275.295271,23.6117393 276.727558,24.2333886 C278.159214,24.853133 279.386889,25.7249659 280.410583,26.8488876 C281.43554,27.9734442 282.231256,29.3316749 282.800887,30.9229447 C283.369255,32.5142145 283.65407,34.273755 283.65407,36.2022013 C283.65407,38.1319176 283.378096,39.8882833 282.828042,41.4744732 C282.276725,43.0593932 281.492377,44.4188938 280.473104,45.5561501 C279.454462,46.6934064 278.227418,47.5715892 276.790079,48.1913336 C275.352107,48.8117129 273.752467,49.122855 271.992421,49.122855 C270.232374,49.122855 268.635891,48.8155228 267.204235,48.2014933 C265.773211,47.5861939 264.54743,46.7143609 263.52942,45.5834544 C262.510778,44.453183 261.723904,43.0930473 261.166272,41.5017775 C260.60864,39.9092377 260.331402,38.1446173 260.331402,36.2022013 C260.331402,34.273755 260.614955,32.5142145 261.184586,30.9229447 C261.753586,29.3316749 262.552458,27.9734442 263.582468,26.8488876 C264.61374,25.7249659 265.840783,24.853133 267.265493,24.2333886 C268.692728,23.6117393 270.267739,23.3018671 271.992421,23.3018671" id="Fill-21" fill="#FFFFFF" mask="url(#mask-6)"></path>
                    <path d="M298.349119,49.122855 C296.590645,49.122855 295.001898,48.8212377 293.58351,48.2199078 C292.165121,47.6173081 290.953686,46.7575398 289.948573,45.639333 C288.94283,44.5204913 288.167385,43.1635305 287.62287,41.5665459 C287.078355,39.9689262 286.805782,38.1808114 286.805782,36.2022013 C286.805782,34.273755 287.078355,32.5142145 287.62287,30.9229447 C288.167385,29.3316749 288.945353,27.9734442 289.956776,26.8488876 C290.967567,25.7249659 292.19099,24.853133 293.628307,24.2333886 C295.063732,23.6117393 296.6733,23.3018671 298.457643,23.3018671 C299.989604,23.3018671 301.380861,23.4828376 302.631416,23.8447784 C303.882601,24.2086242 304.964059,24.7394708 305.881469,25.4385882 C306.795724,26.1408804 307.526371,27.0000137 308.069624,28.019798 C308.615401,29.0389473 308.953593,30.2060478 309.085463,31.5217345 L305.010119,31.5217345 C304.80632,30.0346021 304.146341,28.8763914 303.025763,28.0483723 C301.907079,27.2184482 300.395939,26.8044387 298.492977,26.8044387 C297.355994,26.8044387 296.32312,27.0152534 295.396246,27.4394226 C294.468741,27.8635919 293.672474,28.4744465 293.00934,29.2732563 C292.343681,30.0707962 291.828821,31.0543864 291.464129,32.2214869 C291.099436,33.3898574 290.91709,34.7169739 290.91709,36.2022013 C290.91709,37.7020335 291.103222,39.0348648 291.473593,40.2019653 C291.843333,41.3703358 292.365134,42.352656 293.035209,43.1514658 C293.705915,43.9502757 294.514169,44.5579553 295.459341,44.9757748 C296.404513,45.3935942 297.4519,45.601869 298.600239,45.601869 C300.169426,45.601869 301.532291,45.3561302 302.693249,44.8652876 C303.854208,44.373175 304.81263,43.6124642 305.565991,42.5793453 L305.565991,39.1517019 L299.641947,39.1517019 L299.641947,35.7970816 L309.498108,35.7970816 L309.498108,48.6986858 L306.803927,48.6986858 L306.068232,46.3213058 C305.206977,47.2426675 304.136245,47.9398799 302.856036,48.413578 C301.575196,48.886006 300.071628,49.122855 298.349119,49.122855" id="Fill-22" fill="#FFFFFF" mask="url(#mask-6)"></path>
                    <path d="M318.625137,34.3690815 L324.98723,34.3690815 C325.89111,34.3690815 326.667951,34.2960656 327.319023,34.151906 C327.969461,34.0071223 328.501753,33.7768414 328.918439,33.4635594 C329.333855,33.1490294 329.640654,32.7421373 329.838834,32.2410111 C330.037649,31.7386367 330.136739,31.1326671 330.136739,30.4199819 C330.136739,29.1400193 329.754988,28.1833237 328.990216,27.549271 C328.224808,26.9145943 327.035092,26.5988161 325.419796,26.5988161 L318.625137,26.5988161 L318.625137,34.3690815 Z M335.342145,47.8632947 L330.914851,47.8632947 L328.692946,41.595784 C328.246405,40.3526414 327.640431,39.41654 326.876294,38.7887281 C326.110886,38.1609161 325.083779,37.846386 323.794973,37.846386 L318.625137,37.846386 L318.625137,47.8632947 L314.540847,47.8632947 L314.540847,23.3018671 L325.419796,23.3018671 C326.722577,23.3018671 327.921186,23.4160715 329.017529,23.6463524 C330.113237,23.8747612 331.055863,24.2585627 331.846043,24.7958849 C332.635588,25.3332071 333.249185,26.0452682 333.688738,26.9339404 C334.128927,27.8213645 334.348704,28.9215956 334.348704,30.2383782 C334.348704,31.9651732 333.882472,33.3730697 332.948103,34.4595713 C332.013734,35.5454489 330.691263,36.2525174 328.980688,36.5789048 C329.872499,36.9290067 330.629014,37.4931638 331.249597,38.2720001 C331.869546,39.0508364 332.408189,40.06245 332.867434,41.3068407 L335.342145,47.8632947 Z" id="Fill-23" fill="#FFFFFF" mask="url(#mask-6)"></path>
                    <path d="M343.513361,37.8101901 L350.909169,37.8101901 L347.283797,27.6484978 L346.944056,27.6484978 L343.513361,37.8101901 Z M358.664813,47.8632947 L354.447878,47.8632947 L351.965444,41.0709432 L342.405591,41.0709432 L340.064454,47.8632947 L335.972488,47.8632947 L344.906865,23.3018671 L349.337944,23.3018671 L358.664813,47.8632947 Z" id="Fill-24" fill="#FFFFFF" mask="url(#mask-6)"></path>
                    <path d="M385.769536,47.8632947 L382.008909,47.8632947 L382.008909,35.9267542 C382.008909,34.5263465 382.01392,33.1340518 382.025821,31.7523662 C382.037095,30.3688083 382.043359,28.9889949 382.043359,27.6129259 L375.663322,47.8632947 L372.046131,47.8632947 L365.54145,27.6129259 C365.564625,28.9889949 365.584042,30.3688083 365.595316,31.7523662 C365.60659,33.1340518 365.612227,34.5263465 365.612227,35.9267542 L365.612227,47.8632947 L361.816525,47.8632947 L361.816525,23.3018671 L367.661656,23.3018671 L373.863808,42.7733995 L379.88745,23.3018671 L385.769536,23.3018671 L385.769536,47.8632947 Z" id="Fill-25" fill="#FFFFFF" mask="url(#mask-6)"></path>
                    <path d="M414.765285,47.8632947 L411.004462,47.8632947 L411.004462,35.9267542 C411.004462,34.5263465 411.011979,33.1340518 411.022627,31.7523662 C411.033902,30.3688083 411.041419,28.9889949 411.041419,27.6129259 L404.659796,47.8632947 L401.042415,47.8632947 L394.536141,27.6129259 C394.56057,28.9889949 394.578109,30.3688083 394.591263,31.7523662 C394.602538,33.1340518 394.608175,34.5263465 394.608175,35.9267542 L394.608175,47.8632947 L390.812275,47.8632947 L390.812275,23.3018671 L396.657711,23.3018671 L402.858935,42.7733995 L408.882892,23.3018671 L414.765285,23.3018671 L414.765285,47.8632947 Z" id="Fill-26" fill="#FFFFFF" mask="url(#mask-6)"></path>
                    <polygon id="Fill-27" fill="#FFFFFF" mask="url(#mask-6)" points="438.087953 47.8632947 419.808024 47.8632947 419.808024 23.3018671 437.518095 23.3018671 437.518095 26.8340896 423.832727 26.8340896 423.832727 33.4635594 436.644521 33.4635594 436.644521 37.0313538 423.832727 37.0313538 423.832727 44.3310722 438.087953 44.3310722"></polygon>
                    <path d="M446.584391,34.3690815 L452.946095,34.3690815 C453.849919,34.3690815 454.626713,34.2960656 455.278381,34.151906 C455.928144,34.0071223 456.461673,33.7768414 456.877064,33.4635594 C457.292455,33.1490294 457.600505,32.7421373 457.798673,32.2410111 C457.997476,31.7386367 458.09656,31.1326671 458.09656,30.4199819 C458.09656,29.1400193 457.714197,28.1833237 456.948836,27.549271 C456.183476,26.9145943 454.993832,26.5988161 453.379905,26.5988161 L446.584391,26.5988161 L446.584391,34.3690815 Z M463.301648,47.8632947 L458.874624,47.8632947 L456.651584,41.595784 C456.204436,40.3526414 455.599134,39.41654 454.835043,38.7887281 C454.069683,38.1609161 453.042638,37.846386 451.753911,37.846386 L446.584391,37.846386 L446.584391,47.8632947 L442.50035,47.8632947 L442.50035,23.3018671 L453.379905,23.3018671 C454.681336,23.3018671 455.879872,23.4160715 456.976148,23.6463524 C458.073059,23.8747612 459.015628,24.2585627 459.803219,24.7958849 C460.593986,25.3332071 461.207545,26.0452682 461.648342,26.9339404 C462.087233,27.8213645 462.308267,28.9215956 462.308267,30.2383782 C462.308267,31.9651732 461.841429,33.3730697 460.907752,34.4595713 C459.97217,35.5454489 458.651049,36.2525174 456.940579,36.5789048 C457.832336,36.9290067 458.587534,37.4931638 459.20808,38.2720001 C459.828625,39.0508364 460.367871,40.06245 460.825817,41.3068407 L463.301648,47.8632947 Z" id="Fill-28" fill="#FFFFFF" mask="url(#mask-6)"></path>
                    <polygon id="Fill-29" fill="#FFFFFF" mask="url(#mask-6)" points="104.006492 104.543512 107.788547 104.543512 107.788547 18.8934058 104.006492 18.8934058"></polygon>
                    <polygon id="Fill-30" fill="#FFFFFF" mask="url(#mask-6)" points="142.457378 27.5005991 134.705671 27.5005991 134.705671 48.4930749 130.631554 48.4930749 130.631554 27.5005991 122.916764 27.5005991 122.916764 23.9316473 142.457378 23.9316473"></polygon>
                    <polygon id="Fill-31" fill="#FFFFFF" mask="url(#mask-6)" points="165.149703 48.4930749 161.108515 48.4930749 161.108515 37.2991748 149.667952 37.2991748 149.667952 48.4930749 145.609089 48.4930749 145.609089 23.9316473 149.667952 23.9316473 149.667952 33.7663282 161.108515 33.7663282 161.108515 23.9316473 165.149703 23.9316473"></polygon>
                    <path d="M175.210898,38.4399703 L182.608795,38.4399703 L178.981439,28.278278 L178.641689,28.278278 L175.210898,38.4399703 Z M190.363398,48.4930749 L186.146346,48.4930749 L183.662587,41.7007234 L174.103098,41.7007234 L171.762524,48.4930749 L167.671073,48.4930749 L176.605069,23.9316473 L181.036271,23.9316473 L190.363398,48.4930749 Z" id="Fill-32" fill="#FFFFFF" mask="url(#mask-6)"></path>
                    <polygon id="Fill-33" fill="#FFFFFF" mask="url(#mask-6)" points="193.51511 48.4930749 197.297164 48.4930749 197.297164 23.9316473 193.51511 23.9316473"></polygon>
                    <path d="M144.888796,96.6741694 L142.862732,96.6741694 L142.862732,86.4245507 C141.061997,86.0668384 139.080872,85.8444427 137.549773,85.8444427 C133.94767,85.8444427 131.246252,87.1362167 131.246252,91.0140444 C131.246252,93.6433244 133.137498,95.1142678 135.47877,95.1142678 C136.514271,95.1142678 137.775102,94.8461401 138.765664,94.3568697 L138.765664,96.2287517 C137.68459,96.7637541 136.469332,96.9861497 135.29838,96.9861497 C132.146935,96.9861497 129.220188,94.9357248 129.220188,91.05915 C129.220188,85.6671527 133.182437,83.9738137 137.504833,83.9738137 C139.260629,83.9738137 141.151875,84.240062 142.862732,84.5965214 L142.862732,81.031927 C142.862732,77.1985784 140.476521,75.95191 137.369383,75.95191 C135.208501,75.95191 132.46151,76.6642024 130.570897,77.4228534 L130.255689,75.550345 C132.236814,74.7039887 134.938233,74.0800281 137.369383,74.0800281 C139.485958,74.0800281 141.467083,74.5705513 142.862732,75.773367 C142.997549,75.4169076 143.042489,75.2828438 143.133,74.9263843 L143.583025,73.0545024 L145.609089,73.0545024 L145.114125,75.1494064 C144.888796,76.1743056 144.618527,76.7531607 144.033051,77.1985784 C144.573588,78.1802514 144.888796,79.4269198 144.888796,80.9429687 L144.888796,96.6741694 Z" id="Fill-34" fill="#FFFFFF" mask="url(#mask-6)"></path>
                    <path d="M151.692508,96.6730931 L150.021486,96.6730931 L150.021486,74.3140628 L152.000376,74.3140628 L152.000376,90.5024835 C154.507218,93.2747317 157.101845,95.1078101 159.872044,95.1078101 C162.202696,95.1078101 163.170195,93.76569 163.170195,91.0827069 L163.170195,74.3140628 L165.149703,74.3140628 L165.149703,91.1726007 C165.149703,95.3309729 162.862944,96.9861497 160.004341,96.9861497 C157.013441,96.9861497 154.243242,95.151814 152.000376,92.5147208 L151.692508,96.6730931 Z" id="Fill-35" fill="#FFFFFF" mask="url(#mask-6)"></path>
                    <path d="M179.647578,96.9861497 L177.621629,96.9861497 L177.621629,81.0667816 C177.621629,77.5785265 175.55011,76.1924024 172.758972,76.1924024 C171.588086,76.1924024 170.237453,76.4601978 168.931757,76.9071521 L168.931757,75.1180776 C170.327327,74.5812295 171.678592,74.3140628 172.938719,74.3140628 C177.036186,74.3140628 179.647578,76.6393567 179.647578,80.9768878 L179.647578,96.9861497 Z" id="Fill-36" fill="#FFFFFF" mask="url(#mask-6)"></path>
                    <path d="M185.680938,88.7576411 C184.330281,87.3715555 183.429632,85.6724219 183.429632,83.2132985 L183.429632,81.7373215 C183.429632,76.6399208 187.527174,74.3140628 191.624083,74.3140628 C195.720992,74.3140628 199.818534,76.6399208 199.818534,81.7373215 L199.818534,96.9861497 L197.792548,96.9861497 L197.792548,81.7373215 C197.792548,77.8921125 194.686163,76.1929789 191.624083,76.1929789 C188.517065,76.1929789 185.456251,77.8921125 185.456251,81.7373215 L185.456251,83.0794045 C185.456251,84.9124321 185.816384,85.9854698 186.53665,86.8793536 C187.301854,85.8955785 188.42719,85.4486366 190.138613,85.4486366 L192.929803,85.4486366 L192.929803,87.3275528 L190.453176,87.3275528 C188.607573,87.3275528 187.977182,87.8184974 187.571479,89.6527822 L185.951196,96.9861497 L183.87964,96.9861497 L185.680938,88.7576411 Z" id="Fill-37" fill="#FFFFFF" mask="url(#mask-6)"></path>
                    <path d="M206.532363,96.6730931 L204.861273,96.6730931 L204.861273,74.3140628 L206.840244,74.3140628 L206.840244,90.5024835 C209.347188,93.2747317 211.941922,95.1078101 214.712234,95.1078101 C217.043599,95.1078101 218.010519,93.76569 218.010519,91.0827069 L218.010519,74.3140628 L219.98949,74.3140628 L219.98949,91.1726007 C219.98949,95.3309729 217.702638,96.9861497 214.843918,96.9861497 C211.853514,96.9861497 209.083202,95.151814 206.840244,92.5147208 L206.532363,96.6730931 Z" id="Fill-38" fill="#FFFFFF" mask="url(#mask-6)"></path>
                    <path d="M229.129349,92.9780722 C229.129349,94.0448043 229.489495,94.4891197 230.705381,94.4891197 L231.785817,94.4891197 L231.785817,96.3563695 L230.705381,96.3563695 C228.228669,96.3563695 227.103294,95.0677922 227.103294,93.1111794 L227.103294,76.3521751 C227.103294,72.2620981 224.401887,69.2837472 224.401887,65.7723428 L224.401887,64.4818907 C224.401887,60.1699685 227.193172,58.5695579 230.975648,58.5695579 L235.74805,58.5695579 L235.74805,60.4374326 L230.975648,60.4374326 C228.228669,60.4374326 226.427942,61.5929028 226.427942,64.5712537 L226.427942,65.7723428 C226.427942,69.0162831 229.129349,71.9508898 229.129349,76.3521751 L229.129349,92.9780722 Z" id="Fill-39" fill="#FFFFFF" mask="url(#mask-6)"></path>
                    <path d="M235.74805,74.2747239 L237.768912,74.2747239 L237.768912,90.6694439 C237.768912,93.8954915 240.417112,95.104551 243.380875,95.104551 C245.580977,95.104551 247.960318,94.4332711 249.486378,93.402422 L249.486378,64.8673599 L251.506609,64.8673599 L251.506609,94.5226911 C249.486378,96.0000106 246.388185,96.9861497 243.380875,96.9861497 C239.474211,96.9861497 235.74805,95.2840207 235.74805,90.7147836 L235.74805,74.2747239 Z" id="Fill-40" fill="#FFFFFF" mask="url(#mask-6)"></path>
                    <path d="M268.432243,77.0339416 C267.076679,76.6719708 264.909045,76.2188701 262.740142,76.2188701 C259.940123,76.2188701 257.321058,77.0339416 257.321058,79.708574 C257.321058,85.0584763 269.786538,83.6067696 269.786538,91.0877109 C269.786538,95.9379915 266.579532,97.6159299 262.469664,97.6159299 C260.391555,97.6159299 257.816934,97.1169456 255.921048,96.5727149 L256.191526,94.6239357 C258.133127,95.2121382 260.437269,95.7117598 262.560458,95.7117598 C265.451271,95.7117598 267.754143,94.6685448 267.754143,91.0877109 C267.754143,85.3299543 255.288663,86.9167627 255.288663,79.708574 C255.288663,75.6287558 258.9471,74.3140628 262.651252,74.3140628 C264.86333,74.3140628 266.986519,74.7671635 268.702721,75.2667851 L268.432243,77.0339416 Z" id="Fill-41" fill="#FFFFFF" mask="url(#mask-6)"></path>
                    <path d="M283.529057,93.5402067 C283.529057,94.6282986 283.887205,95.0815108 285.099106,95.0815108 L286.17544,95.0815108 L286.17544,96.9861497 L285.099106,96.9861497 C282.632427,96.9861497 281.510694,95.6717704 281.510694,93.6759791 L281.510694,74.3140628 L283.529057,74.3140628 L283.529057,93.5402067 Z M276.217298,93.5402067 C276.217298,94.6282986 276.577337,95.0815108 277.787977,95.0815108 L278.864311,95.0815108 L278.864311,96.9861497 L277.787977,96.9861497 C275.320668,96.9861497 274.198935,95.6717704 274.198935,93.6759791 L274.198935,74.3140628 L276.217298,74.3140628 L276.217298,93.5402067 Z" id="Fill-42" fill="#FFFFFF" mask="url(#mask-6)"></path>
                    <path d="M305.085711,96.9861497 L303.065265,96.9861497 L303.065265,81.7815313 C303.065265,77.5332653 300.730486,76.1924024 297.363708,76.1924024 C295.162741,76.1924024 292.783778,76.8625195 290.897776,77.6684202 L291.616073,81.8267925 L291.616073,96.9861497 L289.595627,96.9861497 L289.595627,81.8267925 L288.696809,76.6833606 C291.570627,75.3871303 294.31,74.3140628 297.363708,74.3140628 C301.807931,74.3140628 305.085711,76.1924024 305.085711,81.7815313 L305.085711,96.9861497 Z" id="Fill-43" fill="#FFFFFF" mask="url(#mask-6)"></path>
                    <path d="M322.011345,77.0339416 C320.655781,76.6719708 318.488147,76.2188701 316.319244,76.2188701 C313.519225,76.2188701 310.90016,77.0339416 310.90016,79.708574 C310.90016,85.0584763 323.36564,83.6067696 323.36564,91.0877109 C323.36564,95.9379915 320.158635,97.6159299 316.048766,97.6159299 C313.970657,97.6159299 311.396036,97.1169456 309.500151,96.5727149 L309.770629,94.6239357 C311.712229,95.2121382 314.016371,95.7117598 316.13956,95.7117598 C319.030373,95.7117598 321.333246,94.6685448 321.333246,91.0877109 C321.333246,85.3299543 308.867765,86.9167627 308.867765,79.708574 C308.867765,75.6287558 312.525568,74.3140628 316.230354,74.3140628 C318.442433,74.3140628 320.565621,74.7671635 322.281823,75.2667851 L322.011345,77.0339416 Z" id="Fill-44" fill="#FFFFFF" mask="url(#mask-6)"></path>
                    <path d="M328.818716,96.6730931 L327.147694,96.6730931 L327.147694,74.3140628 L329.126585,74.3140628 L329.126585,90.5024835 C331.633426,93.2747317 334.228054,95.1078101 336.997634,95.1078101 C339.329523,95.1078101 340.296403,93.76569 340.296403,91.0827069 L340.296403,74.3140628 L342.275912,74.3140628 L342.275912,91.1726007 C342.275912,95.3309729 339.988535,96.9861497 337.129313,96.9861497 C334.13965,96.9861497 331.368832,95.151814 329.126585,92.5147208 L328.818716,96.6730931 Z" id="Fill-45" fill="#FFFFFF" mask="url(#mask-6)"></path>
                    <path d="M349.858169,93.5402067 C349.858169,94.6282986 350.196941,95.0815108 351.342089,95.0815108 L352.36139,95.0815108 L352.36139,96.9861497 L351.342089,96.9861497 C349.008851,96.9861497 347.948993,95.6717704 347.948993,93.6759791 L347.948993,74.3140628 L349.858169,74.3140628 L349.858169,93.5402067 Z" id="Fill-46" fill="#FFFFFF" mask="url(#mask-6)"></path>
                    <path d="M357.814466,96.6730931 L356.143444,96.6730931 L356.143444,74.3140628 L358.122334,74.3140628 L358.122334,90.5024835 C360.629176,93.2747317 363.223803,95.1078101 365.993384,95.1078101 C368.325272,95.1078101 369.292152,93.76569 369.292152,91.0827069 L369.292152,74.3140628 L371.271661,74.3140628 L371.271661,91.1726007 C371.271661,95.3309729 368.984284,96.9861497 366.125063,96.9861497 C363.135399,96.9861497 360.364582,95.151814 358.122334,92.5147208 L357.814466,96.6730931 Z" id="Fill-47" fill="#FFFFFF" mask="url(#mask-6)"></path>
                    <path d="M375.684058,89.4556562 C375.684058,86.463662 377.113003,84.6499846 380.416458,84.6499846 L383.719913,84.6499846 L383.719913,86.5541547 L380.506198,86.5541547 C378.45158,86.5541547 377.692864,87.5960952 377.692864,89.5002652 L377.692864,94.0797051 C379.122437,94.9859065 381.487696,95.7111225 383.763841,95.7111225 C386.710217,95.7111225 389.43381,94.6232985 389.43381,91.2228127 L389.43381,81.6127441 C389.43381,77.5329259 386.889071,76.2188701 383.853582,76.2188701 C381.487696,76.2188701 378.899027,77.0339416 376.845036,77.9414175 L376.487957,76.2188701 C378.54132,75.2202642 381.308842,74.3140628 383.853582,74.3140628 C387.871196,74.3140628 391.442617,76.2188701 391.442617,81.5222514 L391.442617,91.2693336 C391.442617,95.8933825 387.781455,97.6159299 383.763841,97.6159299 C380.86265,97.6159299 377.826534,96.6638449 375.684058,95.1675291 L375.684058,89.4556562 Z" id="Fill-48" fill="#FFFFFF" mask="url(#mask-6)"></path>
                    <path d="M408.997443,77.0339416 C407.641997,76.6719708 405.474553,76.2188701 403.307109,76.2188701 C400.507336,76.2188701 397.88723,77.0339416 397.88723,79.708574 C397.88723,85.0584763 410.352888,83.6067696 410.352888,91.0877109 C410.352888,95.9379915 407.146164,97.6159299 403.035385,97.6159299 C400.958728,97.6159299 398.384333,97.1169456 396.487343,96.5727149 L396.759068,94.6239357 C398.700498,95.2121382 401.003169,95.7117598 403.126171,95.7117598 C406.016731,95.7117598 408.320672,94.6685448 408.320672,91.0877109 C408.320672,85.3299543 395.855014,86.9167627 395.855014,79.708574 C395.855014,75.6287558 399.512496,74.3140628 403.216958,74.3140628 C405.430112,74.3140628 407.553115,74.7671635 409.269167,75.2667851 L408.997443,77.0339416 Z" id="Fill-49" fill="#FFFFFF" mask="url(#mask-6)"></path>
                    <path d="M402.829415,71.1651618 L401.205189,71.1651618 C400.986033,70.2210448 400.897753,69.4170183 400.897753,68.7092625 C400.897753,66.4425849 401.775613,65.4971401 403.927667,65.4971401 L411.613573,65.4971401 L411.30552,67.4809809 L404.059161,67.4809809 C403.136852,67.4809809 402.829415,67.8587605 402.829415,68.8035414 L402.829415,71.1651618 Z" id="Fill-50" fill="#FFFFFF" mask="url(#mask-6)"></path>
                    <path d="M415.62344,74.9286158 C415.62344,69.2387533 419.092484,66.9265631 419.092484,63.4601526 L419.092484,62.3046824 C419.092484,61.0142304 418.653528,60.4374326 417.292211,60.4374326 L410.352888,60.4374326 L410.352888,58.5695579 L417.292211,58.5695579 C419.751843,58.5695579 421.068709,59.8587602 421.068709,62.2153194 L421.068709,63.4601526 C421.068709,67.3721284 417.599665,69.8611699 417.599665,74.9736098 L417.599665,92.9780722 C417.599665,94.0448043 417.950335,94.4891197 419.136935,94.4891197 L420.190798,94.4891197 L420.190798,96.3563695 L419.136935,96.3563695 C416.721754,96.3563695 415.62344,95.0677922 415.62344,93.1111794 L415.62344,74.9286158 Z" id="Fill-51" fill="#FFFFFF" mask="url(#mask-6)"></path>
                    <path d="M426.829653,80.8876227 C428.324485,77.7570567 431.050791,74.3140628 434.789107,74.3140628 C437.472139,74.3140628 439.97898,75.7441908 439.97898,79.8585592 L439.97898,96.9861497 L437.999472,96.9861497 L437.999472,79.8585592 C437.999472,77.086311 436.50464,76.1924024 434.700703,76.1924024 C431.623254,76.1924024 428.632354,79.7246614 426.829653,83.6598709 L426.829653,96.9861497 L424.850763,96.9861497 L424.850763,74.6271194 L426.829653,74.6271194 L426.829653,80.8876227 Z" id="Fill-52" fill="#FFFFFF" mask="url(#mask-6)"></path>
                    <path d="M460.780279,90.7698227 C460.780279,95.4649128 457.210112,96.9861497 453.056947,96.9861497 C450.110571,96.9861497 447.119639,96.0910087 445.021719,95.1518649 L445.021719,89.8759388 C445.021719,87.5054495 445.244502,85.6724219 447.834425,84.5094929 C446.360924,83.883397 445.021719,82.2735261 445.021719,80.038188 L445.021719,79.0091529 C445.021719,76.1929789 446.494593,74.3140628 449.48678,74.3140628 L452.834164,74.3140628 L452.834164,76.1929789 L449.709563,76.1929789 C447.790496,76.1929789 447.030526,77.0422314 447.030526,78.8752589 L447.030526,80.1274506 C447.030526,82.4973114 448.414287,83.6156091 450.691688,83.6156091 L453.504394,83.6156091 L453.504394,85.4926394 L450.691688,85.4926394 C447.878354,85.4926394 447.030526,86.8793536 447.030526,89.6068936 L447.030526,93.9449332 C448.459471,94.5270263 450.825357,95.1072336 453.056947,95.1072336 C456.049134,95.1072336 458.771472,94.0341958 458.771472,90.546666 L458.771472,74.3140628 L460.780279,74.3140628 L460.780279,90.7698227 Z" id="Fill-53" fill="#FFFFFF" mask="url(#mask-6)"></path>
                </g>
            </g>
        </g>
    </g>
</svg>