<svg width="409" height="206" viewBox="0 0 409 206" xmlns="http://www.w3.org/2000/svg" xmlns:xlink="http://www.w3.org/1999/xlink"><title>Group 17</title><defs><path id="a" d="M32.262 30.516V.351H.538v30.165h31.724z"/></defs><g fill="none" fill-rule="evenodd"><path fill="none" d="M-46-63h500v300H-46z"/><path d="M25.286 93.45c1.45.298 3.064.46 4.825.46 2.987 0 5.707-.56 8.162-1.667 2.451-1.117 4.54-2.655 6.26-4.653 1.725-1.988 3.064-4.381 4.025-7.172.96-2.792 1.44-5.874 1.44-9.241 0-3.29-.732-6.088-2.183-8.381-1.461-2.298-3.987-3.444-7.593-3.444-2.451 0-4.747.225-6.892.686l-8.044 33.411zM67 69.91c0 5.589-.915 10.696-2.754 15.327-1.838 4.628-4.385 8.636-7.641 11.996-3.256 3.374-7.17 5.996-11.725 7.868-4.558 1.877-9.516 2.814-14.883 2.814-2.603 0-5.213-.228-7.815-.694L17.01 128H0l19.077-79.441c3.072-.919 6.571-1.737 10.52-2.47 3.944-.73 8.21-1.089 12.818-1.089 4.286 0 7.981.646 11.09 1.95 3.1 1.303 5.647 3.083 7.64 5.337 1.99 2.264 3.463 4.897 4.423 7.924S67 66.469 67 69.909zM112.866 61.043c-1.55-.382-3.089-.749-4.61-1.097-1.509-.345-3.74-.523-6.695-.523-1.09 0-2.299.103-3.617.292-1.326.193-2.408.409-3.261.635L83.373 107H66l13.993-57.499c3.336-1.075 7.088-2.095 11.245-3.062 4.16-.96 8.84-1.439 14.053-1.439 1.94 0 4.1.17 6.467.522 2.366.338 4.444.898 6.242 1.669l-5.134 13.852zM183.925 49.145c1.301-.38 2.742-.821 4.316-1.328 1.575-.5 3.334-.956 5.292-1.381a66.47 66.47 0 0 1 6.556-1.033c2.418-.27 5.16-.403 8.227-.403 8.98 0 15.167 2.61 18.582 7.835 3.414 5.225 4.013 12.368 1.78 21.427L220.86 107h-17.14l7.59-32.042a66.978 66.978 0 0 0 1.095-5.822c.265-1.88.244-3.53-.06-4.951-.303-1.421-1.013-2.576-2.128-3.46-1.117-.881-2.816-1.322-5.115-1.322-2.225 0-4.487.226-6.8.689L187.147 107H170l13.925-57.855zM244.787 31.766L262.425 29l-4.33 17.892H277l-3.415 14.081h-18.787l-5.01 21.24c-.453 1.776-.724 3.426-.797 4.965-.08 1.535.11 2.87.563 3.985.461 1.116 1.273 1.98 2.45 2.595 1.185.623 2.86.927 5.068.927 1.82 0 3.59-.181 5.294-.522a39.178 39.178 0 0 0 5.178-1.443l1.251 13.158a59.532 59.532 0 0 1-7.401 2.192c-2.654.615-5.8.93-9.433.93-5.251 0-9.31-.793-12.19-2.37-2.883-1.578-4.944-3.736-6.15-6.465-1.215-2.728-1.75-5.865-1.595-9.406.16-3.54.68-7.281 1.594-11.197l11.167-47.796zM305.453 59.56c-2.529 0-4.762.73-6.676 2.193-1.922 1.468-3.533 3.313-4.835 5.546-1.3 2.23-2.284 4.672-2.934 7.332-.658 2.66-.976 5.183-.976 7.565 0 3.863.614 6.857 1.841 9.01 1.227 2.162 3.452 3.242 6.674 3.242 2.53 0 4.754-.734 6.676-2.2 1.915-1.462 3.527-3.306 4.827-5.54 1.309-2.237 2.284-4.682 2.935-7.339.65-2.653.983-5.176.983-7.569 0-3.852-.614-6.849-1.84-9.009-1.228-2.152-3.452-3.232-6.675-3.232M296.937 109c-4.074 0-7.593-.62-10.594-1.847-2.986-1.236-5.47-2.965-7.414-5.199-1.96-2.234-3.438-4.868-4.435-7.914-.99-3.042-1.494-6.412-1.494-10.107 0-4.62.747-9.243 2.24-13.866 1.5-4.619 3.696-8.775 6.616-12.47 2.913-3.7 6.49-6.723 10.712-9.076C296.78 46.176 301.616 45 307.07 45c3.978 0 7.489.616 10.527 1.848 3.024 1.231 5.522 2.964 7.466 5.198 1.959 2.237 3.438 4.875 4.435 7.914C330.505 63 331 66.376 331 70.067c0 4.623-.732 9.246-2.188 13.866-1.463 4.62-3.607 8.775-6.439 12.478-2.839 3.692-6.394 6.715-10.652 9.065-4.258 2.348-9.188 3.524-14.784 3.524M103 107a338.572 338.572 0 0 0 6.118-4.95c4.245-3.512 11.568-6.476 20.051-9.908 8.93-3.616 19.045-7.712 27.952-13.363C168.228 71.742 174.844 56.96 178 48c-7.323 4.618-15.037 7.631-23.092 10.78-8.466 3.306-17.218 6.727-26.539 12.335C114.558 79.429 106.628 96.855 103 107M125.185 67.011c9.774-5.86 18.789-9.376 27.504-12.775 3.161-1.234 6.266-2.454 9.311-3.755-1.698-1.493-3.718-2.713-6.045-3.646-3.067-1.223-6.613-1.835-10.65-1.835-5.517 0-10.402 1.168-14.681 3.498-4.265 2.337-7.878 5.341-10.833 9.015-2.948 3.671-5.177 7.8-6.689 12.388A44.01 44.01 0 0 0 111 80c3.898-5.016 8.582-9.616 14.185-12.989M159.68 83.192c-9.394 5.929-19.839 10.124-29.049 13.834-4.748 1.913-9.098 3.669-12.631 5.399 1.721 1.541 3.75 2.797 6.097 3.742 3.035 1.218 6.609 1.833 10.742 1.833 5.685 0 10.688-1.167 15-3.496 4.324-2.33 7.922-5.329 10.802-8.991 2.883-3.673 5.066-7.794 6.54-12.377A45.292 45.292 0 0 0 169 75c-2.704 3.15-5.806 5.984-9.32 8.192M209.217 149.515v-16.011H204v-7.08h5.217V118h8.285v8.423h6.393v7.08h-6.393v13.842c0 1.978 1.042 3.448 2.868 3.448 1.239 0 2.415-.447 2.872-.958l1.758 6.187c-1.24 1.085-3.454 1.978-6.912 1.978-5.803 0-8.871-2.936-8.871-8.485M264.478 141.968c0-4.733-2.844-8.837-8.009-8.837-5.103 0-7.942 4.104-7.942 8.837 0 4.797 2.84 8.901 7.942 8.901 5.165 0 8.009-4.104 8.009-8.901m-24.478 0c0-8.646 6.202-15.968 16.47-15.968 10.329 0 16.53 7.322 16.53 15.968S266.799 158 256.47 158c-10.268 0-16.47-7.386-16.47-16.032M314.478 141.968c0-4.733-2.844-8.837-8.009-8.837-5.103 0-7.942 4.104-7.942 8.837 0 4.797 2.84 8.901 7.942 8.901 5.165 0 8.009-4.104 8.009-8.901m-24.478 0c0-8.646 6.202-15.968 16.47-15.968 10.329 0 16.53 7.322 16.53 15.968S316.799 158 306.47 158c-10.268 0-16.47-7.386-16.47-16.032M355 153.268l3.487-5.81c2.282 2.147 6.782 4.23 10.583 4.23 3.486 0 5.135-1.325 5.135-3.218 0-4.987-18.127-.883-18.127-12.876 0-5.113 4.435-9.594 12.548-9.594 5.135 0 9.257 1.766 12.3 4.165l-3.234 5.68c-1.84-1.892-5.323-3.533-9.066-3.533-2.913 0-4.817 1.26-4.817 2.966 0 4.481 18.191.693 18.191 13.002 0 5.616-4.817 9.72-13.309 9.72-5.326 0-10.456-1.767-13.691-4.732" fill="#FFF"/><g transform="translate(376 25)"><mask id="b" fill="#fff"><use xlink:href="#a"/></mask><path fill="#FFF" mask="url(#b)" d="M24.476.35l-.86 10.764 8.646 6.79-10.813 2.532-3.982 10.08-5.821-9.199-11.108-.56 7.215-8.217L4.87 2.113l10.28 4.121z"/></g><path fill="#FFF" d="M366.013 0l3.047 4.935 5.94.377-3.923 4.32 1.465 5.568-5.471-2.264L362.035 16l.542-5.72L358 6.605l5.806-1.27zM336.004 24l6.748 5.15 8.085-2.615-2.833 7.983 4.996 6.85-8.499-.217L339.504 48l-2.419-8.117L329 37.266l7.004-4.8zM352.042 74.444h-.003l-31.477 115.513c-.677 2.484.813 5.04 3.328 5.708a4.748 4.748 0 0 0 3.579-.462 4.65 4.65 0 0 0 2.2-2.825L361.15 76.847l-9.108-2.403zM363.705 45.16c-2.373-.664-4.814.799-5.453 3.27L352 72.61l8.598 2.39 6.248-24.164c.639-2.47-.768-5.011-3.14-5.676"/></g></svg>
