<?xml version="1.0" encoding="UTF-8"?>
<svg width="500px" height="300px" viewBox="0 0 500 300" version="1.1" xmlns="http://www.w3.org/2000/svg" xmlns:xlink="http://www.w3.org/1999/xlink">
    <!-- Generator: Sketch 43.1 (39012) - http://www.bohemiancoding.com/sketch -->
    <title>Mask</title>
    <desc>Created with Sketch.</desc>
    <defs>
        <polygon id="path-1" points="2.27470128e-15 158.660224 2.27470128e-15 0.320412162 379.981514 0.320412162 379.981514 158.660224 0 158.660224"></polygon>
        <polygon id="path-3" points="15.8382248 38.532267 0.303563986 38.532267 0.303563986 0.33714123 15.8382248 0.33714123 15.8382248 38.532267"></polygon>
        <polygon id="path-5" points="0 204 380 204 380 0 0 0"></polygon>
    </defs>
    <g id="Page-1" stroke="none" stroke-width="1" fill="none" fill-rule="evenodd">
        <g id="Group-20">
            <g id="Page-1">
                <rect id="Mask" fill-opacity="0" fill="#D8D8D8" x="0" y="0" width="500" height="300"></rect>
                <g transform="translate(60.000000, 48.000000)">
                    <g id="Group-3">
                        <mask id="mask-2" fill="white">
                            <use xlink:href="#path-1"></use>
                        </mask>
                        <g id="Clip-2"></g>
                        <path d="M217.05259,140.059324 C217.757952,139.762396 218.535206,139.570843 219.156352,139.150979 C222.766969,136.710618 226.377174,134.266582 229.905217,131.711454 C231.039466,130.890104 232.346255,129.898439 232.840871,128.688266 C234.124655,125.548676 235.605217,122.680691 238.314925,120.47436 C239.672244,119.369153 240.98232,118.020113 241.819963,116.510562 C243.52565,113.435095 244.896936,110.176652 246.500331,106.794864 C246.764893,107.395254 246.893066,107.686464 247.116958,108.194957 C248.339942,105.413151 249.424482,102.779604 250.651163,100.213447 C251.558234,98.3150716 252.162125,96.4624399 250.873412,93.9379434 C249.345196,95.0774589 247.911877,96.1377393 246.490882,97.2139484 C246.220979,97.4185711 245.991336,97.6783316 245.756352,97.9250224 C244.685779,99.050243 243.575769,98.9975557 242.254601,98.0500015 C242.662125,97.4161205 242.991185,96.8435037 243.377347,96.3117298 C246.283423,92.3132148 249.476244,88.4809301 250.621996,83.4944265 C251.260806,80.7150705 252.319877,77.9708394 252.503509,75.1665693 C252.65592,72.8344425 251.908655,70.4140952 251.378709,68.0733915 C250.337304,63.4736696 249.675898,58.8126836 247.539682,54.4465828 C246.227142,51.7644329 243.240547,49.4127015 244.709606,45.7707446 C243.101282,42.6715891 241.748071,39.3947672 238.496504,36.8833403 C239.079034,38.2197184 239.486147,39.1542028 239.893261,40.0886872 C239.678406,40.221018 239.463552,40.3533489 239.248698,40.4856797 C237.004439,37.9881394 234.703898,35.5367515 232.565217,32.9526244 C232.151942,32.4535247 232.373369,31.4349041 232.301888,30.6560309 C232.493325,30.5596418 232.684352,30.4632526 232.87579,30.3668635 C230.295488,28.3006237 227.715185,26.2343839 225.134471,24.1685525 L224.742558,24.568404 C225.670169,26.1951748 226.597369,27.8219455 227.524979,29.4487162 C227.433369,29.4760809 227.342169,29.5038541 227.250558,29.5312188 C219.954558,23.8552879 212.658558,18.1793569 205.150579,12.3388293 C205.208093,13.0572551 205.245477,13.5224551 205.325174,14.514528 C204.160525,13.9406859 203.302342,13.5420597 202.467163,13.1009569 C200.056115,11.8278853 197.765844,9.78901018 195.22539,9.4152981 C190.473542,8.71688535 185.579142,8.94601375 180.742666,8.85738476 C178.077325,8.80878177 175.355704,8.57025952 172.753217,8.99134931 C166.601736,9.98628115 160.482298,11.2197352 154.399423,12.5744926 C151.870471,13.1381239 148.756936,12.4768782 147.10219,15.4196055 C146.963747,15.6662964 146.393952,15.7140825 146.011488,15.7749383 C145.414169,15.8705106 144.583509,15.6654795 144.237606,15.9918139 C141.570212,18.5105925 138.99525,21.1269855 136.233369,23.8703997 C140.19605,22.7308842 143.81899,21.6893915 147.442342,20.6474904 C147.496979,20.8075944 147.551206,20.9672899 147.605844,21.1273939 C147.323617,21.2768787 147.044677,21.4320816 146.759163,21.57544 C141.706601,24.1179074 136.638017,26.6289258 131.61339,29.2248974 C130.556374,29.7709663 129.496893,30.4853078 128.723747,31.3687386 C126.51112,33.8956858 124.428309,36.5361761 122.329066,39.1595124 C121.35832,40.372545 120.659531,40.2079483 119.893779,38.3022209 C116.103639,45.4391006 112.339379,52.3848358 111.138579,59.8239525 C109.199963,71.8342011 109.23365,84.0633674 112.186969,96.5408582 C112.502061,95.6198519 112.657347,95.1664963 112.812223,94.7131407 C114.058623,98.5797333 114.760698,102.487986 115.881801,106.273301 C117.851639,112.924151 119.481736,115.949381 120.915055,116.716818 C120.629542,114.272782 120.331293,111.724188 120.033455,109.175594 L120.561347,109.108203 C120.866579,109.840924 121.206731,110.560983 121.470061,111.307591 C122.495444,114.215193 122.897217,117.529999 126.53125,118.683401 C126.811834,118.772439 126.996288,119.164938 127.222234,119.418981 C131.144244,123.832051 135.019012,128.288006 139.017434,132.631235 C140.14059,133.850802 141.578428,134.809792 142.957931,135.765106 C145.654082,137.631625 148.220417,139.851842 151.188525,141.120421 C155.289239,142.872988 159.663142,144.072542 164.008698,145.15692 C168.880504,146.372812 173.813109,147.677332 178.788439,148.06248 C184.422298,148.498274 190.100525,147.783115 195.244288,145.082586 C194.184806,143.796445 194.701606,143.305922 196.260634,143.284275 C198.988828,143.245883 201.719898,143.232405 204.442752,143.080061 C205.527293,143.019205 206.742061,142.864411 207.642147,142.328553 C212.828223,139.242875 217.884482,135.939505 223.103834,132.91305 C224.772136,131.945892 226.295012,130.165143 229.024439,130.832924 C225.462298,134.786103 220.871488,136.851526 217.05259,140.059324 M253.944634,39.6263461 C249.219898,39.2906179 246.588655,35.2010233 242.432071,33.8511671 C244.167747,35.9557992 246.370104,37.7479834 247.400417,40.0568298 C249.605239,44.9979978 254.290947,47.4730746 257.593455,51.2824872 C258.379336,52.1883816 259.048547,53.1943411 259.771163,54.1545565 C259.551379,54.3979799 259.331596,54.6418117 259.111401,54.8852351 C257.273023,53.7273402 255.434234,52.5694454 253.210104,51.1689441 C256.188893,59.0209821 259.034579,66.5217716 261.880266,74.0221526 L261.484244,74.3697253 C260.193888,72.9741251 258.90312,71.5785249 257.844871,70.4341082 C258.40645,82.4423147 258.988158,94.8748784 259.569455,107.307034 C259.332006,107.358904 259.094558,107.410774 258.857109,107.462236 C257.975509,104.284663 257.093909,101.10668 256.229563,97.9895541 C253.954082,104.23075 251.573023,110.761113 249.191963,117.291885 C249.438039,117.401344 249.684115,117.510803 249.93019,117.620262 C251.178234,115.139467 252.426277,112.658264 253.756893,110.013689 C253.781542,110.021449 254.332028,110.189314 254.964266,110.3825 C255.403423,113.197798 253.42085,115.021023 252.011769,116.927975 C250.534082,118.927641 248.240115,120.378379 248.757325,123.380737 C248.826752,123.782631 248.266817,124.291125 247.928309,124.869459 C247.440266,124.617459 247.003574,124.392006 246.604677,124.186567 C244.240461,126.35328 242.026601,128.688266 239.494774,130.609513 C237.339661,132.244044 234.763055,133.316169 232.935358,135.426111 C232.476071,135.956659 231.852461,136.346709 230.904309,137.133342 C233.339185,137.362879 235.258082,137.543404 237.781282,137.78111 C235.628223,138.819335 233.962796,139.99806 232.121131,140.423234 C229.343228,141.064466 227.343812,142.727587 225.273736,144.421749 C224.342017,145.184285 223.268569,145.783449 222.379985,146.588462 C221.036634,147.805579 220.45205,147.05162 219.942234,145.790393 C217.878731,147.268087 215.824266,148.739655 213.658471,150.290458 C213.74885,150.399917 213.943985,150.881862 214.22005,150.932916 C216.855401,151.421805 219.489931,152.034856 222.153217,152.233761 C227.637542,152.642598 233.144461,153.109023 238.631661,153.002832 C243.259855,152.912977 247.870385,152.019336 252.494471,151.538615 C254.71819,151.307853 256.953412,151.174297 259.186579,151.056261 C264.748136,150.762601 270.33352,150.712773 275.863855,150.134847 C278.371855,149.872635 280.470688,149.801569 282.333304,151.68034 C282.58965,151.938875 283.237909,151.853105 283.705412,151.858823 C285.28005,151.878019 286.854688,151.866175 288.429325,151.866175 C296.799185,151.866175 305.168634,151.898441 313.538082,151.847387 C316.114688,151.831459 318.930385,152.198636 321.210385,151.309487 C324.736374,149.9339 328.038882,151.271095 331.424374,151.133863 C335.143444,150.983153 338.887163,151.444677 343.165758,151.668087 C340.293369,149.560188 337.813715,147.917488 335.545628,146.024014 C333.510882,144.32536 331.652785,142.403295 329.841109,140.464893 C329.354709,139.944964 329.322255,139.005987 328.936915,137.811333 C331.380417,138.868755 333.906493,138.358627 335.858255,140.381165 C336.908288,141.468811 338.605758,141.966685 340.052634,142.642634 C345.711142,145.285983 351.311315,148.07555 357.088958,150.433816 C359.703358,151.50104 362.731034,151.517377 365.484288,152.308503 C369.563639,153.480693 373.566169,154.917953 377.856266,156.325806 C377.284417,156.637845 377.065044,156.757515 376.681758,156.966222 C377.809023,157.251713 378.801131,157.502897 379.981801,157.801458 C374.090363,158.205802 368.464309,157.906424 362.89125,156.628043 C362.130017,156.453644 361.244309,156.890662 360.409542,156.942941 C358.915423,157.036063 357.41432,157.1251 355.919379,157.085074 C352.726147,156.999304 349.536201,156.777119 346.342558,156.709729 C343.12632,156.642338 339.904331,156.605579 336.690147,156.716672 C332.153563,156.8731 327.623963,157.234968 323.087379,157.378735 C321.995444,157.413451 320.887488,156.739952 319.786104,156.736685 C317.621131,156.730967 315.449585,157.137762 313.292006,157.061386 C310.401131,156.959278 307.517239,156.305793 304.637044,156.345002 C299.276785,156.417294 293.921044,156.80816 288.564482,157.08875 C286.466471,157.199026 284.371747,157.48656 282.274969,157.492686 C268.924439,157.530261 255.573498,157.46573 242.223379,157.548232 C239.332093,157.566203 236.162688,158.92627 233.616482,158.120441 C229.266406,156.744445 224.998904,157.205969 220.702644,157.153282 C215.185044,157.085483 209.663336,157.386495 204.143271,157.510248 C197.596179,157.656874 191.049498,157.808401 184.501996,157.898256 C183.29832,157.915001 182.060958,157.770009 180.889736,157.490235 C175.994515,156.322538 171.128871,157.743461 166.23365,157.624608 C161.600525,157.511882 156.950147,158.475365 152.29525,158.65589 C150.502471,158.725323 148.675596,157.943183 146.864742,157.544556 C146.22552,157.404057 145.589996,157.125917 144.951596,157.12265 C138.242234,157.091609 131.53205,157.059752 124.823098,157.121833 C121.424461,157.153282 118.024179,157.541289 114.631293,157.468997 C110.572482,157.382819 106.522709,156.935998 102.464309,156.736685 C101.40565,156.684814 100.330558,157.076497 99.2616281,157.085483 C94.4013254,157.126326 89.5286984,157.310935 84.6819524,157.047907 C79.2958119,156.755881 73.9330876,156.034596 68.5596822,155.503639 C68.2877254,155.476683 68.012893,155.477091 67.739293,155.471373 C61.4662119,155.334141 55.1935416,155.170362 48.9196389,155.067438 C39.1554876,154.907334 29.3905146,154.760708 19.6251308,154.663093 C13.7936714,154.605097 7.96097946,154.665136 2.12869838,154.636546 C1.41840649,154.63287 0.709347027,154.406192 -0.000123243243,154.282846 C0.0130227027,154.094561 0.0261686486,153.905867 0.0389037838,153.717581 C1.44100108,153.484777 2.84268757,153.251973 4.30640649,153.008958 C3.91326054,152.585418 3.57393081,152.219874 3.23419027,151.854331 C3.24446054,151.635004 3.25432,151.415678 3.26459027,151.195944 C4.27066595,151.113441 5.27756324,150.956605 6.28322811,150.960281 C11.4315092,150.979885 16.5789686,151.043192 21.7268389,151.084851 C23.1264714,151.096287 24.525693,151.086485 25.9577795,150.707463 C19.0310984,148.980628 12.1048281,147.253792 5.44065514,145.592713 C5.16910919,144.595739 4.92549838,143.700872 4.71146595,142.916281 C10.21592,144.448296 15.8099308,146.005226 21.4035308,147.562155 C21.4585795,147.397967 21.5136281,147.233779 21.5686768,147.069591 C19.2821038,145.885556 16.9959416,144.701522 14.7097795,143.517488 C14.7566119,143.235672 14.8034443,142.953857 14.8506876,142.672041 C16.0009578,142.728404 17.2654335,142.492741 18.2834227,142.886874 C26.7280497,146.158795 35.3982119,148.690643 44.2068173,150.741363 C46.4835308,151.271503 48.8900605,151.355231 51.2435957,151.429565 C54.7289146,151.539432 58.2203957,151.457746 61.7118768,151.457746 C61.6366984,149.394366 62.0577795,149.132971 63.8550768,149.730502 C65.1129795,150.148733 66.4403092,150.489363 67.756547,150.584118 C73.3698659,150.988054 78.9905795,151.28784 84.6441578,151.276813 C83.6791632,150.979885 82.6636389,150.782206 81.7713578,150.340286 C81.3716389,150.142198 81.2179957,149.453179 80.9530227,148.987162 C81.4390119,148.727402 81.9804605,148.173573 82.4031849,148.251991 C90.3835957,149.727643 98.4482227,149.745206 106.521066,149.861608 C111.94952,149.940026 117.37099,150.416662 122.799034,150.628637 C127.905823,150.82795 133.020006,150.847554 138.125152,151.072598 C141.497498,151.221675 144.863682,151.556586 148.224525,151.889864 C149.122147,151.978901 149.989369,152.367317 150.870558,152.618092 C150.980655,152.479635 151.090752,152.340769 151.20085,152.202312 C150.555055,151.656243 149.961023,151.03053 149.25525,150.576766 C144.752763,147.682642 139.93272,145.186327 135.787639,141.857226 C131.527531,138.436637 127.994558,134.13466 123.999012,130.369358 C120.907661,127.456037 117.341001,125.010367 114.445196,121.929999 C111.080655,118.35094 108.175401,114.33813 105.155531,110.449074 C103.679898,108.548656 102.396525,106.501204 100.886796,104.318971 C101.077823,103.722665 101.390039,102.747746 101.767985,101.568205 C102.390774,101.743012 103.065736,101.932523 103.719336,102.115907 C104.128915,98.1954021 102.010363,94.8695688 100.647704,91.3170576 C99.2419092,87.6526371 97.9338876,83.9481906 96.7022768,80.2225058 C96.0934551,78.3800848 96.8411308,77.3884204 98.8660173,76.9710064 C99.4288281,74.0037733 98.0702768,70.6963193 100.312071,68.0125356 C100.535963,67.7441981 101.148893,67.7972938 101.652136,67.6853844 C102.051444,70.5370322 102.429801,73.2375615 102.807747,75.9380907 C102.905931,75.9352317 103.004525,75.9327812 103.102709,75.9303306 C103.102709,72.6241019 102.820482,69.2888747 103.162688,66.0177708 C103.820806,59.7279718 104.223401,53.3360657 107.152071,47.5229028 C108.184028,45.4746339 109.106298,45.2087469 110.71339,46.3498962 C111.016569,45.7499147 111.313585,45.1634114 111.62005,44.5573035 C108.982644,44.0100093 108.467488,42.2415139 110.379812,39.9322591 C111.075315,39.0921217 112.139725,38.3418385 113.18072,38.0351087 C116.260979,37.1275805 117.950644,34.8428315 119.637434,32.3934858 C121.573996,29.5818639 123.383617,26.5672531 125.833693,24.2535057 C128.372093,21.8564388 130.582255,19.2282013 132.944828,16.7041132 C135.299596,14.188602 137.833066,11.8654607 141.308115,10.5785025 C143.746688,9.67546705 145.661066,7.46750256 147.999812,6.18544548 C151.691769,4.16168225 155.532439,2.40380596 159.339012,0.592833974 C159.888266,0.33184816 160.597325,0.40291472 161.232439,0.320412162 C161.343358,0.532386555 161.454277,0.744360949 161.565196,0.956335343 C158.845217,2.89310331 156.124828,4.82987128 153.133715,6.9594175 C156.054169,6.43907959 158.670623,5.9105731 161.307206,5.51848174 C165.033261,4.96465268 168.788893,4.59706703 172.504266,3.98564956 C175.068136,3.56374291 177.561347,2.69624077 180.129736,2.32824669 C183.787596,1.80423292 187.484893,1.55590839 191.165347,1.18954802 C191.215055,1.44808326 191.264352,1.70661851 191.314061,1.96515375 C190.206104,2.36459683 189.098147,2.7640399 187.760136,3.24639397 C190.908179,3.6609489 193.790428,4.39612021 196.645974,4.30504065 C198.956785,4.23152352 200.565931,5.52379131 202.529606,6.04208708 C207.364028,7.3176093 210.813606,10.8488821 214.938558,13.2741306 C221.209585,16.9610147 227.756266,20.1826988 234.04085,23.8483446 C237.444828,25.834124 240.67339,28.1756446 243.753239,30.63806 C247.205693,33.3982199 250.400979,36.4765455 253.944634,39.6263461" id="Fill-1" fill="#FEFEFE" mask="url(#mask-2)"></path>
                    </g>
                    <path d="M198,165.095394 C202.611286,164.830049 202.612528,164.829631 203.988914,169.09688 C205.829204,174.802842 207.664108,180.510893 209.511853,186.214348 C209.629486,186.577056 209.835758,186.910513 210.052384,187.366405 L210.052384,165.151806 L215,165.151806 L215,202.962004 C213.933021,202.962004 212.908291,202.881774 211.900958,202.982062 C210.643447,203.107421 210.178301,202.575896 209.791024,201.38247 C207.379967,193.952811 204.859976,186.559087 202.611286,179.855679 L202.611286,202.879267 L198,202.879267 L198,165.095394 Z" id="Fill-4" fill="#FEFEFE"></path>
                    <path d="M109.251095,169.797986 L109.251095,181.701139 C112.184083,181.908914 113.68221,180.427422 114.165183,176.953119 C114.697363,173.127804 113.000341,170.608268 109.251095,169.797986 L109.251095,169.797986 Z M104,165 C107.2671,165.206943 110.347295,165.28897 113.398959,165.630405 C115.894873,165.909798 117.701061,167.539522 118.448677,169.827549 C119.556869,173.217743 119.706971,176.764081 118.644678,180.245463 C117.843306,182.874091 116.762819,183.947528 114.279724,184.883974 C116.518024,190.854496 118.756324,196.825018 121,202.809697 C120.702277,202.899219 120.579466,202.965841 120.455414,202.968755 C115.400735,203.093254 115.447047,203.076182 113.752092,198.268203 C112.428464,194.513673 110.971274,190.806195 109.140689,187.11912 L109.140689,194.811804 L109.140689,202.842175 L104,202.842175 L104,165 Z" id="Fill-6" fill="#FEFEFE"></path>
                    <path d="M305.62016,186.252973 L305.62016,181.450538 C306.040317,181.414899 306.376357,181.367521 306.713678,181.360812 C309.713699,181.300017 311.126178,180.337769 311.409271,177.490018 C311.596292,175.608708 311.310637,173.612934 310.82942,171.770617 C310.635568,171.02891 309.384491,170.153453 308.557841,170.093077 C307.858007,170.042344 306.696171,170.937926 306.414359,171.666635 C305.905388,172.983175 305.900691,174.487552 305.658589,176.090041 L300.359661,176.090041 C300.67307,173.075417 300.38955,169.923688 302.431836,167.46461 C304.893425,164.49988 308.399429,164.676396 311.694926,165.591266 C314.896914,166.480559 316.291885,169.148858 316.490862,172.215892 C316.646286,174.613756 316.559607,177.092121 316.092482,179.440928 C315.760711,181.110083 314.615528,182.623265 313.777777,184.318834 C316.256872,185.522587 317.083095,188.106192 316.984888,191.179515 C316.877714,194.532499 317.581391,198.068708 315.095036,200.913524 C314.187259,201.9525 312.988702,203.087072 311.716703,203.420819 C304.839198,205.22582 299.076133,203.000281 300.123536,194.073387 L304.538171,194.073387 C305.126988,195.563509 305.384889,197.061177 306.214955,198.129923 C307.648356,199.976013 309.788849,199.650652 310.656063,197.488843 C311.869138,194.465833 312.004066,191.350582 310.71883,188.257552 C309.769208,185.972894 307.703437,186.374145 305.62016,186.252973" id="Fill-8" fill="#FEFEFE"></path>
                    <path d="M56.5789187,181.788091 C58.7142354,182.061207 60.3324362,181.503682 61.4003159,179.874602 C62.5709104,178.08868 62.3530841,173.23532 61.034173,171.64932 C59.9082949,170.295867 58.4640894,169.724539 56.5789187,170.315525 L56.5789187,181.788091 Z M51,165 C54.6822369,165.204942 58.198005,165.260987 61.6761405,165.633229 C65.1011477,166.000033 67.622973,168.944087 67.9510405,173.030378 C68.1312342,175.274701 67.7695187,177.562941 67.5857832,179.826922 C67.2497464,183.964658 63.1535512,186.688713 58.8492699,186.421034 C58.1909212,186.380045 57.5268169,186.415178 56.6161086,186.415178 L56.6161086,203 L51,203 L51,165 Z" id="Fill-10" fill="#FEFEFE"></path>
                    <g id="Group-14" transform="translate(1.000000, 165.000000)">
                        <mask id="mask-4" fill="white">
                            <use xlink:href="#path-3"></use>
                        </mask>
                        <g id="Clip-13"></g>
                        <path d="M13.8055426,6.64915259 C13.1472758,6.38639532 12.6500004,6.20726127 12.1686607,5.9928743 C9.54785164,4.82501867 7.87664663,5.16279089 6.34681985,7.18122581 C5.23254697,8.65160072 5.32489228,11.84445 6.66512515,13.4242729 C8.76128205,15.8956669 10.916687,18.3186906 13.1047806,20.708511 C17.2337603,25.2184259 16.7569152,34.6498132 11.1835078,37.5311249 C7.99432561,39.1794041 4.82107914,38.6379028 1.68746759,37.0293856 L1.68746759,31.7488254 C2.80296629,32.2222803 3.83592626,32.7363172 4.91832774,33.1056531 C7.81249524,34.0939647 10.4692617,32.2157217 10.6081883,29.109775 C10.7283189,26.4211246 9.37787089,24.3846533 7.64700917,22.522397 C5.94066391,20.6867854 4.20816776,18.8741292 2.55657592,16.9901473 C-0.535357654,13.463625 -0.268128295,6.86763874 2.28240023,3.18083864 C4.16812422,0.455705545 10.3156253,-0.583435911 13.1889538,1.2775906 C13.5109366,1.48623873 13.7556925,2.04085742 13.7781659,2.44872557 C13.8513067,3.79366565 13.8055426,5.14475451 13.8055426,6.64915259" id="Fill-12" fill="#FEFEFE" mask="url(#mask-4)"></path>
                    </g>
                    <polygon id="Fill-15" fill="#FEFEFE" points="251 169.935338 251 165 268 165 268 169.808273 262.244666 169.808273 262.244666 203 256.835978 203 256.835978 169.935338"></polygon>
                    <mask id="mask-6" fill="white">
                        <use xlink:href="#path-5"></use>
                    </mask>
                    <g id="Clip-18"></g>
                    <polygon id="Fill-17" fill="#FEFEFE" mask="url(#mask-6)" points="157 203 160 203 160 165 157 165"></polygon>
                    <path d="M355.28194,202 L351,202 L351,176.234873 L355.192632,176.234873 C355.246217,176.829489 355.299802,177.421119 355.338874,177.853645 C356.767427,176.979209 358.190027,176.108187 360,175 L360,180.549891 C356.373729,180.987535 355.342967,181.765996 355.291243,186.808714 C355.246589,191.203071 355.28194,195.598708 355.28194,199.993491 L355.28194,202" id="Fill-19" fill="#FEFEFE" mask="url(#mask-6)"></path>
                    <path d="M114,141.589095 C116.733346,139.0075 119.876624,140.089781 122.176173,141.218445 C125.105593,142.656332 127.429008,145.09209 129.9616,147.148423 C130.362172,147.473525 130.491329,148.065227 131,149 C125.064881,146.412973 119.621119,144.039478 114,141.589095" id="Fill-20" fill="#FEFEFE" mask="url(#mask-6)"></path>
                    <path d="M139.043089,114 C142.221843,118.788728 142.622022,124.514398 147.811896,127.910499 L147.811896,122.976839 L148.387709,122.894569 C149.671839,125.995264 150.890161,129.122387 152.260107,132.187701 C153.328584,134.578229 154.601153,136.884354 155.742107,139.246321 C155.915962,139.605668 155.871498,140.06263 156,141 C154.289458,139.746763 152.788787,138.834117 151.524222,137.68276 C148.621147,135.03988 145.601575,132.465204 143.053326,129.525213 C139.301871,125.196432 138.828771,119.883391 139.043089,114" id="Fill-21" fill="#FEFEFE" mask="url(#mask-6)"></path>
                </g>
            </g>
        </g>
    </g>
</svg>