<svg width="500" height="300" viewBox="0 0 500 300" xmlns="http://www.w3.org/2000/svg" xmlns:xlink="http://www.w3.org/1999/xlink"><title>Mask</title><defs><path id="a" d="M0 158.66V.32h379.982v158.34H0z"/><path id="c" d="M15.838 38.532H.304V.337h15.534v38.195z"/><path id="e" d="M0 204h380V0H0z"/></defs><g fill="none" fill-rule="evenodd"><path fill="none" d="M0 0h500v300H0z"/><g transform="translate(60 48)"><mask id="b" fill="#fff"><use xlink:href="#a"/></mask><path d="M217.053 140.06c.705-.298 1.482-.49 2.103-.909 3.611-2.44 7.221-4.884 10.75-7.44 1.133-.82 2.44-1.813 2.935-3.023 1.284-3.14 2.764-6.007 5.474-8.214 1.357-1.105 2.667-2.454 3.505-3.963 1.706-3.076 3.077-6.334 4.68-9.716l.617 1.4c1.223-2.782 2.307-5.415 3.534-7.982.907-1.898 1.511-3.75.222-6.275-1.528 1.14-2.961 2.2-4.382 3.276-.27.205-.5.464-.735.711-1.07 1.125-2.18 1.073-3.501.125.407-.634.736-1.206 1.122-1.738 2.906-3.999 6.1-7.831 7.245-12.818.639-2.779 1.698-5.523 1.882-8.327.152-2.333-.595-4.753-1.125-7.094-1.042-4.6-1.703-9.26-3.84-13.626-1.312-2.683-4.298-5.034-2.83-8.676-1.608-3.1-2.96-6.376-6.212-8.888.582 1.337.99 2.271 1.396 3.206l-.644.397c-2.245-2.498-4.545-4.95-6.684-7.533-.413-.5-.192-1.518-.263-2.297l.574-.29c-2.58-2.065-5.16-4.132-7.742-6.197l-.391.4 2.782 4.88-.274.082-22.1-17.192.174 2.176c-1.164-.574-2.023-.973-2.858-1.414-2.41-1.273-4.701-3.312-7.242-3.686-4.751-.698-9.646-.469-14.482-.558-2.666-.048-5.387-.287-7.99.134-6.151.995-12.27 2.229-18.354 3.583-2.529.564-5.642-.097-7.297 2.846-.138.246-.708.294-1.09.355-.598.096-1.428-.11-1.774.217-2.668 2.519-5.243 5.135-8.005 7.878 3.963-1.14 7.586-2.18 11.21-3.223l.163.48c-.282.15-.561.305-.847.448-5.052 2.543-10.121 5.054-15.146 7.65-1.057.546-2.116 1.26-2.89 2.144-2.212 2.527-4.295 5.167-6.394 7.79-.97 1.214-1.67 1.049-2.435-.857-3.79 7.137-7.555 14.083-8.755 21.522-1.939 12.01-1.905 24.24 1.048 36.717l.625-1.828c1.247 3.867 1.949 7.775 3.07 11.56 1.97 6.651 3.6 9.676 5.033 10.444l-.882-7.541.528-.068c.306.733.646 1.453.91 2.2 1.024 2.907 1.426 6.222 5.06 7.375.28.09.465.482.691.736 3.922 4.413 7.797 8.869 11.795 13.212 1.124 1.22 2.561 2.179 3.94 3.134 2.697 1.867 5.263 4.087 8.232 5.355 4.1 1.753 8.474 2.953 12.82 4.037 4.872 1.216 9.804 2.52 14.78 2.905 5.633.436 11.312-.279 16.455-2.98-1.06-1.286-.542-1.776 1.017-1.798 2.728-.038 5.459-.052 8.182-.204 1.084-.06 2.3-.216 3.2-.751 5.185-3.086 10.241-6.39 15.46-9.416 1.67-.967 3.192-2.748 5.921-2.08-3.562 3.953-8.153 6.019-11.971 9.226m36.892-100.433c-4.725-.335-7.356-4.425-11.513-5.775 1.736 2.105 3.938 3.897 4.968 6.206 2.205 4.941 6.89 7.416 10.193 11.225.786.906 1.456 1.912 2.178 2.873l-.66.73-5.9-3.716 8.67 22.853-.397.348-3.64-3.936 1.725 36.873-.712.155-2.627-9.472-7.038 19.302.738.328 3.827-7.606 1.207.368c.44 2.816-1.543 4.639-2.952 6.546-1.478 2-3.772 3.45-3.255 6.453.07.402-.49.91-.829 1.488l-1.323-.682c-2.365 2.166-4.578 4.501-7.11 6.423-2.155 1.634-4.732 2.706-6.56 4.816-.459.53-1.083.92-2.03 1.707l6.876.648c-2.153 1.038-3.818 2.217-5.66 2.642-2.778.641-4.777 2.305-6.847 3.999-.932.762-2.005 1.361-2.894 2.166-1.343 1.218-1.928.464-2.438-.798l-6.284 4.5c.09.11.286.592.562.643 2.635.489 5.27 1.102 7.933 1.3 5.485.41 10.991.876 16.479.77 4.628-.09 9.238-.984 13.862-1.464 2.224-.231 4.46-.365 6.693-.483 5.561-.293 11.147-.343 16.677-.921 2.508-.262 4.607-.333 6.47 1.545.256.259.904.173 1.371.179 1.575.019 3.15.007 4.724.007 8.37 0 16.74.032 25.11-.019 2.576-.016 5.391.352 7.671-.538 3.526-1.375 6.829-.038 10.214-.175 3.72-.15 7.463.31 11.742.534-2.873-2.108-5.352-3.75-7.62-5.644-2.035-1.699-3.893-3.62-5.705-5.56-.486-.519-.519-1.458-.904-2.653 2.443 1.058 4.97.548 6.921 2.57 1.05 1.088 2.748 1.586 4.195 2.262 5.658 2.643 11.258 5.433 17.036 7.79 2.614 1.068 5.642 1.084 8.395 1.876 4.08 1.172 8.082 2.609 12.372 4.017l-1.174.64 3.3.835c-5.892.405-11.518.105-17.09-1.173-.762-.174-1.648.263-2.482.315-1.495.093-2.996.182-4.49.142-3.194-.086-6.384-.308-9.577-.375-3.217-.068-6.439-.104-9.653.007-4.536.156-9.066.518-13.603.662-1.092.034-2.2-.639-3.3-.642-2.166-.006-4.337.4-6.495.324-2.89-.102-5.775-.755-8.655-.716-5.36.072-10.716.463-16.073.744-2.098.11-4.192.398-6.289.404-13.35.037-26.702-.027-40.052.055-2.89.018-6.06 1.378-8.607.572-4.35-1.376-8.617-.914-12.913-.967-5.518-.068-11.04.233-16.56.357-6.547.147-13.094.298-19.641.388a14.823 14.823 0 0 1-3.612-.408c-4.895-1.167-9.761.253-14.656.135-4.633-.113-9.284.85-13.939 1.03-1.793.07-3.62-.712-5.43-1.11-.64-.14-1.275-.42-1.913-.422-6.71-.031-13.42-.063-20.129-.001-3.399.031-6.799.42-10.192.347-4.059-.086-8.108-.533-12.167-.732-1.058-.052-2.133.34-3.202.348-4.86.041-9.733.226-14.58-.037-5.386-.292-10.749-1.013-16.122-1.544-.272-.027-.547-.027-.82-.033-6.274-.137-12.546-.3-18.82-.404-9.765-.16-19.53-.306-29.295-.404-5.831-.058-11.664.002-17.496-.026-.71-.004-1.42-.23-2.13-.354l.04-.565 4.267-.709-1.072-1.155.03-.658c1.007-.083 2.014-.24 3.02-.236 5.148.02 10.295.083 15.443.125 1.4.011 2.799.001 4.23-.378l-20.516-5.114-.73-2.677 16.693 4.646.165-.492-6.86-3.553.142-.845c1.15.056 2.414-.18 3.432.215 8.445 3.272 17.115 5.804 25.924 7.854 2.277.53 4.683.614 7.037.689 3.485.11 6.976.028 10.468.028-.075-2.064.346-2.325 2.143-1.727 1.258.418 2.585.758 3.902.853 5.613.404 11.234.704 16.887.693-.965-.297-1.98-.495-2.873-.937-.4-.198-.553-.887-.818-1.353.486-.26 1.027-.813 1.45-.735 7.98 1.476 16.045 1.493 24.118 1.61 5.429.078 10.85.555 16.278.767 5.107.199 10.221.219 15.326.444 3.372.149 6.739.484 10.1.817.897.089 1.764.477 2.646.728l.33-.416c-.646-.546-1.24-1.171-1.946-1.625-4.502-2.894-9.322-5.39-13.467-8.72-4.26-3.42-7.793-7.722-11.789-11.488-3.091-2.913-6.658-5.359-9.554-8.439-3.364-3.58-6.27-7.592-9.29-11.48-1.475-1.901-2.758-3.949-4.268-6.131l.881-2.75 1.951.547c.41-3.92-1.709-7.246-3.071-10.799a250.348 250.348 0 0 1-3.946-11.094c-.609-1.843.14-2.835 2.164-3.252.563-2.967-.796-6.275 1.446-8.958.224-.269.837-.216 1.34-.328l1.156 8.253.295-.008c0-3.306-.283-6.641.06-9.912.658-6.29 1.06-12.682 3.99-18.495 1.031-2.048 1.953-2.314 3.56-1.173l.907-1.793c-2.637-.547-3.153-2.315-1.24-4.625.695-.84 1.76-1.59 2.8-1.897 3.081-.907 4.77-3.192 6.457-5.642 1.937-2.811 3.747-5.826 6.197-8.14 2.538-2.397 4.748-5.025 7.11-7.549 2.356-2.515 4.89-4.839 8.364-6.125 2.439-.904 4.353-3.111 6.692-4.394 3.692-2.023 7.532-3.781 11.339-5.592.55-.261 1.258-.19 1.893-.273l.333.636-8.431 6.003c2.92-.52 5.537-1.048 8.173-1.44 3.726-.554 7.482-.922 11.197-1.533 2.564-.422 5.057-1.29 7.626-1.658 3.658-.524 7.355-.772 11.035-1.138l.15.775-3.555 1.281c3.148.415 6.03 1.15 8.886 1.059 2.31-.073 3.92 1.219 5.884 1.737 4.834 1.276 8.284 4.807 12.409 7.232 6.27 3.687 12.817 6.909 19.102 10.574 3.404 1.986 6.632 4.328 9.712 6.79 3.453 2.76 6.648 5.839 10.192 8.988" fill="#FEFEFE" mask="url(#b)"/><path d="M198 165.095c4.611-.265 4.613-.265 5.989 4.002 1.84 5.706 3.675 11.414 5.523 17.117.117.363.324.697.54 1.152v-22.214H215v37.81c-1.067 0-2.092-.08-3.099.02-1.258.125-1.723-.406-2.11-1.6-2.411-7.43-4.931-14.823-7.18-21.526v23.023H198v-37.784zM109.251 169.798v11.903c2.933.208 4.431-1.274 4.914-4.748.532-3.825-1.165-6.345-4.914-7.155zM104 165c3.267.207 6.347.289 9.399.63 2.496.28 4.302 1.91 5.05 4.198 1.108 3.39 1.258 6.936.196 10.417-.802 2.63-1.882 3.703-4.365 4.639L121 202.81c-.298.09-.42.156-.545.159-5.054.124-5.008.107-6.703-4.7-1.324-3.755-2.78-7.463-4.611-11.15V202.842H104V165zM305.62 186.253v-4.802c.42-.036.756-.083 1.094-.09 3-.061 4.412-1.023 4.695-3.871.187-1.881-.098-3.877-.58-5.72-.193-.741-1.445-1.617-2.271-1.677-.7-.05-1.862.845-2.144 1.574-.509 1.316-.513 2.82-.755 4.423h-5.3c.314-3.015.03-6.166 2.073-8.625 2.461-2.965 5.967-2.789 9.263-1.874 3.202.89 4.597 3.558 4.796 6.625.155 2.398.069 4.876-.399 7.225-.331 1.67-1.476 3.182-2.314 4.878 2.479 1.204 3.305 3.787 3.207 6.86-.107 3.353.596 6.89-1.89 9.735-.908 1.038-2.106 2.173-3.378 2.507-6.878 1.805-12.64-.42-11.593-9.348h4.414c.589 1.49.847 2.988 1.677 4.057 1.433 1.846 3.574 1.52 4.441-.641 1.213-3.023 1.348-6.138.063-9.231-.95-2.285-3.016-1.884-5.099-2.005M56.579 181.788c2.135.273 3.753-.284 4.821-1.913 1.17-1.786.953-6.64-.366-8.226-1.126-1.353-2.57-1.924-4.455-1.333v11.472zM51 165c3.682.205 7.198.261 10.676.633 3.425.367 5.947 3.311 6.275 7.397.18 2.245-.181 4.533-.365 6.797-.336 4.138-4.432 6.862-8.737 6.594-.658-.041-1.322-.006-2.233-.006V203H51v-38z" fill="#FEFEFE"/><g transform="translate(1 165)"><mask id="d" fill="#fff"><use xlink:href="#c"/></mask><path d="M13.806 6.65c-.659-.264-1.156-.443-1.637-.657-2.621-1.168-4.292-.83-5.822 1.188-1.114 1.47-1.022 4.663.318 6.243a256.39 256.39 0 0 0 6.44 7.285c4.129 4.51 3.652 13.94-1.921 16.822-3.19 1.648-6.363 1.107-9.497-.502v-5.28c1.116.473 2.149.987 3.231 1.357 2.894.988 5.551-.89 5.69-3.996.12-2.689-1.23-4.725-2.961-6.588-1.706-1.835-3.439-3.648-5.09-5.532C-.535 13.464-.268 6.868 2.282 3.18 4.168.457 10.316-.582 13.19 1.279c.322.208.567.763.59 1.17.072 1.346.027 2.697.027 4.201" fill="#FEFEFE" mask="url(#d)"/></g><path fill="#FEFEFE" d="M251 169.935V165h17v4.808h-5.755V203h-5.409v-33.065z"/><mask id="f" fill="#fff"><use xlink:href="#e"/></mask><path fill="#FEFEFE" mask="url(#f)" d="M157 203h3v-38h-3zM355.282 202H351v-25.765h4.193l.146 1.619L360 175v5.55c-3.626.438-4.657 1.216-4.709 6.259-.044 4.394-.01 8.79-.01 13.184V202M114 141.59c2.733-2.583 5.877-1.5 8.176-.372 2.93 1.438 5.253 3.874 7.786 5.93.4.326.53.917 1.038 1.852l-17-7.41M139.043 114c3.179 4.789 3.579 10.514 8.769 13.91v-4.933l.576-.082c1.284 3.1 2.502 6.227 3.872 9.293 1.069 2.39 2.341 4.696 3.482 7.058.174.36.13.817.258 1.754-1.71-1.253-3.211-2.166-4.476-3.317-2.903-2.643-5.922-5.218-8.47-8.158-3.752-4.329-4.225-9.642-4.01-15.525"/></g></g></svg>