<?xml version="1.0" encoding="UTF-8"?>
<svg width="500px" height="300px" viewBox="0 0 500 300" version="1.1" xmlns="http://www.w3.org/2000/svg" xmlns:xlink="http://www.w3.org/1999/xlink">
    <!-- Generator: Sketch 43.1 (39012) - http://www.bohemiancoding.com/sketch -->
    <title>Rectangle</title>
    <desc>Created with Sketch.</desc>
    <defs></defs>
    <g id="Page-1" stroke="none" stroke-width="1" fill="none" fill-rule="evenodd">
        <g id="taskworld" fill-rule="nonzero">
            <rect id="Rectangle" fill-opacity="0" fill="#D8D8D8" x="0" y="0" width="500" height="300"></rect>
            <g id="Page-1" transform="translate(1.000000, 77.000000)">
                <polygon id="Fill-1" fill="#FEFEFE" points="488.085917 71 488.085917 64.7764919 486 64.7764919 486 64 491 64 491 64.7764919 488.906929 64.7764919 488.906929 71"></polygon>
                <polygon id="Fill-2" fill="#FEFEFE" points="497.722404 64 495.49446 69.2701627 493.275011 64 492 64 492 71 492.890144 71 492.890144 65.240868 495.31126 71 495.675443 71 498.109487 65.240868 498.109487 71 499 71 499 64"></polygon>
                <g id="Group-30">
                    <path d="M161.890764,64.2826968 L142.686323,64.2826968 C142.103043,64.2826968 141.630604,64.7518962 141.630604,65.3319354 L141.630604,68.1226518 C141.630604,68.702351 142.103043,69.1715504 142.686323,69.1715504 L149.638127,69.1715504 L149.638127,90.4915628 C149.638127,91.0716021 150.110225,91.5408015 150.693847,91.5408015 L153.841846,91.5408015 C154.425468,91.5408015 154.897565,91.0716021 154.897565,90.4915628 L154.897565,69.1715504 L161.890764,69.1715504 C162.474386,69.1715504 162.946483,68.702351 162.946483,68.1226518 L162.946483,65.3319354 C162.946483,64.7518962 162.474386,64.2826968 161.890764,64.2826968" id="Fill-3" fill="#FEFEFE"></path>
                    <path d="M184.395952,81.068203 L188.228493,71.4377155 L192.03435,81.068203 L184.395952,81.068203 Z M191.145917,64.9382839 C190.985131,64.5428644 190.597532,64.2827648 190.166487,64.2827648 L186.25971,64.2827648 C185.828665,64.2827648 185.441066,64.5428644 185.280279,64.9403239 L175.110345,90.1002913 C174.980347,90.4239709 175.019346,90.7908304 175.215369,91.0798301 C175.41105,91.3684897 175.739123,91.5408695 176.089433,91.5408695 L179.69311,91.5408695 C180.126208,91.5408695 180.513806,91.2783898 180.674593,90.8809303 L182.647481,85.9570567 L193.815662,85.9570567 L195.790945,90.8809303 C195.951732,91.2783898 196.33933,91.5408695 196.772086,91.5408695 L200.378157,91.5408695 L200.431525,91.5408695 C201.013094,91.5408695 201.487244,91.0713301 201.487244,90.4916308 C201.487244,90.2376512 201.396587,90.0061115 201.246064,89.8235317 L191.145917,64.9382839 Z" id="Fill-5" fill="#FEFEFE"></path>
                    <path d="M227.235364,74.8474011 C223.932735,73.9559222 221.928716,73.3024431 221.928716,71.7452451 C221.928716,69.9809874 223.594399,68.7947289 226.072568,68.7947289 C228.713576,68.7947289 231.037116,69.7453677 232.614195,71.4705255 C232.820481,71.6959452 233.119476,71.7636051 233.422576,71.814945 C233.729782,71.806785 234.018171,71.6673852 234.212142,71.4317655 L236.110794,69.1306485 C236.448789,68.720949 236.42621,68.1266298 236.059479,67.7434503 C233.665809,65.2335735 230.288602,63.9055353 226.29938,63.9055353 C220.652343,63.9055353 216.553991,67.2824109 216.553991,71.9336049 C216.553991,77.5867775 221.64409,78.9617358 225.736626,80.0663943 C229.336197,81.0394731 231.542055,81.7402122 231.542055,83.8138695 C231.542055,85.4040474 230.255761,87.1047252 226.641479,87.1047252 C222.934831,87.1047252 220.549371,85.0759478 219.456705,83.8672494 C219.248367,83.6357097 218.943214,83.5003899 218.633956,83.5187499 C218.320593,83.5309898 218.03015,83.6785497 217.838233,83.9243693 L215.97858,86.3013063 C215.665216,86.6987657 215.68369,87.262485 216.022026,87.6415845 C217.795128,89.626842 221.05431,91.9935789 226.526192,91.9935789 C234.189221,91.9935789 236.919175,87.6310445 236.919175,83.5496898 C236.919175,77.4599577 231.321743,75.9496797 227.235364,74.8474011" id="Fill-7" fill="#FEFEFE"></path>
                    <path d="M264.897921,77.2959759 L274.843439,66.0243105 C275.115408,65.7128709 275.181433,65.2742715 275.010383,64.899592 C274.839333,64.5245725 274.46405,64.2828328 274.049768,64.2828328 L270.099545,64.2828328 C269.790287,64.2828328 269.497449,64.4178126 269.297663,64.6493523 L259.960399,75.5031582 L259.960399,65.3317314 C259.960399,64.7520322 259.48796,64.2828328 258.90468,64.2828328 L255.756338,64.2828328 C255.173058,64.2828328 254.700961,64.7520322 254.700961,65.3317314 L254.700961,90.4916988 C254.700961,91.0713981 255.173058,91.5405975 255.756338,91.5405975 L258.90468,91.5405975 C259.48796,91.5405975 259.960399,91.0713981 259.960399,90.4916988 L259.960399,82.4391493 L261.430059,80.7813114 L270.243911,91.167958 C270.443697,91.4035777 270.738587,91.5405975 271.049897,91.5405975 L274.958726,91.5405975 L275.012436,91.5405975 C275.594005,91.5405975 276.068155,91.0713981 276.068155,90.4916988 C276.068155,90.1248393 275.87829,89.8031997 275.591952,89.6145 L264.897921,77.2959759 Z" id="Fill-9" fill="#FEFEFE"></path>
                    <path d="M323.7297,64.2826968 L320.237206,64.2826968 C319.75895,64.2826968 319.33851,64.6043364 319.216723,65.0633358 L314.639773,82.2751335 L309.871248,65.0531358 C309.743303,64.5982164 309.326968,64.2826968 308.852818,64.2826968 L306.232335,64.2826968 C305.758185,64.2826968 305.339456,64.5982164 305.213905,65.0531358 L300.442985,82.2873735 L295.831142,65.0612958 C295.707644,64.6022964 295.288914,64.2826968 294.810659,64.2826968 L291.320217,64.2826968 C290.988381,64.2826968 290.67707,64.4363766 290.476942,64.7005562 C290.279209,64.9630359 290.215236,65.3030354 290.305892,65.618555 L297.51564,90.7785225 C297.643243,91.2293619 298.057867,91.5408015 298.529965,91.5408015 L301.944118,91.5408015 C302.42032,91.5408015 302.836656,91.2252819 302.962548,90.7683225 L307.523077,74.177364 L312.085316,90.7683225 C312.211209,91.2252819 312.627544,91.5408015 313.103746,91.5408015 L316.5179,91.5408015 C316.989997,91.5408015 317.404622,91.2293619 317.532225,90.7785225 L324.744025,65.618555 C324.834681,65.3030354 324.770708,64.9630359 324.572975,64.7005562 C324.372847,64.4363766 324.061536,64.2826968 323.7297,64.2826968" id="Fill-11" fill="#FEFEFE"></path>
                    <path d="M353.221894,87.1045892 C348.292582,87.1045892 344.979348,83.418314 344.979348,77.9310611 C344.979348,72.4438082 348.292582,68.757873 353.221894,68.757873 C358.151206,68.757873 361.46444,72.4438082 361.46444,77.9310611 C361.46444,83.418314 358.151206,87.1045892 353.221894,87.1045892 M353.221894,63.8686793 C345.331711,63.8686793 339.604623,69.7822916 339.604623,77.9310611 C339.604623,86.0801705 345.331711,91.9934429 353.221894,91.9934429 C361.113788,91.9934429 366.841218,86.0801705 366.841218,77.9310611 C366.841218,69.7822916 361.113788,63.8686793 353.221894,63.8686793" id="Fill-13" fill="#FEFEFE"></path>
                    <path d="M399.689853,72.9151836 C399.689853,75.1751607 398.083696,76.6935987 395.694473,76.6935987 L390.109356,76.6935987 L390.109356,69.1717884 L395.694473,69.1717884 C398.120985,69.1717884 399.689853,70.6409265 399.689853,72.9151836 L399.689853,72.9151836 Z M399.199283,80.9697732 C402.324704,80.0827143 405.062526,77.4415977 405.062526,72.9151836 C405.062526,67.8315102 401.368194,64.2825948 396.075914,64.2825948 L385.905637,64.2825948 C385.322016,64.2825948 384.849918,64.7517942 384.849918,65.3318334 L384.849918,90.4914608 C384.849918,91.0715001 385.322016,91.5406995 385.905637,91.5406995 L389.053637,91.5406995 C389.637259,91.5406995 390.109356,91.0715001 390.109356,90.4914608 L390.109356,81.5436924 L393.523509,81.5436924 L399.66317,91.0572201 C399.856798,91.3584597 400.19274,91.5406995 400.551602,91.5406995 L404.272961,91.5406995 C404.285276,91.5366195 404.301697,91.5386595 404.32667,91.5406995 C404.907897,91.5406995 405.382047,91.0715001 405.382047,90.4914608 C405.382047,90.1677813 405.233576,89.8791216 405.002659,89.6863419 L399.199283,80.9697732 Z" id="Fill-15" fill="#FEFEFE"></path>
                    <path d="M439.077995,86.6497038 L428.367543,86.6497038 L428.367543,65.3317314 C428.367543,64.7520322 427.895446,64.2828328 427.312166,64.2828328 L424.163824,64.2828328 C423.580544,64.2828328 423.108447,64.7520322 423.108447,65.3317314 L423.108447,90.4916988 C423.108447,91.0713981 423.580544,91.5405975 424.163824,91.5405975 L439.077995,91.5405975 C439.661274,91.5405975 440.133714,91.0713981 440.133714,90.4916988 L440.133714,87.6989425 C440.133714,87.1189032 439.661274,86.6497038 439.077995,86.6497038" id="Fill-17" fill="#FEFEFE"></path>
                    <path d="M476.014856,77.9311631 C476.014856,82.2709175 473.336901,86.6497718 467.353923,86.6497718 L462.906629,86.6497718 L462.906629,69.1717544 L467.353923,69.1717544 C472.615071,69.1717544 476.014856,72.60983 476.014856,77.9311631 M467.353923,64.2825608 L458.70291,64.2825608 C458.11963,64.2825608 457.647533,64.7517602 457.647533,65.3317994 L457.647533,90.4917668 C457.647533,91.0714661 458.11963,91.5406655 458.70291,91.5406655 L467.353923,91.5406655 C475.616995,91.5406655 481.389582,85.9449527 481.389582,77.9311631 C481.389582,70.0220933 475.486997,64.2825608 467.353923,64.2825608" id="Fill-19" fill="#FEFEFE"></path>
                    <g id="Group-23" fill="#FEFEFE">
                        <path d="M101.309352,92.0672228 C99.4278045,94.1480201 95.8939165,96.6300169 89.7121782,96.6300169 L67.5201823,96.6300169 C61.341865,96.6300169 57.8045559,94.1480201 55.9230086,92.0672228 C52.2796487,88.034828 52.4096465,82.8566347 52.4096465,81.4150366 L52.4096465,66.431256 C52.4096465,64.3028587 51.9238652,62.7898607 50.9249346,61.810662 C49.4949586,60.4064638 47.052368,60.1106642 46.2210662,60.1378641 C46.1526463,60.1412641 46.1458043,60.1412641 46.0808054,60.1412641 L26.1877183,60.1412641 C23.3038193,60.1412641 20.9638586,57.8156671 20.9638586,54.9494709 C20.9638586,52.0798746 23.3038193,49.7542776 26.1877183,49.7542776 L46.0123855,49.7542776 C47.2028918,49.7304776 53.466734,49.8256775 58.1363925,54.2932717 C60.2916194,56.353669 62.8607868,60.1344641 62.8607868,66.431256 L62.8607868,82.1698356 C62.8607868,82.618635 62.8813128,84.2540329 63.7262986,85.1584317 C64.5644424,86.0560306 66.2544141,86.2464303 67.5201823,86.2464303 L89.7121782,86.2464303 C90.9813674,86.2464303 92.667918,86.0560306 93.5094828,85.1584317 C94.3510477,84.2540329 94.3749946,82.601635 94.3749946,82.0916357 L94.3749946,54.9460709 C94.3749946,52.0798746 96.7115343,49.7542776 99.5988543,49.7542776 C102.482753,49.7542776 104.822714,52.0798746 104.822714,54.9460709 L104.822714,81.4150366 C104.822714,82.8872347 104.952712,88.034828 101.309352,92.0672228 L101.309352,92.0672228 Z M41.9277172,86.1852304 C41.9277172,89.0718267 39.5774935,91.4212236 36.6867525,91.4212236 C33.7960116,91.4212236 31.4457879,89.0718267 31.4457879,86.1852304 L31.4457879,75.8220438 C31.4457879,72.9354476 33.7960116,70.5860506 36.6867525,70.5860506 C39.5774935,70.5860506 41.9277172,72.9354476 41.9277172,75.8220438 L41.9277172,86.1852304 Z M73.3769261,60.1956641 C73.3769261,57.3056678 75.7271498,54.9562708 78.6178907,54.9562708 C81.5086317,54.9562708 83.8588554,57.3056678 83.8588554,60.1956641 L83.8588554,70.5554506 C83.8588554,73.4454469 81.5086317,75.7948439 78.6178907,75.7948439 C75.7271498,75.7948439 73.3769261,73.4454469 73.3769261,70.5554506 L73.3769261,60.1956641 Z M124.856062,36.4568948 C124.852641,36.4534948 124.852641,36.4500948 124.852641,36.4500948 C124.794484,36.3446949 124.732906,36.2426951 124.664486,36.1440952 C124.57554,36.0080954 124.483173,35.8754955 124.387386,35.7462957 C124.301861,35.6306959 124.212915,35.521896 124.117127,35.4130961 C124.038444,35.3212963 123.959761,35.2294964 123.874236,35.1444965 C123.860552,35.1308965 123.846868,35.1138965 123.833184,35.1002966 C123.415823,34.6684971 122.936884,34.2910976 122.406629,33.978298 L66.315992,0.930340795 C64.2223429,-0.300457611 61.6429125,-0.303857607 59.5458425,0.9269408 L3.4209952,33.9136981 C1.32392514,35.1444965 0.034209952,37.4190936 0.034209952,39.8840904 L1.12517234e-13,105.915405 C-0.0034209952,107.744602 0.708146007,109.4718 1.93628328,110.743399 C2.04233414,110.852198 2.15180598,110.960998 2.26469882,111.062998 C2.37759167,111.168398 2.4939055,111.266998 2.61706133,111.362198 C2.73337517,111.457398 2.85653099,111.549198 2.97968682,111.630797 C2.98652881,111.637597 2.9933708,111.640997 2.9967918,111.644397 C3.11994762,111.729397 3.24994544,111.810997 3.37994326,111.889197 L59.4740016,144.933754 C61.5676506,146.167953 64.147081,146.167953 66.2407301,144.937154 L122.368998,111.953797 C122.495575,111.878997 122.618731,111.800797 122.738466,111.719197 C122.803465,111.674997 122.868464,111.630797 122.933463,111.576398 C123.220826,111.372398 123.487664,111.141198 123.733975,110.892998 C123.802395,110.824999 123.870815,110.753599 123.932393,110.682199 C123.980287,110.634599 124.02476,110.586999 124.062391,110.535999 C124.144495,110.440799 124.223178,110.345599 124.29844,110.246999 C124.387386,110.134799 124.469489,110.0192 124.548172,109.9002 C124.630276,109.7846 124.705538,109.6622 124.777379,109.5398 C125.355527,108.553801 125.690785,107.425003 125.738679,106.241804 L125.738679,39.1564913 C125.629207,38.1942925 125.324738,37.2762937 124.856062,36.4568948 L124.856062,36.4568948 Z" id="Fill-21"></path>
                    </g>
                    <path d="M125.164601,37.066004 C125.175022,37.0889741 125.186022,37.1119441 125.195864,37.1349142 C125.185443,37.1119441 125.175022,37.0889741 125.164601,37.066004" id="Fill-24" fill="#29B5B8"></path>
                    <path d="M124.856062,36.4568948 C125.048269,36.6540945 125.219056,36.8584343 125.378264,37.066174 C125.220214,36.8580943 125.047111,36.6544345 124.856062,36.4568948" id="Fill-26" fill="#29B5B8"></path>
                    <path d="M125.789994,39.9520903 L125.755784,105.980005 C125.752363,107.255003 125.406842,108.482402 124.777379,109.5398 C125.355527,108.553801 125.690785,107.425003 125.738679,106.241804 L125.738679,39.1564913 C125.657259,38.4411322 125.467394,37.7509331 125.183109,37.106974 C125.575155,37.9875728 125.789994,38.9528316 125.789994,39.9520903" id="Fill-28" fill="#29B5B8"></path>
                </g>
            </g>
        </g>
    </g>
</svg>