<svg width="500" height="300" viewBox="0 0 500 300" xmlns="http://www.w3.org/2000/svg"><title>Rectangle</title><g fill-rule="nonzero" fill="none"><path fill="none" d="M0 0h500v300H0z"/><path fill="#FEFEFE" d="M489.086 148v-6.224H487V141h5v.776h-2.093V148zM498.722 141l-2.228 5.27-2.219-5.27H493v7h.89v-5.76l2.421 5.76h.364l2.434-5.76V148H500v-7zM162.89 141.283h-19.204c-.583 0-1.055.469-1.055 1.049v2.79c0 .58.472 1.05 1.055 1.05h6.952v21.32c0 .58.472 1.049 1.056 1.049h3.148c.583 0 1.056-.47 1.056-1.05v-21.32h6.993c.583 0 1.055-.469 1.055-1.048v-2.791c0-.58-.472-1.05-1.055-1.05M185.396 158.068l3.832-9.63 3.806 9.63h-7.638zm6.75-16.13a1.057 1.057 0 0 0-.98-.655h-3.906c-.431 0-.819.26-.98.657l-10.17 25.16a1.048 1.048 0 0 0 .98 1.44h3.603c.433 0 .82-.262.982-.66l1.972-4.923h11.169l1.975 4.924c.16.397.548.66.981.66H201.432c.581 0 1.055-.47 1.055-1.05 0-.253-.09-.485-.24-.667l-10.101-24.886zM228.235 151.847c-3.302-.891-5.306-1.545-5.306-3.102 0-1.764 1.665-2.95 4.144-2.95 2.64 0 4.964.95 6.541 2.676.206.225.505.293.809.344.307-.008.595-.148.79-.383l1.898-2.301a1.043 1.043 0 0 0-.052-1.388c-2.393-2.51-5.77-3.837-9.76-3.837-5.647 0-9.745 3.376-9.745 8.028 0 5.653 5.09 7.028 9.183 8.132 3.6.973 5.805 1.674 5.805 3.748 0 1.59-1.286 3.29-4.9 3.29-3.707 0-6.093-2.028-7.185-3.237a1.038 1.038 0 0 0-.823-.348 1.06 1.06 0 0 0-.796.405l-1.86 2.377c-.313.398-.294.961.044 1.34 1.773 1.986 5.032 4.353 10.504 4.353 7.663 0 10.393-4.363 10.393-8.444 0-6.09-5.597-7.6-9.684-8.703M265.898 154.296l9.945-11.272c.272-.311.338-.75.167-1.124a1.056 1.056 0 0 0-.96-.617h-3.95c-.31 0-.603.135-.802.366l-9.338 10.854v-10.171c0-.58-.472-1.05-1.055-1.05h-3.149c-.583 0-1.055.47-1.055 1.05v25.16c0 .58.472 1.049 1.055 1.049h3.149c.583 0 1.055-.47 1.055-1.05v-8.052l1.47-1.658 8.814 10.387c.2.236.495.373.806.373H276.012c.582 0 1.056-.47 1.056-1.05 0-.366-.19-.688-.476-.877l-10.694-12.318zM324.73 141.283h-3.493c-.478 0-.898.321-1.02.78l-4.577 17.212-4.769-17.222a1.058 1.058 0 0 0-1.018-.77h-2.62c-.475 0-.894.315-1.02.77l-4.77 17.234-4.612-17.226a1.055 1.055 0 0 0-1.02-.778h-3.49a1.046 1.046 0 0 0-1.014 1.336l7.209 25.16c.127.45.542.762 1.014.762h3.414c.476 0 .893-.316 1.019-.773l4.56-16.59 4.562 16.59c.126.457.543.773 1.019.773h3.414c.472 0 .887-.312 1.014-.762l7.212-25.16a1.046 1.046 0 0 0-1.014-1.336M354.222 164.105c-4.93 0-8.243-3.687-8.243-9.174s3.314-9.173 8.243-9.173c4.93 0 8.242 3.686 8.242 9.173s-3.313 9.174-8.242 9.174m0-23.236c-7.89 0-13.617 5.913-13.617 14.062 0 8.15 5.727 14.062 13.617 14.062 7.892 0 13.62-5.913 13.62-14.062s-5.728-14.062-13.62-14.062M400.69 149.915c0 2.26-1.606 3.779-3.996 3.779h-5.585v-7.522h5.585c2.427 0 3.996 1.469 3.996 3.743zm-.49 8.055c3.125-.887 5.863-3.528 5.863-8.055 0-5.083-3.695-8.632-8.987-8.632h-10.17c-.584 0-1.056.469-1.056 1.049v25.16c0 .58.472 1.049 1.056 1.049h3.148c.583 0 1.055-.47 1.055-1.05v-8.947h3.415l6.14 9.513c.193.301.529.484.888.484h3.721c.012-.004.029-.002.054 0a1.047 1.047 0 1 0 .676-1.854l-5.804-8.717zM440.078 163.65h-10.71v-21.318c0-.58-.473-1.05-1.056-1.05h-3.148c-.583 0-1.056.47-1.056 1.05v25.16c0 .58.473 1.049 1.056 1.049h14.914c.583 0 1.056-.47 1.056-1.05V164.7c0-.58-.473-1.05-1.056-1.05M477.015 154.931c0 4.34-2.678 8.719-8.661 8.719h-4.447v-17.478h4.447c5.261 0 8.66 3.438 8.66 8.76m-8.66-13.65h-8.651c-.583 0-1.055.47-1.055 1.05v25.16c0 .58.472 1.049 1.055 1.049h8.65c8.264 0 14.037-5.596 14.037-13.61 0-7.909-5.903-13.648-14.036-13.648M102.31 169.067c-1.882 2.081-5.416 4.563-11.598 4.563H68.52c-6.178 0-9.715-2.482-11.597-4.563-3.643-4.032-3.513-9.21-3.513-10.652v-14.984c0-2.128-.486-3.641-1.485-4.62-1.43-1.405-3.873-1.7-4.704-1.673-.068.003-.075.003-.14.003H27.188c-2.884 0-5.224-2.325-5.224-5.192 0-2.87 2.34-5.195 5.224-5.195h19.824c1.19-.024 7.455.072 12.124 4.54 2.156 2.06 4.725 5.84 4.725 12.137v15.739c0 .449.02 2.084.865 2.988.838.898 2.528 1.088 3.794 1.088h22.192c1.27 0 2.956-.19 3.797-1.088.842-.904.866-2.556.866-3.066v-27.146c0-2.866 2.337-5.192 5.224-5.192 2.884 0 5.224 2.326 5.224 5.192v26.469c0 1.472.13 6.62-3.514 10.652zm-59.382-5.882a5.244 5.244 0 0 1-5.241 5.236 5.244 5.244 0 0 1-5.241-5.236v-10.363a5.244 5.244 0 0 1 5.24-5.236c2.891 0 5.242 2.35 5.242 5.236v10.363zm31.449-25.99c0-2.89 2.35-5.239 5.24-5.239 2.892 0 5.242 2.35 5.242 5.24v10.36c0 2.89-2.35 5.239-5.241 5.239a5.245 5.245 0 0 1-5.241-5.24v-10.36zm51.48-23.738c-.004-.004-.004-.007-.004-.007a8.248 8.248 0 0 0-.465-.704 5.009 5.009 0 0 0-.27-.333c-.08-.092-.158-.184-.244-.269l-.04-.044a6.753 6.753 0 0 0-1.427-1.122L67.316 77.93a6.668 6.668 0 0 0-6.77-.003L4.42 110.914c-2.097 1.23-3.387 3.505-3.387 5.97L1 182.915a6.93 6.93 0 0 0 2.98 5.716c.007.007.013.01.017.013.123.085.253.167.383.245l56.094 33.045a6.654 6.654 0 0 0 6.767.003l56.128-32.983c.127-.075.25-.153.37-.235.064-.044.13-.088.194-.143a6.138 6.138 0 0 0 1-.894c.047-.047.092-.095.13-.146a6.231 6.231 0 0 0 .485-.636c.082-.115.158-.238.23-.36a7.077 7.077 0 0 0 .96-3.298v-67.086a7.042 7.042 0 0 0-.882-2.7z"/><path d="M126.165 114.066l.03.069-.03-.069M126.79 116.952l-.034 66.028a6.993 6.993 0 0 1-.979 3.56 7.077 7.077 0 0 0 .962-3.298v-67.086a7.048 7.048 0 0 0-.556-2.049c.392.88.607 1.846.607 2.845" fill="#29B5B8"/></g></svg>