<?xml version="1.0" encoding="UTF-8"?>
<svg width="500px" height="300px" viewBox="0 0 500 300" version="1.1" xmlns="http://www.w3.org/2000/svg" xmlns:xlink="http://www.w3.org/1999/xlink">
    <!-- Generator: Sketch 43.1 (39012) - http://www.bohemiancoding.com/sketch -->
    <title>Rectangle Copy 8</title>
    <desc>Created with Sketch.</desc>
    <defs></defs>
    <g id="Page-1" stroke="none" stroke-width="1" fill="none" fill-rule="evenodd">
        <g id="Group-5">
            <rect id="Rectangle-Copy-8" fill-opacity="0" fill="#D8D8D8" x="0" y="0" width="500" height="300"></rect>
            <g id="Page-1" transform="translate(26.000000, 109.000000)" fill="#FFFFFF">
                <path d="M165.572967,27.7223215 C165.5709,40.7181155 165.571934,53.7139094 165.564184,66.7091902 C165.562118,69.9032284 164.879148,70.6555516 161.684376,70.7705041 C159.709341,70.8408099 157.723458,70.8172036 155.75049,70.699172 C153.960405,70.5924303 152.996394,69.6774287 153.00001,67.7293939 C153.034107,47.8087364 153.00466,27.8875658 153.050639,7.9663951 C153.057355,4.9222058 154.646475,3.40524296 157.691427,3.32262083 C160.701766,3.24102506 163.715722,3.31030449 166.728127,3.29696178 C170.497896,3.28053999 172.698693,5.5062057 174.321393,8.53807866 C178.182087,15.7508367 181.998868,22.987201 185.887976,30.1845636 C189.52549,36.9159579 193.000786,43.7263821 196.575273,51.3707253 C196.575273,47.991942 196.584572,45.3439284 196.573723,42.6959148 C196.526711,30.8147498 196.46575,18.9335848 196.429587,7.05241985 C196.420288,4.05133775 197.093442,3.27848727 200.125996,3.08142579 C202.094314,2.95415692 204.088463,2.97827642 206.054715,3.13838887 C208.024584,3.2990145 209.007193,4.3166523 208.99996,6.51460624 C208.932283,26.0934852 208.969996,45.6728774 208.949332,65.2517564 C208.945199,68.8676292 207.227957,70.5749822 203.615757,70.7433055 C203.529998,70.7468978 203.441656,70.7330419 203.357964,70.7458714 C195.384467,71.964163 190.553046,68.7957839 187.038486,61.3767271 C180.552852,47.6881389 172.450716,34.7862571 166.1118,20.9940063 C165.467577,20.7646144 165.378201,21.2157004 165.3937,21.6421538 C165.467577,23.6681921 165.14314,25.70706 165.572967,27.7223215" id="Fill-1"></path>
                <path d="M293.494514,25.825651 C293.518276,39.0590322 293.543072,52.2929193 293.564768,65.5263004 C293.569934,68.9340706 292.88495,69.6449715 289.426965,69.8488811 C281.254158,70.3315853 280.999484,70.1028827 281.000001,62.2364234 C281.000517,44.9557143 281.001034,27.6744992 281.00465,10.3937901 C281.005683,4.12926108 281.798633,3.34195737 288.07456,3.34549923 C289.881555,3.34651119 291.698366,3.46592229 293.494514,3.32627202 C297.632317,3.00396324 300.364507,4.84825758 302.212312,8.33344261 C309.261042,21.6265293 316.861996,34.6382915 323.378132,48.2030891 C323.621441,48.7095743 323.697895,49.326363 324.503759,49.7220388 C324.503759,47.2280671 324.503242,44.8464228 324.503759,42.4647785 C324.505309,30.579326 324.566782,18.6928616 324.459333,6.80791519 C324.437637,4.43942635 325.340101,3.39204932 327.617701,3.15778093 C329.681437,2.94577562 331.737941,2.95741315 333.800127,3.13298795 C336.087542,3.32829593 337.014802,4.43031873 336.999822,6.7785684 C336.915103,19.928463 336.963144,33.0788635 336.963661,46.229264 C336.964178,52.2144925 336.982774,58.199721 336.95023,64.1844435 C336.92905,68.0389934 335.243967,69.6586329 331.260105,69.7638766 C330.485752,69.7846218 329.698484,69.6834259 328.938079,69.7866457 C322.653887,70.6382087 318.859609,67.8426734 316.105206,62.392771 C309.436679,49.1973383 301.763921,36.5063669 295.269998,23.2158101 C294.862933,22.3829683 294.48428,21.537477 294.092196,20.6975514 C293.706828,20.2603853 293.382416,20.2786006 293.366402,20.8938714 C293.323526,22.5383039 293.102946,24.1913381 293.494514,25.825651" id="Fill-3"></path>
                <path d="M111.959446,36.5954072 C111.959962,46.4689256 111.96409,56.3424439 111.957381,66.2159623 C111.955317,69.1999432 111.505813,69.7483314 108.444954,69.9194811 C106.131892,70.0491094 103.802316,70.0020179 101.48461,69.9194811 C99.1498726,69.8364381 97.9587645,68.7882724 97.9964382,66.253433 C98.1104915,58.5754926 98.0067598,50.8950205 98.0671409,43.2160674 C98.0790107,41.7314191 97.9391535,40.9951714 96.0606295,41.0290975 C89.0099713,41.1556875 81.9546684,41.1526494 74.9040102,41.0311229 C73.0440649,40.9992222 72.8495035,41.7126838 72.8618894,43.2221437 C72.9222705,50.817041 72.8897576,58.4119383 72.8887254,66.0068355 C72.8887254,69.3128616 72.4794756,69.7999801 69.0733605,69.9387228 C66.7572022,70.0329058 64.4286581,70.0015115 62.1130159,69.8875804 C60.0032889,69.7837766 58.9933242,68.7361172 59.0000332,66.4858523 C59.0568018,46.4856355 59.0485445,26.4854186 59.005194,6.48520173 C59.0010654,4.52913211 59.746282,3.46526924 61.7202806,3.24702797 C64.5504525,2.93409734 67.3847531,2.94624999 70.213893,3.21917816 C72.1605393,3.40754417 72.951687,4.42380918 72.9243348,6.4295021 C72.8283443,13.4324643 72.9403332,20.4379582 72.8515678,27.4414267 C72.8298925,29.1073519 73.3103612,29.5721906 75.0123866,29.5488981 C81.9778919,29.4542087 88.9470098,29.4329416 95.9109668,29.5595316 C97.8514203,29.5949768 98.0965573,28.9017697 98.0748821,27.2545798 C97.9856006,20.5047978 98.0315315,13.7529903 98.0428852,7.00168917 C98.0475299,4.15189373 98.7241082,3.35741451 101.574407,3.14828773 C104.14396,2.96042808 106.727446,2.90979205 109.297515,3.24398981 C111.22197,3.49362541 112.017762,4.44811447 111.9997,6.4689982 C111.910418,16.5106282 111.95893,26.5532709 111.959446,36.5954072" id="Fill-5"></path>
                <path d="M236.741214,37.0678506 C236.741214,47.6096876 236.743765,57.3462134 236.739683,67.0827391 C236.738153,70.0235861 236.187118,70.6940808 233.240104,70.8365865 C230.867595,70.9508987 228.479779,70.9191168 226.106249,70.8012164 C224.033237,70.6976691 222.991884,69.6975658 223.000048,67.3610867 C223.068927,47.1186067 223.062804,26.8761267 223.003619,6.63364672 C222.998007,4.59448175 223.833742,3.56003356 225.691443,3.33704795 C228.4808,3.00282584 231.291075,2.99154841 234.085024,3.3247453 C235.939663,3.54619308 236.817747,4.45300123 236.788664,6.55829296 C236.671825,14.9271736 236.740704,23.2981047 236.740704,31.6685232 L236.740704,33.7733023 C242.928617,24.7610954 248.708356,16.3055835 254.537586,7.88492919 C255.720269,6.17691068 256.489166,3.8860539 258.874941,3.48621764 C262.403603,2.89517761 265.998082,2.69987298 269.470109,3.72970767 C271.54057,4.34330256 271.149744,6.00159785 270.371152,7.48406771 C268.619067,10.8221879 266.117983,13.6353949 263.876599,16.6259651 C259.893845,21.9412245 255.873334,27.2293154 251.792108,32.4681957 C250.791572,33.7522853 250.564015,34.6411521 251.589551,36.1584794 C257.542764,44.9656422 263.359749,53.8655874 269.184388,62.7593813 C270.110942,64.1736739 270.934432,65.6740852 271.638532,67.211917 C272.428348,68.9383895 271.950274,70.2675888 269.94308,70.600273 C266.485849,71.1733717 263.001577,71.0672613 259.538223,70.6771646 C257.845323,70.4869861 257.048364,69.0516764 256.222833,67.7481077 C250.397174,58.5498231 244.569475,49.3525637 238.740245,40.1563295 C238.214211,39.3259003 237.67236,38.5052108 236.741214,37.0678506" id="Fill-7"></path>
                <path d="M352.003115,36.2339422 C352.003115,27.0528395 351.993876,17.8712265 352.007221,8.69012382 C352.013893,3.97582075 352.950092,3.05367898 357.695755,3.05010677 C367.870238,3.04245202 378.045748,3.11542727 388.219205,3.00060607 C390.533524,2.97406962 391.544659,3.81660203 391.668357,5.98952934 C391.711471,6.75143175 391.817204,7.51180321 391.81977,8.27319531 C391.837735,13.1533512 391.385547,13.5891614 386.4664,13.5855892 C380.31028,13.5815067 374.153134,13.6483581 367.998555,13.5503774 C366.179025,13.5212894 365.660625,14.1193802 365.710412,15.8748687 C365.822818,19.867074 365.813579,23.8664238 365.704766,27.8591395 C365.661652,29.4349966 366.150795,29.9055083 367.723444,29.8825441 C373.280068,29.8008934 378.839258,29.9172456 384.395369,29.8202854 C386.739971,29.7789498 387.968731,30.6357711 387.985669,33.0163972 C387.987722,33.2705348 388.020571,33.5251826 388.046748,33.7788099 C388.661641,39.7035835 387.981563,40.4598725 382.058466,40.4547693 C377.355918,40.4506868 372.652343,40.502739 367.950821,40.4256813 C366.400243,40.4006758 365.654466,40.675226 365.701174,42.4771533 C365.824357,47.2348332 365.83103,51.9996576 365.700147,56.7568273 C365.647794,58.654694 366.194423,59.248192 368.129951,59.2175731 C374.797284,59.1114272 381.467696,59.169093 388.137083,59.188485 C391.311636,59.1976707 391.863911,59.7263585 391.963485,62.8954235 C392.226277,71.236035 391.177674,69.9178877 385.287426,69.9316663 C376.13845,69.9530996 366.989986,69.9444242 357.841009,69.9347282 C353.073789,69.929625 352.010814,68.853878 352.005681,64.0324085 C351.996442,54.7665933 352.003115,45.5002677 352.003115,36.2339422" id="Fill-9"></path>
                <path d="M429.927377,41.4671052 C429.926347,49.6967266 429.831006,57.9278761 429.983035,66.1544409 C430.030448,68.7122205 428.960576,69.7427698 426.624482,69.8701239 C423.970416,70.0147981 421.317381,70.1115872 418.662284,69.7499016 C416.783823,69.4941746 416.027801,68.5089634 416.067483,66.662329 C416.133964,63.5243243 416.083459,60.3842818 416.083459,57.2452582 C416.082944,43.7559129 416.040169,30.2660583 416.12881,16.776713 C416.142725,14.7084826 415.641802,13.9392639 413.440215,14.0217894 C409.155058,14.1817461 404.858048,14.0156764 400.568252,14.0976924 C398.389856,14.1389551 397.399864,13.1568004 397.305039,11.1007959 C397.301432,11.0162328 397.287517,10.9321791 397.278241,10.847616 C396.482536,3.57824454 396.993251,3.00260405 404.234471,3.00209464 C417.795461,3.00209464 431.35645,2.99598164 444.916924,3.00464172 C448.170346,3.00616997 448.547584,3.368365 448.864526,6.57412216 C448.881017,6.74273898 448.897508,6.91186521 448.907815,7.08099144 C449.292784,13.4206781 448.718681,14.0406378 442.332946,14.0742592 C439.157859,14.09107 435.971433,14.2250465 432.81026,14.0141481 C430.351512,13.8506255 429.844405,14.7910081 429.878934,17.0339683 C430.003649,25.1764794 429.928408,33.3225565 429.927377,41.4671052" id="Fill-11"></path>
                <path d="M32.8111217,41.5292679 C32.8095731,49.8387883 32.7213046,58.1498365 32.8632569,66.4573198 C32.9061006,68.9562361 31.7689342,69.8504886 29.5679003,69.9233121 C27.2512398,69.9991912 24.9247717,70.0465519 22.6117246,69.9289139 C19.4211545,69.7659522 18.9653588,69.233271 18.963294,66.042786 C18.9524541,49.6783728 18.9173531,33.3129412 19.0071702,16.9490374 C19.0190426,14.8015074 18.6282868,13.9479953 16.2300683,14.0860035 C12.375678,14.3080389 8.4985753,14.1476234 4.63076404,14.1476234 C4.02940276,14.1476234 3.42442814,14.1797065 2.82668019,14.1318365 C0.435172171,13.9423935 -0.0965034718,12.739023 0.0134449864,7.83132866 C0.103262037,3.82247013 0.534280641,3.03821681 2.97895622,3.03363351 C18.2772776,3.00766149 33.575599,3.04076309 48.8739204,3.00002265 C50.7435604,2.9949301 51.533331,3.84844215 51.6959308,5.53662381 C51.7041899,5.62116021 51.7062546,5.70620586 51.7145137,5.790233 C52.5166728,13.6847103 52.0990752,14.1455864 44.1409748,14.1455864 C41.2188235,14.1455864 38.290478,14.2591503 35.3765857,14.1058645 C33.4000944,14.0024856 32.724918,14.5081762 32.7584703,16.6012159 C32.8906149,24.9086993 32.8126703,33.2197475 32.8111217,41.5292679" id="Fill-13"></path>
                <path d="M138.961178,45.2108719 C138.959679,52.3318656 138.891218,59.4538773 138.999156,66.5733441 C139.034136,68.9054428 137.981243,69.8633236 135.930925,69.9340704 C133.604266,70.0144876 131.269112,70.0338284 128.945452,69.9208372 C127.068034,69.8297316 125.989156,69.0113085 126.002148,66.7377413 C126.0851,52.3262669 126.0866,37.9142836 126.000149,23.5033182 C125.985658,21.162567 127.026058,20.2174105 129.037399,20.1049282 C131.187659,19.9848113 133.352411,19.9613987 135.502672,20.0682824 C138.291564,20.2067221 138.956181,20.9991878 138.959679,23.8478906 C138.968174,30.9688844 138.962677,38.0898781 138.961178,45.2108719" id="Fill-15"></path>
                <path d="M132.970992,2.41996236e-06 C139.78814,0.0025912755 142.87629,5.06949932 139.819131,11.1683252 C139.316434,12.1707301 138.596268,12.8598834 137.586671,13.2031656 C134.439163,14.2749518 131.245431,14.2304235 128.086893,13.2803135 C126.867181,12.9132138 126.009391,11.9817436 125.615952,10.7794791 C125.324419,9.88994833 125.127963,8.9460516 125.0581,8.01406361 C124.612658,2.07160462 126.679129,-0.00258643557 132.970992,2.41996236e-06" id="Fill-17"></path>
            </g>
        </g>
    </g>
</svg>