<svg width="500" height="300" viewBox="0 0 500 300" xmlns="http://www.w3.org/2000/svg"><title>Rectangle Copy 8</title><g fill="none" fill-rule="evenodd"><path fill="none" d="M0 0h500v300H0z"/><g fill="#FFF"><path d="M191.573 136.722c-.002 12.996-.001 25.992-.009 38.987-.002 3.194-.685 3.947-3.88 4.062a62.36 62.36 0 0 1-5.934-.072c-1.79-.107-2.754-1.022-2.75-2.97.034-19.92.005-39.841.05-59.763.007-3.044 1.596-4.56 4.641-4.643 3.01-.082 6.025-.013 9.037-.026 3.77-.016 5.97 2.21 7.593 5.241 3.861 7.213 7.678 14.45 11.567 21.647a401.357 401.357 0 0 1 10.687 21.186c0-3.38.01-6.027-.001-8.675-.047-11.881-.108-23.762-.144-35.644-.01-3 .663-3.774 3.696-3.97a40.827 40.827 0 0 1 5.929.056c1.97.161 2.952 1.179 2.945 3.377-.068 19.578-.03 39.158-.05 58.737-.005 3.616-1.722 5.323-5.334 5.491-.086.004-.174-.01-.258.003-7.974 1.218-12.805-1.95-16.32-9.37-6.485-13.688-14.587-26.59-20.926-40.382-.644-.23-.734.222-.718.648.074 2.026-.25 4.065.179 6.08M319.495 134.826c.023 13.233.048 26.467.07 39.7.005 3.408-.68 4.119-4.138 4.323-8.173.483-8.428.254-8.427-7.613 0-17.28.001-34.562.005-51.842 0-6.265.794-7.052 7.07-7.049 1.807.002 3.623.12 5.42-.019 4.137-.322 6.87 1.522 8.717 5.007 7.049 13.294 14.65 26.305 21.166 39.87.243.507.32 1.123 1.126 1.519v-7.257c.001-11.886.063-23.772-.045-35.657-.021-2.369.881-3.416 3.159-3.65 2.063-.212 4.12-.2 6.182-.025 2.288.195 3.215 1.297 3.2 3.646-.085 13.15-.037 26.3-.036 39.45 0 5.985.019 11.97-.014 17.955-.02 3.855-1.706 5.475-5.69 5.58-.774.02-1.562-.08-2.322.023-6.284.851-10.078-1.944-12.833-7.394-6.668-13.196-14.341-25.887-20.835-39.177-.407-.833-.786-1.679-1.178-2.518-.385-.438-.71-.42-.726.196-.042 1.644-.263 3.297.129 4.932M137.96 145.595c0 9.874.004 19.747-.003 29.621-.002 2.984-.451 3.532-3.512 3.703-2.313.13-4.643.083-6.96 0-2.335-.083-3.526-1.13-3.489-3.666.114-7.678.01-15.358.071-23.037.012-1.485-.128-2.22-2.006-2.187a601.38 601.38 0 0 1-21.157.002c-1.86-.032-2.054.682-2.042 2.191.06 7.595.028 15.19.027 22.785 0 3.306-.41 3.793-3.816 3.932a77.64 77.64 0 0 1-6.96-.051c-2.11-.104-3.12-1.152-3.113-3.402.057-20 .049-40 .005-60-.004-1.957.741-3.02 2.715-3.239 2.83-.313 5.665-.3 8.494-.028 1.947.189 2.738 1.205 2.71 3.21-.096 7.003.016 14.009-.072 21.012-.022 1.666.458 2.131 2.16 2.108 6.966-.095 13.935-.116 20.899.01 1.94.036 2.186-.657 2.164-2.304-.09-6.75-.043-13.502-.032-20.253.005-2.85.681-3.645 3.531-3.854 2.57-.188 5.153-.238 7.724.096 1.924.25 2.72 1.204 2.702 3.225-.09 10.042-.041 20.084-.04 30.126M262.741 146.068c0 10.542.003 20.278-.001 30.015-.002 2.94-.553 3.611-3.5 3.754-2.372.114-4.76.082-7.134-.036-2.073-.103-3.114-1.103-3.106-3.44.069-20.242.063-40.485.004-60.727-.006-2.04.83-3.074 2.687-3.297 2.79-.334 5.6-.345 8.394-.012 1.855.221 2.733 1.128 2.704 3.233-.117 8.37-.048 16.74-.048 25.11v2.105c6.188-9.012 11.967-17.467 17.797-25.888 1.182-1.708 1.951-3.999 4.337-4.399 3.529-.59 7.123-.786 10.595.244 2.07.613 1.68 2.272.901 3.754-1.752 3.338-4.253 6.151-6.494 9.142a1061.97 1061.97 0 0 1-12.085 15.842c-1 1.284-1.228 2.173-.202 3.69 5.953 8.808 11.77 17.708 17.594 26.601a33.908 33.908 0 0 1 2.455 4.453c.79 1.726.311 3.056-1.696 3.388-3.457.573-6.941.467-10.405.077-1.693-.19-2.49-1.625-3.315-2.929a86450.923 86450.923 0 0 0-17.483-27.592c-.526-.83-1.068-1.65-1.999-3.088M378.003 145.234c0-9.181-.01-18.363.004-27.544.007-4.714.943-5.636 5.689-5.64 10.174-.008 20.35.065 30.523-.05 2.315-.026 3.326.817 3.45 2.99.042.761.148 1.522.15 2.283.019 4.88-.433 5.316-5.353 5.313-6.156-.004-12.313.062-18.467-.036-1.82-.029-2.338.57-2.289 2.325.113 3.992.104 7.991-.005 11.984-.043 1.576.446 2.047 2.018 2.024 5.557-.082 11.116.034 16.672-.063 2.345-.041 3.574.816 3.59 3.196.003.255.036.51.062.763.615 5.925-.065 6.68-5.989 6.676-4.702-.004-9.406.048-14.107-.03-1.55-.024-2.297.25-2.25 2.052.123 4.758.13 9.523 0 14.28-.053 1.898.493 2.491 2.429 2.46 6.667-.106 13.338-.048 20.007-.029 3.175.01 3.727.538 3.826 3.707.263 8.341-.785 7.023-6.676 7.037-9.149.021-18.297.012-27.446.003-4.767-.005-5.83-1.081-5.835-5.903-.01-9.265-.003-18.532-.003-27.798M455.927 150.467c0 8.23-.096 16.46.056 24.687.047 2.558-1.022 3.589-3.359 3.716-2.654.145-5.307.242-7.962-.12-1.878-.256-2.634-1.241-2.595-3.088.067-3.138.016-6.278.016-9.417 0-13.49-.043-26.979.046-40.468.014-2.069-.487-2.838-2.689-2.755-4.285.16-8.582-.006-12.872.076-2.178.041-3.168-.941-3.263-2.997-.004-.085-.017-.169-.027-.253-.795-7.27-.285-7.845 6.956-7.846 13.561 0 27.122-.006 40.683.003 3.253.001 3.63.363 3.948 3.57.016.168.033.337.043.506.385 6.34-.19 6.96-6.575 6.993-3.175.017-6.362.151-9.523-.06-2.458-.163-2.966.777-2.931 3.02.125 8.142.05 16.289.048 24.433M58.811 150.53c-.001 8.309-.09 16.62.052 24.927.043 2.5-1.094 3.393-3.295 3.466-2.317.076-4.643.124-6.956.006-3.19-.163-3.647-.696-3.649-3.886-.01-16.365-.046-32.73.044-49.094.012-2.147-.379-3.001-2.777-2.863-3.854.222-7.731.062-11.6.062-.6 0-1.206.032-1.803-.016-2.392-.19-2.924-1.393-2.814-6.3.09-4.01.521-4.794 2.966-4.798 15.298-.026 30.597.007 45.895-.034 1.87-.005 2.66.848 2.822 2.537.008.084.01.17.019.253.802 7.895.384 8.356-7.574 8.356-2.922 0-5.85.113-8.764-.04-1.977-.104-2.652.402-2.619 2.495.133 8.308.055 16.619.053 24.928M164.961 154.21c-.001 7.122-.07 14.244.038 21.363.035 2.332-1.018 3.29-3.068 3.361-2.327.08-4.662.1-6.986-.013-1.877-.091-2.956-.91-2.943-3.183.083-14.412.085-28.824-.002-43.235-.014-2.34 1.026-3.286 3.037-3.398 2.15-.12 4.315-.144 6.466-.037 2.789.139 3.453.931 3.457 3.78.008 7.12.003 14.242.001 21.363M158.971 109c6.817.003 9.905 5.07 6.848 11.168-.503 1.003-1.223 1.692-2.232 2.035-3.148 1.072-6.342 1.027-9.5.077-1.22-.367-2.078-1.298-2.471-2.5a11.797 11.797 0 0 1-.558-2.766c-.445-5.942 1.621-8.017 7.913-8.014"/></g></g></svg>