<svg width="500" height="300" viewBox="0 0 500 300" xmlns="http://www.w3.org/2000/svg" xmlns:xlink="http://www.w3.org/1999/xlink"><title>Rectangle Copy 11</title><defs><path d="M127.466 23.382c27.693 28.722 26.77 74.736-2 102.404-23.637 22.73-58.891 26.62-86.514 11.688l-.036-.02a7.756 7.756 0 0 0-4.666-.859l-17.707 2.288c-4.607 0-8.342-3.695-8.342-8.254l2.29-17.14c.15-1.127.127-2.283-.186-3.379a7.897 7.897 0 0 0-.677-1.644C-5.632 80.844-1.45 45.509 22.187 22.123 51.333-6.71 98.853-6.292 127.466 23.383zm-7.362 28.12l-.11-.001c-2.51 0-4.137 1.72-4.244 4.491-.02.531-.006 37.023.016 40.237.018 2.698 1.587 4.405 4.095 4.455h.11c2.51 0 4.136-1.72 4.243-4.49.02-.533.006-37.023-.016-40.237-.019-2.699-1.588-4.406-4.094-4.454zm-.276-5.1h.13c2.993 0 4.931-2.055 5.06-5.435-.022-3.22-1.892-5.256-4.881-5.316h-.13c-2.994 0-4.933 2.054-5.06 5.435.022 3.22 1.892 5.256 4.88 5.315zm-80.432 3.972l-.034.002H38.36l-.035-.002c-11.975 0-21.423 8.958-21.423 20.323v25.528c0 2.796 2.145 4.24 4.286 4.24 2.14 0 4.186-1.444 4.186-4.24V70.407c0-6.451 5.261-11.942 12.951-11.942l.035.002h1.002l.034-.002c7.69 0 12.951 5.491 12.951 11.942v25.818c0 2.796 2.046 4.24 4.187 4.24 2.14 0 4.285-1.444 4.285-4.24V70.697c0-11.365-9.447-20.323-21.423-20.323zm58.978 30.608c0 6.005-6.132 11.272-13.12 11.272-6.492 0-8.806-3.176-8.806-6.147 0-2.437 1.78-5.483 6.796-6.047l15.13-1.808v2.73zM87.94 51.502c-5.725 0-10.165 1.164-13.573 3.56-3.387 2.382-5.1 6.195-5.168 6.35-1.22 2.635-.476 5.002 1.943 6.174.71.345 1.423.52 2.118.52 1.713 0 3.197-1.043 4.183-2.942.008-.017.855-1.708 2.11-2.96 1.918-1.909 4.514-2.687 8.962-2.687 5.897 0 9.86 2.433 9.86 6.052v2.885c0 1.648-1.076 2.703-2.885 2.822L81.768 72.51c-3.373.292-14.382 2.134-14.382 13.597 0 8.563 6.795 14.543 16.524 14.543 6.284 0 11.51-1.714 14.536-4.731.347 2.34 1.942 3.782 4.327 3.83h.118c2.696 0 4.442-1.848 4.558-4.839V68.796c0-11.314-6.747-17.294-19.51-17.294z" id="a"/><path id="b" d="M0 .36v49.448h68.9V.359H0z"/></defs><g fill="none" fill-rule="evenodd"><path fill="none" d="M0 0h500v300H0z"/><use fill="#FFF" xlink:href="#a" transform="translate(297 77)"/><g transform="translate(56 128)"><mask id="c" fill="#fff"><use xlink:href="#b"/></mask><path d="M22.721 46.413c-.872 2.23-1.744 3.395-3.875 3.395-2.134 0-3.2-1.165-3.973-3.297L.33 6.178C-.635 3.56.623 1.618 2.661.746c1.936-.774 4.458-.482 5.425 2.23l10.567 30.64L30.574 3.56c.872-2.135 2.324-3.2 3.875-3.2 1.55 0 3.007 1.065 3.879 3.2l11.921 30.055L60.813 2.976c.97-2.712 3.492-3.004 5.43-2.23 2.035.872 3.294 2.814 2.323 5.432L54.03 46.511c-.777 2.132-1.842 3.297-3.974 3.297-1.55 0-3.006-1.165-3.879-3.395L34.45 16.453l-11.728 29.96z" fill="#FFF" mask="url(#c)"/></g><path d="M169.608 153.5c0-9.817-5.98-17.417-16.108-17.417s-16.108 7.6-16.108 17.417c0 9.813 5.98 17.512 16.108 17.512s16.108-7.699 16.108-17.512m-40.608 0c0-13.57 8.969-25.5 24.5-25.5 15.527 0 24.5 11.93 24.5 25.5 0 13.66-8.973 25.5-24.5 25.5-15.531 0-24.5-11.84-24.5-25.5M210.536 128l-.034.002h-1.004l-.034-.002C197.465 128 188 136.941 188 148.286v25.482c0 2.79 2.15 4.232 4.293 4.232 2.145 0 4.195-1.441 4.195-4.232v-25.771c0-6.44 5.27-11.92 12.976-11.92h1.072c7.705 0 12.976 5.48 12.976 11.92v25.771c0 2.79 2.05 4.232 4.195 4.232 2.144 0 4.293-1.441 4.293-4.232v-25.482c0-11.345-9.465-20.286-21.464-20.286M279.597 153.81c0-9.937-4.923-17.63-15.064-17.63s-16.13 7.693-16.13 17.63c0 9.932 5.989 17.724 16.13 17.724 10.14 0 15.064-7.792 15.064-17.725m8.403-2.135v21.712c0 13.73-8.69 25.614-24.242 25.614-8.112 0-14.392-2.145-18.93-7.403-1.836-2.145-1.16-4.48.484-5.845 1.545-1.459 3.96-1.558 5.89.39 2.415 2.433 5.99 4.868 12.556 4.868 9.949 0 15.839-7.497 15.839-17.141v-.29c-3.96 3.8-9.272 6.04-15.84 6.04-15.067 0-23.757-11.983-23.757-25.81 0-13.734 8.69-25.809 23.758-25.809C279.399 128 288 140.372 288 151.674" fill="#FFF"/></g></svg>