<svg width="274" height="245" xmlns="http://www.w3.org/2000/svg" xmlns:svg="http://www.w3.org/2000/svg" xmlns:xlink="http://www.w3.org/1999/xlink">
 <defs>
  <path d="m21.304,29.564a11.989,11.989 0 0 0 -7.743,-2.823c-3.1,0 -5.928,1.174 -8.065,3.103a13.38,13.38 0 0 1 -5.496,-10.84c0,-1.86 0.729,-3.732 1.738,-5.435l0.337,-0.47l1.347,0.673l0.658,-3.425a35.061,35.061 0 0 1 3.262,-3.31c1.552,-1.387 5.872,-7.037 5.872,-7.037s4.066,5.65 5.079,6.672c0.464,0.468 2.207,1.927 3.962,3.905l0.24,0.314l0.705,3.127l1.152,-0.704l0.195,0.255c1.091,1.712 1.881,3.584 1.881,5.435c0,4.295 -2.007,8.117 -5.124,10.56zm-8.085,-3.027c3.937,0 7.128,-3.215 7.128,-7.18c0,-2.987 -3.842,-6.08 -4.388,-6.63c-0.547,-0.55 -2.74,-3.587 -2.74,-3.587s-2.33,3.038 -3.168,3.784c-0.837,0.746 -3.96,3.614 -3.96,6.433c0,3.965 3.19,7.18 7.128,7.18z" id="a"/>
  <path d="m21.028,29.773a11.99,11.99 0 0 0 -7.79,-2.863a11.99,11.99 0 0 0 -7.813,2.882a13.38,13.38 0 0 1 -5.425,-10.788c0,-1.86 0.729,-3.732 1.738,-5.435l0.337,-0.47l1.347,0.673l0.658,-3.425a35.061,35.061 0 0 1 3.262,-3.31c1.552,-1.387 5.872,-7.037 5.872,-7.037s4.066,5.65 5.079,6.672c0.464,0.468 2.207,1.927 3.962,3.905l0.24,0.314l0.705,3.127l1.152,-0.704l0.195,0.255c1.091,1.712 1.881,3.584 1.881,5.435c0,4.42 -2.125,8.339 -5.4,10.77l0,-0.001zm-7.81,-3.235c3.938,0 7.13,-3.215 7.13,-7.18c0,-2.987 -3.843,-6.08 -4.39,-6.63c-0.546,-0.55 -2.74,-3.587 -2.74,-3.587s-2.33,3.038 -3.167,3.784c-0.837,0.746 -3.96,3.614 -3.96,6.433c0,3.965 3.19,7.18 7.128,7.18l-0.001,0z" id="c"/>
  <path d="m21.304,29.564a11.989,11.989 0 0 0 -7.743,-2.823c-3.1,0 -5.928,1.174 -8.065,3.103a13.38,13.38 0 0 1 -5.496,-10.84c0,-1.86 0.729,-3.732 1.738,-5.435l0.337,-0.47l1.347,0.673l0.658,-3.425a35.061,35.061 0 0 1 3.262,-3.31c1.552,-1.387 5.872,-7.037 5.872,-7.037s4.066,5.65 5.079,6.672c0.464,0.468 2.207,1.927 3.962,3.905l0.24,0.314l0.705,3.127l1.152,-0.704l0.195,0.255c1.091,1.712 1.881,3.584 1.881,5.435c0,4.295 -2.007,8.117 -5.124,10.56zm-8.085,-3.027c3.937,0 7.128,-3.215 7.128,-7.18c0,-2.987 -3.842,-6.08 -4.388,-6.63c-0.547,-0.55 -2.74,-3.587 -2.74,-3.587s-2.33,3.038 -3.168,3.784c-0.837,0.746 -3.96,3.614 -3.96,6.433c0,3.965 3.19,7.18 7.128,7.18z" id="d"/>
  <path d="m21.028,29.773a11.99,11.99 0 0 0 -7.79,-2.863a11.99,11.99 0 0 0 -7.813,2.882a13.38,13.38 0 0 1 -5.425,-10.788c0,-1.86 0.729,-3.732 1.738,-5.435l0.337,-0.47l1.347,0.673l0.658,-3.425a35.061,35.061 0 0 1 3.262,-3.31c1.552,-1.387 5.872,-7.037 5.872,-7.037s4.066,5.65 5.079,6.672c0.464,0.468 2.207,1.927 3.962,3.905l0.24,0.314l0.705,3.127l1.152,-0.704l0.195,0.255c1.091,1.712 1.881,3.584 1.881,5.435c0,4.42 -2.125,8.339 -5.4,10.77l0,-0.001zm-7.81,-3.235c3.938,0 7.13,-3.215 7.13,-7.18c0,-2.987 -3.843,-6.08 -4.39,-6.63c-0.546,-0.55 -2.74,-3.587 -2.74,-3.587s-2.33,3.038 -3.167,3.784c-0.837,0.746 -3.96,3.614 -3.96,6.433c0,3.965 3.19,7.18 7.128,7.18l-0.001,0z" id="f"/>
 </defs>
 <g>
  <title>Layer 1</title>
  <g fill="none" fill-rule="evenodd" id="svg_1">
   <path d="m138,136c7.18,0 13,-5.82 13,-13s-5.82,-13 -13,-13s-13,5.82 -13,13s5.82,13 13,13zm0.25,-2.5c5.66,0 10.25,-4.59 10.25,-10.25s-4.59,-10.25 -10.25,-10.25s-10.25,4.59 -10.25,10.25s4.59,10.25 10.25,10.25zm0,-3.5a6.75,6.75 0 1 0 0,-13.5a6.75,6.75 0 0 0 0,13.5z" fill="#00D8FF" id="svg_5"/>
   <g id="svg_6">
    <mask id="b">
     <use xlink:href="#a" id="svg_7"/>
    </mask>
    <use fill="#00D8FF" xlink:href="#a" y="84" x="124" id="svg_8"/>
    <path d="m146.496,140.084l0.704,3.128l1.152,-0.704l0.195,0.255c1.091,1.712 1.881,3.584 1.881,5.434c0,7.375 -5.916,13.354 -13.214,13.354s-13.214,-5.979 -13.214,-13.354c0,-1.86 0.729,-3.731 1.738,-5.434l0.337,-0.471l1.347,0.673l0.658,-3.424a35.061,35.061 0 0 1 3.262,-3.31c1.552,-1.388 5.872,-7.037 5.872,-7.037s4.066,5.65 5.079,6.671c0.464,0.468 2.207,1.927 3.962,3.905l0.24,0.314l0.001,0zm-9.277,15.646c3.937,0 7.128,-3.214 7.128,-7.18c0,-2.986 -3.842,-6.08 -4.388,-6.63c-0.547,-0.549 -2.74,-3.586 -2.74,-3.586s-2.33,3.037 -3.168,3.783c-0.837,0.746 -3.96,3.615 -3.96,6.434c0,3.965 3.19,7.18 7.128,7.18l0,-0.001z" fill="#00D8FF" mask="url(#b)" transform="rotate(-180 137.21400451660156,145.37200927734375) " id="svg_9"/>
   </g>
   <use fill="#00D8FF" xlink:href="#c" transform="rotate(90 33.49999999999998,143.00000000000003) " id="svg_10"/>
   <g transform="rotate(180 75.5,80.5) " id="svg_11">
    <mask id="e">
     <use xlink:href="#d" id="svg_12"/>
    </mask>
    <use fill="#00D8FF" xlink:href="#d" id="svg_13"/>
    <path d="m22.496,56.084l0.704,3.128l1.152,-0.704l0.195,0.255c1.091,1.712 1.881,3.584 1.881,5.434c0,7.375 -5.916,13.354 -13.214,13.354s-13.214,-5.979 -13.214,-13.354c0,-1.86 0.729,-3.731 1.738,-5.434l0.337,-0.471l1.347,0.673l0.658,-3.424a35.061,35.061 0 0 1 3.262,-3.31c1.552,-1.388 5.872,-7.037 5.872,-7.037s4.066,5.65 5.079,6.671c0.464,0.468 2.207,1.927 3.962,3.905l0.24,0.314l0.001,0zm-9.277,15.646c3.937,0 7.128,-3.214 7.128,-7.18c0,-2.986 -3.842,-6.08 -4.388,-6.63c-0.547,-0.549 -2.74,-3.586 -2.74,-3.586s-2.33,3.037 -3.168,3.783c-0.837,0.746 -3.96,3.615 -3.96,6.434c0,3.965 3.19,7.18 7.128,7.18l0,-0.001z" fill="#00D8FF" mask="url(#e)" transform="rotate(-180 13.21399974822998,61.37200164794922) " id="svg_14"/>
   </g>
   <use fill="#00D8FF" xlink:href="#f" transform="rotate(-90 117.5,18.99999999999999) " id="svg_15"/>
  </g>
 </g>
</svg>
